ISO-10303-21;
HEADER;
/* Generated by software containing ST-Developer
 * from STEP Tools, Inc. (www.steptools.com) 
 */

FILE_DESCRIPTION(
/* description */ ('Alibre Inc.'),
/* implementation_level */ '2;1');

FILE_NAME(
/* name */ 'export-7E59326B-D947-4046-8419-BCAAFED6B3B7',
/* time_stamp */ '2026-10-02T12:34:41+02:00',
/* author */ (''),
/* organization */ (''),
/* preprocessor_version */ 'ST-DEVELOPER v17',
/* originating_system */ 'Alibre',
/* authorisation */ '');

FILE_SCHEMA (('CONFIG_CONTROL_DESIGN'));
ENDSEC;

DATA;
#10=MECHANICAL_CONTEXT('detailed design',#18,'mechanical');
#11=PRODUCT_RELATED_PRODUCT_CATEGORY('detail','',(#98));
#12=CC_DESIGN_SECURITY_CLASSIFICATION(#14,(#97));
#13=SECURITY_CLASSIFICATION_LEVEL('unclassified');
#14=SECURITY_CLASSIFICATION('name','Security for version',#13);
#15=SHAPE_DEFINITION_REPRESENTATION(#16,#376);
#16=PRODUCT_DEFINITION_SHAPE('','DefinitionDesc',#96);
#17=APPLICATION_PROTOCOL_DEFINITION('AP definition status',
'config_control_design',1994,#18);
#18=APPLICATION_CONTEXT(
'control the configuration of three dimensional design');
#19=DESIGN_CONTEXT('detailed design',#18,'design');
#20=PERSON_AND_ORGANIZATION_ROLE('creator');
#21=PERSON_AND_ORGANIZATION_ROLE('classification_officer');
#22=PERSON_AND_ORGANIZATION_ROLE('creator');
#23=PERSON_AND_ORGANIZATION_ROLE('design_supplier');
#24=PERSON_AND_ORGANIZATION_ROLE('design_owner');
#25=CC_DESIGN_PERSON_AND_ORGANIZATION_ASSIGNMENT(#57,#20,(#96));
#26=CC_DESIGN_PERSON_AND_ORGANIZATION_ASSIGNMENT(#60,#21,(#14));
#27=CC_DESIGN_PERSON_AND_ORGANIZATION_ASSIGNMENT(#61,#22,(#97));
#28=CC_DESIGN_PERSON_AND_ORGANIZATION_ASSIGNMENT(#62,#23,(#97));
#29=CC_DESIGN_PERSON_AND_ORGANIZATION_ASSIGNMENT(#63,#24,(#98));
#30=DATE_TIME_ROLE('creation_date');
#31=DATE_TIME_ROLE('classification_date');
#32=CC_DESIGN_DATE_AND_TIME_ASSIGNMENT(#86,#30,(#96));
#33=CC_DESIGN_DATE_AND_TIME_ASSIGNMENT(#89,#31,(#14));
#34=CC_DESIGN_APPROVAL(#93,(#96));
#35=CC_DESIGN_APPROVAL(#94,(#97));
#36=CC_DESIGN_APPROVAL(#95,(#14));
#37=APPROVAL_PERSON_ORGANIZATION(#56,#93,#64);
#38=APPROVAL_PERSON_ORGANIZATION(#58,#94,#65);
#39=APPROVAL_PERSON_ORGANIZATION(#59,#95,#66);
#40=ORGANIZATION('DEFINITION_APPROVEDBY_ORG_ID',
'DEFINITION_APPROVEDBY_ORG_NAME','DEFINITION_APPROVEDBY_ORG_DESCR');
#41=ORGANIZATION('DEF_CREATOR_ORG_ID','DEF_CREATOR_ORG_NAME',
'DEF_CREATOR_ORG_DESCR');
#42=ORGANIZATION('APPROVEDBY_ORG_ID','APPROVEDBY_ORG_NAME',
'APPROVEDBY_ORG_DESCR');
#43=ORGANIZATION('SECURITY_APPROVEDBY_ORG_ID',
'SECURITY_APPROVEDBY_ORG_NAME','SECURITY_APPROVEDBY_ORG_DESCR');
#44=ORGANIZATION('CLASSOFFICER_ORG_ID','CLASSOFFICER_ORG_NAME',
'CLASSOFFICER_ORG_DESCR');
#45=ORGANIZATION('CREATOR_ORG_ID','CREATOR_ORG_NAME',
'CREATOR_ORG_DESCR');
#46=ORGANIZATION('SUPPLIER_ORG_ID','SUPPLIER_ORG_NAME',
'SUPPLIER_ORG_DESCR');
#47=ORGANIZATION('OWNER_ORG_ID','OWNER_ORG_NAME','OWNER_ORG_DESCR');
#48=PERSON('DEFINITION_approverID','DEFINITION_APPROVEDBY_LASTNAME',
'DEFINITION_APPROVEDBY_FIRSTNAME',$,$,$);
#49=PERSON('DEF_createrID','DEF_CREATOR_LASTNAME',
'DEF_CREATOR_FIRSTNAME',$,$,$);
#50=PERSON('approverID','APPROVEDBY_LASTNAME','APPROVEDBY_FIRSTNAME',$,
$,$);
#51=PERSON('SECURITY_approverID','SECURITY_LASTNAME',
'SECURITY_APPROVEDBY_FIRSTNAME',$,$,$);
#52=PERSON('classifierID','CLASSOFFICER_LASTNAME',
'CLASSOFFICER_FIRSTNAME',$,$,$);
#53=PERSON('createrID','CREATOR_LASTNAME','CREATOR_FIRSTNAME',$,$,$);
#54=PERSON('supplierID','SUPPLIER_LASTNAME','SUPPLIER_FIRSTNAME',$,$,$);
#55=PERSON('ownerID','OWNER_LASTNAME','OWNER_FIRSTNAME',$,$,$);
#56=PERSON_AND_ORGANIZATION(#48,#40);
#57=PERSON_AND_ORGANIZATION(#49,#41);
#58=PERSON_AND_ORGANIZATION(#50,#42);
#59=PERSON_AND_ORGANIZATION(#51,#43);
#60=PERSON_AND_ORGANIZATION(#52,#44);
#61=PERSON_AND_ORGANIZATION(#53,#45);
#62=PERSON_AND_ORGANIZATION(#54,#46);
#63=PERSON_AND_ORGANIZATION(#55,#47);
#64=APPROVAL_ROLE('definition_approval');
#65=APPROVAL_ROLE('version_approval');
#66=APPROVAL_ROLE('security_approval');
#67=APPROVAL_DATE_TIME(#85,#93);
#68=APPROVAL_DATE_TIME(#87,#94);
#69=APPROVAL_DATE_TIME(#88,#95);
#70=COORDINATED_UNIVERSAL_TIME_OFFSET(1,0,.AHEAD.);
#71=COORDINATED_UNIVERSAL_TIME_OFFSET(1,0,.AHEAD.);
#72=COORDINATED_UNIVERSAL_TIME_OFFSET(1,0,.AHEAD.);
#73=COORDINATED_UNIVERSAL_TIME_OFFSET(1,0,.AHEAD.);
#74=COORDINATED_UNIVERSAL_TIME_OFFSET(1,0,.AHEAD.);
#75=LOCAL_TIME(14,22,14.,#70);
#76=LOCAL_TIME(14,22,14.,#71);
#77=LOCAL_TIME(14,22,14.,#72);
#78=LOCAL_TIME(14,22,14.,#73);
#79=LOCAL_TIME(14,22,14.,#74);
#80=CALENDAR_DATE(2026,20,3);
#81=CALENDAR_DATE(2026,20,3);
#82=CALENDAR_DATE(2026,20,3);
#83=CALENDAR_DATE(2026,20,3);
#84=CALENDAR_DATE(2026,20,3);
#85=DATE_AND_TIME(#80,#75);
#86=DATE_AND_TIME(#81,#76);
#87=DATE_AND_TIME(#82,#77);
#88=DATE_AND_TIME(#83,#78);
#89=DATE_AND_TIME(#84,#79);
#90=APPROVAL_STATUS('not_yet_approved');
#91=APPROVAL_STATUS('not_yet_approved');
#92=APPROVAL_STATUS('not_yet_approved');
#93=APPROVAL(#90,'defintion approval');
#94=APPROVAL(#91,'version approval');
#95=APPROVAL(#92,'security approval');
#96=PRODUCT_DEFINITION('DefinitionID','DefinitionDesc',#97,#19);
#97=PRODUCT_DEFINITION_FORMATION_WITH_SPECIFIED_SOURCE(
'PRODUCT_VERSION_ID','PRODUCT_VERSION_DESCR',#98,.NOT_KNOWN.);
#98=PRODUCT('handle','handle','',(#10));
#99=(
LENGTH_UNIT()
NAMED_UNIT(*)
SI_UNIT(.MILLI.,.METRE.)
);
#100=(
NAMED_UNIT(*)
PLANE_ANGLE_UNIT()
SI_UNIT($,.RADIAN.)
);
#101=(
NAMED_UNIT(*)
SI_UNIT($,.STERADIAN.)
SOLID_ANGLE_UNIT()
);
#102=UNCERTAINTY_MEASURE_WITH_UNIT(LENGTH_MEASURE(1.E-6),#99,
'DISTANCE_ACCURACY_VALUE',
'Maximum model space distance between geometric entities at asserted c
onnectivities');
#103=(
GEOMETRIC_REPRESENTATION_CONTEXT(3)
GLOBAL_UNCERTAINTY_ASSIGNED_CONTEXT((#102))
GLOBAL_UNIT_ASSIGNED_CONTEXT((#101,#100,#99))
REPRESENTATION_CONTEXT('ID1','3D')
);
#104=CYLINDRICAL_SURFACE('',#272,2.1);
#105=CYLINDRICAL_SURFACE('',#281,2.1);
#106=CIRCLE('',#271,2.1);
#107=CIRCLE('',#273,2.1);
#108=VERTEX_POINT('',#320);
#109=VERTEX_POINT('',#321);
#110=VERTEX_POINT('',#323);
#111=VERTEX_POINT('',#325);
#112=VERTEX_POINT('',#327);
#113=VERTEX_POINT('',#329);
#114=VERTEX_POINT('',#332);
#115=VERTEX_POINT('',#333);
#116=VERTEX_POINT('',#336);
#117=VERTEX_POINT('',#338);
#118=VERTEX_POINT('',#342);
#119=VERTEX_POINT('',#343);
#120=VERTEX_POINT('',#348);
#121=VERTEX_POINT('',#352);
#122=VERTEX_POINT('',#356);
#123=VERTEX_POINT('',#360);
#124=VECTOR('',#283,1.);
#125=VECTOR('',#284,1.);
#126=VECTOR('',#285,1.);
#127=VECTOR('',#286,1.);
#128=VECTOR('',#287,1.);
#129=VECTOR('',#288,1.);
#130=VECTOR('',#293,1.);
#131=VECTOR('',#294,1.);
#132=VECTOR('',#298,1.);
#133=VECTOR('',#299,1.);
#134=VECTOR('',#300,1.);
#135=VECTOR('',#302,1.);
#136=VECTOR('',#303,1.);
#137=VECTOR('',#305,1.);
#138=VECTOR('',#306,1.);
#139=VECTOR('',#308,1.);
#140=VECTOR('',#309,1.);
#141=VECTOR('',#311,1.);
#142=VECTOR('',#312,1.);
#143=VECTOR('',#314,1.);
#144=LINE('',#319,#124);
#145=LINE('',#322,#125);
#146=LINE('',#324,#126);
#147=LINE('',#326,#127);
#148=LINE('',#328,#128);
#149=LINE('',#330,#129);
#150=LINE('',#335,#130);
#151=LINE('',#337,#131);
#152=LINE('',#341,#132);
#153=LINE('',#344,#133);
#154=LINE('',#345,#134);
#155=LINE('',#347,#135);
#156=LINE('',#349,#136);
#157=LINE('',#351,#137);
#158=LINE('',#353,#138);
#159=LINE('',#355,#139);
#160=LINE('',#357,#140);
#161=LINE('',#359,#141);
#162=LINE('',#361,#142);
#163=LINE('',#363,#143);
#164=EDGE_CURVE('',#108,#109,#144,.T.);
#165=EDGE_CURVE('',#110,#108,#145,.T.);
#166=EDGE_CURVE('',#111,#110,#146,.T.);
#167=EDGE_CURVE('',#112,#111,#147,.T.);
#168=EDGE_CURVE('',#113,#112,#148,.T.);
#169=EDGE_CURVE('',#109,#113,#149,.T.);
#170=EDGE_CURVE('',#114,#115,#106,.T.);
#171=EDGE_CURVE('',#115,#114,#106,.T.);
#172=EDGE_CURVE('',#114,#116,#150,.T.);
#173=EDGE_CURVE('',#115,#117,#151,.T.);
#174=EDGE_CURVE('',#116,#117,#107,.T.);
#175=EDGE_CURVE('',#118,#119,#152,.T.);
#176=EDGE_CURVE('',#118,#109,#153,.T.);
#177=EDGE_CURVE('',#119,#113,#154,.T.);
#178=EDGE_CURVE('',#119,#120,#155,.T.);
#179=EDGE_CURVE('',#120,#112,#156,.T.);
#180=EDGE_CURVE('',#120,#121,#157,.T.);
#181=EDGE_CURVE('',#121,#111,#158,.T.);
#182=EDGE_CURVE('',#121,#122,#159,.T.);
#183=EDGE_CURVE('',#122,#110,#160,.T.);
#184=EDGE_CURVE('',#122,#123,#161,.T.);
#185=EDGE_CURVE('',#123,#108,#162,.T.);
#186=EDGE_CURVE('',#123,#118,#163,.T.);
#187=EDGE_CURVE('',#117,#116,#107,.T.);
#188=ORIENTED_EDGE('',*,*,#164,.F.);
#189=ORIENTED_EDGE('',*,*,#165,.F.);
#190=ORIENTED_EDGE('',*,*,#166,.F.);
#191=ORIENTED_EDGE('',*,*,#167,.F.);
#192=ORIENTED_EDGE('',*,*,#168,.F.);
#193=ORIENTED_EDGE('',*,*,#169,.F.);
#194=ORIENTED_EDGE('',*,*,#170,.F.);
#195=ORIENTED_EDGE('',*,*,#171,.F.);
#196=ORIENTED_EDGE('',*,*,#172,.F.);
#197=ORIENTED_EDGE('',*,*,#170,.T.);
#198=ORIENTED_EDGE('',*,*,#173,.T.);
#199=ORIENTED_EDGE('',*,*,#174,.F.);
#200=ORIENTED_EDGE('',*,*,#175,.F.);
#201=ORIENTED_EDGE('',*,*,#176,.T.);
#202=ORIENTED_EDGE('',*,*,#169,.T.);
#203=ORIENTED_EDGE('',*,*,#177,.F.);
#204=ORIENTED_EDGE('',*,*,#178,.F.);
#205=ORIENTED_EDGE('',*,*,#177,.T.);
#206=ORIENTED_EDGE('',*,*,#168,.T.);
#207=ORIENTED_EDGE('',*,*,#179,.F.);
#208=ORIENTED_EDGE('',*,*,#180,.F.);
#209=ORIENTED_EDGE('',*,*,#179,.T.);
#210=ORIENTED_EDGE('',*,*,#167,.T.);
#211=ORIENTED_EDGE('',*,*,#181,.F.);
#212=ORIENTED_EDGE('',*,*,#182,.F.);
#213=ORIENTED_EDGE('',*,*,#181,.T.);
#214=ORIENTED_EDGE('',*,*,#166,.T.);
#215=ORIENTED_EDGE('',*,*,#183,.F.);
#216=ORIENTED_EDGE('',*,*,#184,.F.);
#217=ORIENTED_EDGE('',*,*,#183,.T.);
#218=ORIENTED_EDGE('',*,*,#165,.T.);
#219=ORIENTED_EDGE('',*,*,#185,.F.);
#220=ORIENTED_EDGE('',*,*,#186,.F.);
#221=ORIENTED_EDGE('',*,*,#185,.T.);
#222=ORIENTED_EDGE('',*,*,#164,.T.);
#223=ORIENTED_EDGE('',*,*,#176,.F.);
#224=ORIENTED_EDGE('',*,*,#186,.T.);
#225=ORIENTED_EDGE('',*,*,#175,.T.);
#226=ORIENTED_EDGE('',*,*,#178,.T.);
#227=ORIENTED_EDGE('',*,*,#180,.T.);
#228=ORIENTED_EDGE('',*,*,#182,.T.);
#229=ORIENTED_EDGE('',*,*,#184,.T.);
#230=ORIENTED_EDGE('',*,*,#187,.T.);
#231=ORIENTED_EDGE('',*,*,#174,.T.);
#232=ORIENTED_EDGE('',*,*,#172,.T.);
#233=ORIENTED_EDGE('',*,*,#187,.F.);
#234=ORIENTED_EDGE('',*,*,#173,.F.);
#235=ORIENTED_EDGE('',*,*,#171,.T.);
#236=EDGE_LOOP('',(#188,#189,#190,#191,#192,#193));
#237=EDGE_LOOP('',(#194,#195));
#238=EDGE_LOOP('',(#196,#197,#198,#199));
#239=EDGE_LOOP('',(#200,#201,#202,#203));
#240=EDGE_LOOP('',(#204,#205,#206,#207));
#241=EDGE_LOOP('',(#208,#209,#210,#211));
#242=EDGE_LOOP('',(#212,#213,#214,#215));
#243=EDGE_LOOP('',(#216,#217,#218,#219));
#244=EDGE_LOOP('',(#220,#221,#222,#223));
#245=EDGE_LOOP('',(#224,#225,#226,#227,#228,#229));
#246=EDGE_LOOP('',(#230,#231));
#247=EDGE_LOOP('',(#232,#233,#234,#235));
#248=FACE_BOUND('',#236,.T.);
#249=FACE_BOUND('',#237,.T.);
#250=FACE_BOUND('',#238,.T.);
#251=FACE_BOUND('',#239,.T.);
#252=FACE_BOUND('',#240,.T.);
#253=FACE_BOUND('',#241,.T.);
#254=FACE_BOUND('',#242,.T.);
#255=FACE_BOUND('',#243,.T.);
#256=FACE_BOUND('',#244,.T.);
#257=FACE_BOUND('',#245,.T.);
#258=FACE_BOUND('',#246,.T.);
#259=FACE_BOUND('',#247,.T.);
#260=ADVANCED_FACE('',(#248,#249),#366,.T.);
#261=ADVANCED_FACE('',(#250),#104,.F.);
#262=ADVANCED_FACE('',(#251),#367,.T.);
#263=ADVANCED_FACE('',(#252),#368,.T.);
#264=ADVANCED_FACE('',(#253),#369,.T.);
#265=ADVANCED_FACE('',(#254),#370,.T.);
#266=ADVANCED_FACE('',(#255),#371,.T.);
#267=ADVANCED_FACE('',(#256),#372,.T.);
#268=ADVANCED_FACE('',(#257,#258),#373,.F.);
#269=ADVANCED_FACE('',(#259),#105,.F.);
#270=AXIS2_PLACEMENT_3D('',#318,#282,$);
#271=AXIS2_PLACEMENT_3D('',#331,#289,#290);
#272=AXIS2_PLACEMENT_3D('',#334,#291,#292);
#273=AXIS2_PLACEMENT_3D('',#339,#295,#296);
#274=AXIS2_PLACEMENT_3D('',#340,#297,$);
#275=AXIS2_PLACEMENT_3D('',#346,#301,$);
#276=AXIS2_PLACEMENT_3D('',#350,#304,$);
#277=AXIS2_PLACEMENT_3D('',#354,#307,$);
#278=AXIS2_PLACEMENT_3D('',#358,#310,$);
#279=AXIS2_PLACEMENT_3D('',#362,#313,$);
#280=AXIS2_PLACEMENT_3D('',#364,#315,$);
#281=AXIS2_PLACEMENT_3D('',#365,#316,#317);
#282=DIRECTION('',(1.,-2.34347867994754E-16,0.));
#283=DIRECTION('',(0.,-0.5,0.866025403784439));
#284=DIRECTION('',(0.,-1.,0.));
#285=DIRECTION('',(0.,-0.499999999999999,-0.866025403784439));
#286=DIRECTION('',(0.,0.499999999999991,-0.866025403784444));
#287=DIRECTION('',(0.,1.,0.));
#288=DIRECTION('',(0.,0.5,0.866025403784439));
#289=DIRECTION('',(1.,-2.34347867994754E-16,0.));
#290=DIRECTION('',(4.92130522788983E-16,2.1,0.));
#291=DIRECTION('',(1.,2.55223683821875E-16,0.));
#292=DIRECTION('',(-5.35969736025938E-16,2.1,0.));
#293=DIRECTION('',(-1.,-2.55223683821875E-16,0.));
#294=DIRECTION('',(-1.,0.,0.));
#295=DIRECTION('',(1.,2.34347867994754E-16,0.));
#296=DIRECTION('',(-4.92130522788983E-16,2.1,0.));
#297=DIRECTION('',(2.21030193837191E-16,-0.866025403784438,0.500000000000001));
#298=DIRECTION('',(0.,0.5,0.866025403784439));
#299=DIRECTION('',(1.,0.,0.));
#300=DIRECTION('',(1.,0.,0.));
#301=DIRECTION('',(-4.90785620670822E-31,1.92296268638356E-15,1.));
#302=DIRECTION('',(0.,1.,0.));
#303=DIRECTION('',(1.,0.,0.));
#304=DIRECTION('',(-2.21030193837191E-16,0.866025403784439,0.499999999999999));
#305=DIRECTION('',(0.,0.499999999999991,-0.866025403784444));
#306=DIRECTION('',(1.,0.,0.));
#307=DIRECTION('',(-2.21030193837191E-16,0.866025403784438,-0.5));
#308=DIRECTION('',(0.,-0.499999999999999,-0.866025403784439));
#309=DIRECTION('',(1.,0.,0.));
#310=DIRECTION('',(4.90785620670822E-31,-1.92296268638356E-15,-1.));
#311=DIRECTION('',(0.,-1.,0.));
#312=DIRECTION('',(1.,0.,0.));
#313=DIRECTION('',(2.21030193837191E-16,-0.866025403784439,-0.499999999999999));
#314=DIRECTION('',(0.,-0.5,0.866025403784439));
#315=DIRECTION('',(1.,2.34347867994754E-16,0.));
#316=DIRECTION('',(1.,2.55223683821875E-16,0.));
#317=DIRECTION('',(-5.35969736025938E-16,2.1,0.));
#318=CARTESIAN_POINT('',(87.,-27.8229941410027,111.929143752707));
#319=CARTESIAN_POINT('',(87.,-32.4417962945197,103.929143752707));
#320=CARTESIAN_POINT('',(87.,-32.4417962945197,103.929143752707));
#321=CARTESIAN_POINT('',(87.,-37.0605984480367,111.929143752707));
#322=CARTESIAN_POINT('',(87.,-23.2041919874857,103.929143752707));
#323=CARTESIAN_POINT('',(87.,-23.2041919874857,103.929143752707));
#324=CARTESIAN_POINT('',(87.,-18.5853898339687,111.929143752707));
#325=CARTESIAN_POINT('',(87.,-18.5853898339687,111.929143752707));
#326=CARTESIAN_POINT('',(87.,-23.2041919874856,119.929143752707));
#327=CARTESIAN_POINT('',(87.,-23.2041919874856,119.929143752707));
#328=CARTESIAN_POINT('',(87.,-32.4417962945197,119.929143752707));
#329=CARTESIAN_POINT('',(87.,-32.4417962945197,119.929143752707));
#330=CARTESIAN_POINT('',(87.,-37.0605984480367,111.929143752707));
#331=CARTESIAN_POINT('',(87.,-27.8229941410027,111.929143752707));
#332=CARTESIAN_POINT('',(87.,-25.7229941410027,111.929143752707));
#333=CARTESIAN_POINT('',(87.,-29.9229941410027,111.929143752707));
#334=CARTESIAN_POINT('',(-87.,-27.8229941410027,111.929143752707));
#335=CARTESIAN_POINT('',(87.,-25.7229941410027,111.929143752707));
#336=CARTESIAN_POINT('',(-87.,-25.7229941410027,111.929143752707));
#337=CARTESIAN_POINT('',(87.,-29.9229941410027,111.929143752707));
#338=CARTESIAN_POINT('',(-87.,-29.9229941410027,111.929143752707));
#339=CARTESIAN_POINT('',(-87.,-27.8229941410027,111.929143752707));
#340=CARTESIAN_POINT('',(-87.,-32.4417962945197,119.929143752707));
#341=CARTESIAN_POINT('',(-87.,-37.0605984480367,111.929143752707));
#342=CARTESIAN_POINT('',(-87.,-37.0605984480367,111.929143752707));
#343=CARTESIAN_POINT('',(-87.,-32.4417962945197,119.929143752707));
#344=CARTESIAN_POINT('',(-87.,-37.0605984480367,111.929143752707));
#345=CARTESIAN_POINT('',(-87.,-32.4417962945197,119.929143752707));
#346=CARTESIAN_POINT('',(-87.,-23.2041919874856,119.929143752707));
#347=CARTESIAN_POINT('',(-87.,-32.4417962945197,119.929143752707));
#348=CARTESIAN_POINT('',(-87.,-23.2041919874856,119.929143752707));
#349=CARTESIAN_POINT('',(-87.,-23.2041919874856,119.929143752707));
#350=CARTESIAN_POINT('',(-87.,-18.5853898339687,111.929143752707));
#351=CARTESIAN_POINT('',(-87.,-23.2041919874856,119.929143752707));
#352=CARTESIAN_POINT('',(-87.,-18.5853898339687,111.929143752707));
#353=CARTESIAN_POINT('',(-87.,-18.5853898339687,111.929143752707));
#354=CARTESIAN_POINT('',(-87.,-23.2041919874857,103.929143752707));
#355=CARTESIAN_POINT('',(-87.,-18.5853898339687,111.929143752707));
#356=CARTESIAN_POINT('',(-87.,-23.2041919874857,103.929143752707));
#357=CARTESIAN_POINT('',(-87.,-23.2041919874857,103.929143752707));
#358=CARTESIAN_POINT('',(-87.,-32.4417962945197,103.929143752707));
#359=CARTESIAN_POINT('',(-87.,-23.2041919874857,103.929143752707));
#360=CARTESIAN_POINT('',(-87.,-32.4417962945197,103.929143752707));
#361=CARTESIAN_POINT('',(-87.,-32.4417962945197,103.929143752707));
#362=CARTESIAN_POINT('',(-87.,-37.0605984480367,111.929143752707));
#363=CARTESIAN_POINT('',(-87.,-32.4417962945197,103.929143752707));
#364=CARTESIAN_POINT('',(-87.,-27.8229941410027,111.929143752707));
#365=CARTESIAN_POINT('',(-87.,-27.8229941410027,111.929143752707));
#366=PLANE('',#270);
#367=PLANE('',#274);
#368=PLANE('',#275);
#369=PLANE('',#276);
#370=PLANE('',#277);
#371=PLANE('',#278);
#372=PLANE('',#279);
#373=PLANE('',#280);
#374=CLOSED_SHELL('',(#260,#261,#262,#263,#264,#265,#266,#267,#268,#269));
#375=MANIFOLD_SOLID_BREP('',#374);
#376=ADVANCED_BREP_SHAPE_REPRESENTATION('',(#375),#103);
ENDSEC;
END-ISO-10303-21;
