ISO-10303-21;
HEADER;
/* Generated by software containing ST-Developer
 * from STEP Tools, Inc. (www.steptools.com) 
 */

FILE_DESCRIPTION(
/* description */ ('Alibre Inc.'),
/* implementation_level */ '2;1');

FILE_NAME(
/* name */ 'export-FB0460A9-4643-4993-BD18-561243551595',
/* time_stamp */ '2026-10-02T12:35:29+02:00',
/* author */ (''),
/* organization */ (''),
/* preprocessor_version */ 'ST-DEVELOPER v17',
/* originating_system */ 'Alibre',
/* authorisation */ '');

FILE_SCHEMA (('CONFIG_CONTROL_DESIGN'));
ENDSEC;

DATA;
#10=MECHANICAL_CONTEXT('detailed design',#18,'mechanical');
#11=PRODUCT_RELATED_PRODUCT_CATEGORY('detail','',(#98));
#12=CC_DESIGN_SECURITY_CLASSIFICATION(#14,(#97));
#13=SECURITY_CLASSIFICATION_LEVEL('unclassified');
#14=SECURITY_CLASSIFICATION('name','Security for version',#13);
#15=SHAPE_DEFINITION_REPRESENTATION(#16,#574);
#16=PRODUCT_DEFINITION_SHAPE('','DefinitionDesc',#96);
#17=APPLICATION_PROTOCOL_DEFINITION('AP definition status',
'config_control_design',1994,#18);
#18=APPLICATION_CONTEXT(
'control the configuration of three dimensional design');
#19=DESIGN_CONTEXT('detailed design',#18,'design');
#20=PERSON_AND_ORGANIZATION_ROLE('creator');
#21=PERSON_AND_ORGANIZATION_ROLE('classification_officer');
#22=PERSON_AND_ORGANIZATION_ROLE('creator');
#23=PERSON_AND_ORGANIZATION_ROLE('design_supplier');
#24=PERSON_AND_ORGANIZATION_ROLE('design_owner');
#25=CC_DESIGN_PERSON_AND_ORGANIZATION_ASSIGNMENT(#57,#20,(#96));
#26=CC_DESIGN_PERSON_AND_ORGANIZATION_ASSIGNMENT(#60,#21,(#14));
#27=CC_DESIGN_PERSON_AND_ORGANIZATION_ASSIGNMENT(#61,#22,(#97));
#28=CC_DESIGN_PERSON_AND_ORGANIZATION_ASSIGNMENT(#62,#23,(#97));
#29=CC_DESIGN_PERSON_AND_ORGANIZATION_ASSIGNMENT(#63,#24,(#98));
#30=DATE_TIME_ROLE('creation_date');
#31=DATE_TIME_ROLE('classification_date');
#32=CC_DESIGN_DATE_AND_TIME_ASSIGNMENT(#86,#30,(#96));
#33=CC_DESIGN_DATE_AND_TIME_ASSIGNMENT(#89,#31,(#14));
#34=CC_DESIGN_APPROVAL(#93,(#96));
#35=CC_DESIGN_APPROVAL(#94,(#97));
#36=CC_DESIGN_APPROVAL(#95,(#14));
#37=APPROVAL_PERSON_ORGANIZATION(#56,#93,#64);
#38=APPROVAL_PERSON_ORGANIZATION(#58,#94,#65);
#39=APPROVAL_PERSON_ORGANIZATION(#59,#95,#66);
#40=ORGANIZATION('DEFINITION_APPROVEDBY_ORG_ID',
'DEFINITION_APPROVEDBY_ORG_NAME','DEFINITION_APPROVEDBY_ORG_DESCR');
#41=ORGANIZATION('DEF_CREATOR_ORG_ID','DEF_CREATOR_ORG_NAME',
'DEF_CREATOR_ORG_DESCR');
#42=ORGANIZATION('APPROVEDBY_ORG_ID','APPROVEDBY_ORG_NAME',
'APPROVEDBY_ORG_DESCR');
#43=ORGANIZATION('SECURITY_APPROVEDBY_ORG_ID',
'SECURITY_APPROVEDBY_ORG_NAME','SECURITY_APPROVEDBY_ORG_DESCR');
#44=ORGANIZATION('CLASSOFFICER_ORG_ID','CLASSOFFICER_ORG_NAME',
'CLASSOFFICER_ORG_DESCR');
#45=ORGANIZATION('CREATOR_ORG_ID','CREATOR_ORG_NAME',
'CREATOR_ORG_DESCR');
#46=ORGANIZATION('SUPPLIER_ORG_ID','SUPPLIER_ORG_NAME',
'SUPPLIER_ORG_DESCR');
#47=ORGANIZATION('OWNER_ORG_ID','OWNER_ORG_NAME','OWNER_ORG_DESCR');
#48=PERSON('DEFINITION_approverID','DEFINITION_APPROVEDBY_LASTNAME',
'DEFINITION_APPROVEDBY_FIRSTNAME',$,$,$);
#49=PERSON('DEF_createrID','DEF_CREATOR_LASTNAME',
'DEF_CREATOR_FIRSTNAME',$,$,$);
#50=PERSON('approverID','APPROVEDBY_LASTNAME','APPROVEDBY_FIRSTNAME',$,
$,$);
#51=PERSON('SECURITY_approverID','SECURITY_LASTNAME',
'SECURITY_APPROVEDBY_FIRSTNAME',$,$,$);
#52=PERSON('classifierID','CLASSOFFICER_LASTNAME',
'CLASSOFFICER_FIRSTNAME',$,$,$);
#53=PERSON('createrID','CREATOR_LASTNAME','CREATOR_FIRSTNAME',$,$,$);
#54=PERSON('supplierID','SUPPLIER_LASTNAME','SUPPLIER_FIRSTNAME',$,$,$);
#55=PERSON('ownerID','OWNER_LASTNAME','OWNER_FIRSTNAME',$,$,$);
#56=PERSON_AND_ORGANIZATION(#48,#40);
#57=PERSON_AND_ORGANIZATION(#49,#41);
#58=PERSON_AND_ORGANIZATION(#50,#42);
#59=PERSON_AND_ORGANIZATION(#51,#43);
#60=PERSON_AND_ORGANIZATION(#52,#44);
#61=PERSON_AND_ORGANIZATION(#53,#45);
#62=PERSON_AND_ORGANIZATION(#54,#46);
#63=PERSON_AND_ORGANIZATION(#55,#47);
#64=APPROVAL_ROLE('definition_approval');
#65=APPROVAL_ROLE('version_approval');
#66=APPROVAL_ROLE('security_approval');
#67=APPROVAL_DATE_TIME(#85,#93);
#68=APPROVAL_DATE_TIME(#87,#94);
#69=APPROVAL_DATE_TIME(#88,#95);
#70=COORDINATED_UNIVERSAL_TIME_OFFSET(1,0,.AHEAD.);
#71=COORDINATED_UNIVERSAL_TIME_OFFSET(1,0,.AHEAD.);
#72=COORDINATED_UNIVERSAL_TIME_OFFSET(1,0,.AHEAD.);
#73=COORDINATED_UNIVERSAL_TIME_OFFSET(1,0,.AHEAD.);
#74=COORDINATED_UNIVERSAL_TIME_OFFSET(1,0,.AHEAD.);
#75=LOCAL_TIME(14,22,14.,#70);
#76=LOCAL_TIME(14,22,14.,#71);
#77=LOCAL_TIME(14,22,14.,#72);
#78=LOCAL_TIME(14,22,14.,#73);
#79=LOCAL_TIME(14,22,14.,#74);
#80=CALENDAR_DATE(2026,20,3);
#81=CALENDAR_DATE(2026,20,3);
#82=CALENDAR_DATE(2026,20,3);
#83=CALENDAR_DATE(2026,20,3);
#84=CALENDAR_DATE(2026,20,3);
#85=DATE_AND_TIME(#80,#75);
#86=DATE_AND_TIME(#81,#76);
#87=DATE_AND_TIME(#82,#77);
#88=DATE_AND_TIME(#83,#78);
#89=DATE_AND_TIME(#84,#79);
#90=APPROVAL_STATUS('not_yet_approved');
#91=APPROVAL_STATUS('not_yet_approved');
#92=APPROVAL_STATUS('not_yet_approved');
#93=APPROVAL(#90,'defintion approval');
#94=APPROVAL(#91,'version approval');
#95=APPROVAL(#92,'security approval');
#96=PRODUCT_DEFINITION('DefinitionID','DefinitionDesc',#97,#19);
#97=PRODUCT_DEFINITION_FORMATION_WITH_SPECIFIED_SOURCE(
'PRODUCT_VERSION_ID','PRODUCT_VERSION_DESCR',#98,.NOT_KNOWN.);
#98=PRODUCT('lower arm right','lower arm right','',(#10));
#99=(
LENGTH_UNIT()
NAMED_UNIT(*)
SI_UNIT(.MILLI.,.METRE.)
);
#100=(
NAMED_UNIT(*)
PLANE_ANGLE_UNIT()
SI_UNIT($,.RADIAN.)
);
#101=(
NAMED_UNIT(*)
SI_UNIT($,.STERADIAN.)
SOLID_ANGLE_UNIT()
);
#102=UNCERTAINTY_MEASURE_WITH_UNIT(LENGTH_MEASURE(1.E-6),#99,
'DISTANCE_ACCURACY_VALUE',
'Maximum model space distance between geometric entities at asserted c
onnectivities');
#103=(
GEOMETRIC_REPRESENTATION_CONTEXT(3)
GLOBAL_UNCERTAINTY_ASSIGNED_CONTEXT((#102))
GLOBAL_UNIT_ASSIGNED_CONTEXT((#101,#100,#99))
REPRESENTATION_CONTEXT('ID1','3D')
);
#104=CYLINDRICAL_SURFACE('',#388,7.00000000000002);
#105=CYLINDRICAL_SURFACE('',#402,7.00000000000002);
#106=CYLINDRICAL_SURFACE('',#406,2.1);
#107=CYLINDRICAL_SURFACE('',#407,2.1);
#108=CYLINDRICAL_SURFACE('',#408,2.1);
#109=CYLINDRICAL_SURFACE('',#409,2.1);
#110=CIRCLE('',#382,6.00000000000001);
#111=CIRCLE('',#383,7.00000000000002);
#112=CIRCLE('',#386,6.00000000000002);
#113=CIRCLE('',#387,7.00000000000002);
#114=CIRCLE('',#389,7.00000000000002);
#115=CIRCLE('',#392,2.1);
#116=CIRCLE('',#393,2.1);
#117=CIRCLE('',#395,7.00000000000002);
#118=CIRCLE('',#396,6.00000000000002);
#119=CIRCLE('',#399,6.00000000000001);
#120=CIRCLE('',#404,2.1);
#121=CIRCLE('',#405,2.1);
#122=CONICAL_SURFACE('',#381,6.50000000000001,0.785398163397452);
#123=CONICAL_SURFACE('',#385,6.50000000000002,0.785398163397452);
#124=CONICAL_SURFACE('',#394,6.50000000000002,0.785398163397452);
#125=CONICAL_SURFACE('',#398,6.50000000000001,0.785398163397452);
#126=VERTEX_POINT('',#488);
#127=VERTEX_POINT('',#489);
#128=VERTEX_POINT('',#491);
#129=VERTEX_POINT('',#493);
#130=VERTEX_POINT('',#497);
#131=VERTEX_POINT('',#498);
#132=VERTEX_POINT('',#503);
#133=VERTEX_POINT('',#504);
#134=VERTEX_POINT('',#512);
#135=VERTEX_POINT('',#514);
#136=VERTEX_POINT('',#518);
#137=VERTEX_POINT('',#522);
#138=VERTEX_POINT('',#523);
#139=VERTEX_POINT('',#525);
#140=VERTEX_POINT('',#526);
#141=VERTEX_POINT('',#529);
#142=VERTEX_POINT('',#531);
#143=VERTEX_POINT('',#533);
#144=VERTEX_POINT('',#537);
#145=VERTEX_POINT('',#541);
#146=VERTEX_POINT('',#551);
#147=VERTEX_POINT('',#552);
#148=VERTEX_POINT('',#554);
#149=VERTEX_POINT('',#555);
#150=VECTOR('',#411,1.);
#151=VECTOR('',#412,1.);
#152=VECTOR('',#413,1.);
#153=VECTOR('',#414,1.);
#154=VECTOR('',#417,1.);
#155=VECTOR('',#423,1.);
#156=VECTOR('',#424,1.);
#157=VECTOR('',#425,1.);
#158=VECTOR('',#434,1.);
#159=VECTOR('',#437,1.);
#160=VECTOR('',#439,1.);
#161=VECTOR('',#440,1.);
#162=VECTOR('',#448,1.);
#163=VECTOR('',#451,1.);
#164=VECTOR('',#455,1.);
#165=VECTOR('',#456,1.);
#166=VECTOR('',#459,1.);
#167=VECTOR('',#463,1.);
#168=VECTOR('',#464,1.);
#169=VECTOR('',#466,1.);
#170=VECTOR('',#476,1.);
#171=VECTOR('',#477,1.);
#172=VECTOR('',#480,1.);
#173=VECTOR('',#481,1.);
#174=LINE('',#487,#150);
#175=LINE('',#490,#151);
#176=LINE('',#492,#152);
#177=LINE('',#494,#153);
#178=LINE('',#496,#154);
#179=LINE('',#502,#155);
#180=LINE('',#505,#156);
#181=LINE('',#506,#157);
#182=LINE('',#511,#158);
#183=LINE('',#515,#159);
#184=LINE('',#517,#160);
#185=LINE('',#519,#161);
#186=LINE('',#528,#162);
#187=LINE('',#532,#163);
#188=LINE('',#536,#164);
#189=LINE('',#538,#165);
#190=LINE('',#540,#166);
#191=LINE('',#544,#167);
#192=LINE('',#545,#168);
#193=LINE('',#547,#169);
#194=LINE('',#557,#170);
#195=LINE('',#558,#171);
#196=LINE('',#560,#172);
#197=LINE('',#561,#173);
#198=EDGE_CURVE('',#126,#127,#174,.T.);
#199=EDGE_CURVE('',#127,#128,#175,.T.);
#200=EDGE_CURVE('',#128,#129,#176,.T.);
#201=EDGE_CURVE('',#129,#126,#177,.T.);
#202=EDGE_CURVE('',#130,#131,#178,.T.);
#203=EDGE_CURVE('',#131,#127,#110,.T.);
#204=EDGE_CURVE('',#126,#130,#111,.T.);
#205=EDGE_CURVE('',#132,#133,#179,.T.);
#206=EDGE_CURVE('',#133,#131,#180,.T.);
#207=EDGE_CURVE('',#130,#132,#181,.T.);
#208=EDGE_CURVE('',#128,#133,#112,.T.);
#209=EDGE_CURVE('',#132,#129,#113,.T.);
#210=EDGE_CURVE('',#126,#134,#182,.T.);
#211=EDGE_CURVE('',#135,#134,#114,.T.);
#212=EDGE_CURVE('',#130,#135,#183,.T.);
#213=EDGE_CURVE('',#129,#136,#184,.T.);
#214=EDGE_CURVE('',#134,#136,#185,.T.);
#215=EDGE_CURVE('',#137,#138,#115,.T.);
#216=EDGE_CURVE('',#138,#137,#115,.T.);
#217=EDGE_CURVE('',#139,#140,#116,.T.);
#218=EDGE_CURVE('',#140,#139,#116,.T.);
#219=EDGE_CURVE('',#141,#136,#186,.T.);
#220=EDGE_CURVE('',#136,#142,#117,.T.);
#221=EDGE_CURVE('',#142,#143,#187,.T.);
#222=EDGE_CURVE('',#143,#141,#118,.T.);
#223=EDGE_CURVE('',#144,#134,#188,.T.);
#224=EDGE_CURVE('',#141,#144,#189,.T.);
#225=EDGE_CURVE('',#145,#135,#190,.T.);
#226=EDGE_CURVE('',#144,#145,#119,.T.);
#227=EDGE_CURVE('',#142,#135,#191,.T.);
#228=EDGE_CURVE('',#145,#143,#192,.T.);
#229=EDGE_CURVE('',#132,#142,#193,.T.);
#230=EDGE_CURVE('',#146,#147,#120,.T.);
#231=EDGE_CURVE('',#147,#146,#120,.T.);
#232=EDGE_CURVE('',#148,#149,#121,.T.);
#233=EDGE_CURVE('',#149,#148,#121,.T.);
#234=EDGE_CURVE('',#138,#146,#194,.T.);
#235=EDGE_CURVE('',#147,#137,#195,.T.);
#236=EDGE_CURVE('',#140,#148,#196,.T.);
#237=EDGE_CURVE('',#149,#139,#197,.T.);
#238=ORIENTED_EDGE('',*,*,#198,.T.);
#239=ORIENTED_EDGE('',*,*,#199,.T.);
#240=ORIENTED_EDGE('',*,*,#200,.T.);
#241=ORIENTED_EDGE('',*,*,#201,.T.);
#242=ORIENTED_EDGE('',*,*,#202,.T.);
#243=ORIENTED_EDGE('',*,*,#203,.T.);
#244=ORIENTED_EDGE('',*,*,#198,.F.);
#245=ORIENTED_EDGE('',*,*,#204,.T.);
#246=ORIENTED_EDGE('',*,*,#205,.T.);
#247=ORIENTED_EDGE('',*,*,#206,.T.);
#248=ORIENTED_EDGE('',*,*,#202,.F.);
#249=ORIENTED_EDGE('',*,*,#207,.T.);
#250=ORIENTED_EDGE('',*,*,#200,.F.);
#251=ORIENTED_EDGE('',*,*,#208,.T.);
#252=ORIENTED_EDGE('',*,*,#205,.F.);
#253=ORIENTED_EDGE('',*,*,#209,.T.);
#254=ORIENTED_EDGE('',*,*,#204,.F.);
#255=ORIENTED_EDGE('',*,*,#210,.T.);
#256=ORIENTED_EDGE('',*,*,#211,.F.);
#257=ORIENTED_EDGE('',*,*,#212,.F.);
#258=ORIENTED_EDGE('',*,*,#201,.F.);
#259=ORIENTED_EDGE('',*,*,#213,.T.);
#260=ORIENTED_EDGE('',*,*,#214,.F.);
#261=ORIENTED_EDGE('',*,*,#210,.F.);
#262=ORIENTED_EDGE('',*,*,#199,.F.);
#263=ORIENTED_EDGE('',*,*,#203,.F.);
#264=ORIENTED_EDGE('',*,*,#206,.F.);
#265=ORIENTED_EDGE('',*,*,#208,.F.);
#266=ORIENTED_EDGE('',*,*,#215,.T.);
#267=ORIENTED_EDGE('',*,*,#216,.T.);
#268=ORIENTED_EDGE('',*,*,#217,.T.);
#269=ORIENTED_EDGE('',*,*,#218,.T.);
#270=ORIENTED_EDGE('',*,*,#219,.T.);
#271=ORIENTED_EDGE('',*,*,#220,.T.);
#272=ORIENTED_EDGE('',*,*,#221,.T.);
#273=ORIENTED_EDGE('',*,*,#222,.T.);
#274=ORIENTED_EDGE('',*,*,#223,.T.);
#275=ORIENTED_EDGE('',*,*,#214,.T.);
#276=ORIENTED_EDGE('',*,*,#219,.F.);
#277=ORIENTED_EDGE('',*,*,#224,.T.);
#278=ORIENTED_EDGE('',*,*,#225,.T.);
#279=ORIENTED_EDGE('',*,*,#211,.T.);
#280=ORIENTED_EDGE('',*,*,#223,.F.);
#281=ORIENTED_EDGE('',*,*,#226,.T.);
#282=ORIENTED_EDGE('',*,*,#221,.F.);
#283=ORIENTED_EDGE('',*,*,#227,.T.);
#284=ORIENTED_EDGE('',*,*,#225,.F.);
#285=ORIENTED_EDGE('',*,*,#228,.T.);
#286=ORIENTED_EDGE('',*,*,#207,.F.);
#287=ORIENTED_EDGE('',*,*,#212,.T.);
#288=ORIENTED_EDGE('',*,*,#227,.F.);
#289=ORIENTED_EDGE('',*,*,#229,.F.);
#290=ORIENTED_EDGE('',*,*,#209,.F.);
#291=ORIENTED_EDGE('',*,*,#229,.T.);
#292=ORIENTED_EDGE('',*,*,#220,.F.);
#293=ORIENTED_EDGE('',*,*,#213,.F.);
#294=ORIENTED_EDGE('',*,*,#222,.F.);
#295=ORIENTED_EDGE('',*,*,#228,.F.);
#296=ORIENTED_EDGE('',*,*,#226,.F.);
#297=ORIENTED_EDGE('',*,*,#224,.F.);
#298=ORIENTED_EDGE('',*,*,#230,.F.);
#299=ORIENTED_EDGE('',*,*,#231,.F.);
#300=ORIENTED_EDGE('',*,*,#232,.F.);
#301=ORIENTED_EDGE('',*,*,#233,.F.);
#302=ORIENTED_EDGE('',*,*,#234,.F.);
#303=ORIENTED_EDGE('',*,*,#215,.F.);
#304=ORIENTED_EDGE('',*,*,#235,.F.);
#305=ORIENTED_EDGE('',*,*,#231,.T.);
#306=ORIENTED_EDGE('',*,*,#236,.F.);
#307=ORIENTED_EDGE('',*,*,#217,.F.);
#308=ORIENTED_EDGE('',*,*,#237,.F.);
#309=ORIENTED_EDGE('',*,*,#233,.T.);
#310=ORIENTED_EDGE('',*,*,#234,.T.);
#311=ORIENTED_EDGE('',*,*,#230,.T.);
#312=ORIENTED_EDGE('',*,*,#235,.T.);
#313=ORIENTED_EDGE('',*,*,#216,.F.);
#314=ORIENTED_EDGE('',*,*,#236,.T.);
#315=ORIENTED_EDGE('',*,*,#232,.T.);
#316=ORIENTED_EDGE('',*,*,#237,.T.);
#317=ORIENTED_EDGE('',*,*,#218,.F.);
#318=EDGE_LOOP('',(#238,#239,#240,#241));
#319=EDGE_LOOP('',(#242,#243,#244,#245));
#320=EDGE_LOOP('',(#246,#247,#248,#249));
#321=EDGE_LOOP('',(#250,#251,#252,#253));
#322=EDGE_LOOP('',(#254,#255,#256,#257));
#323=EDGE_LOOP('',(#258,#259,#260,#261));
#324=EDGE_LOOP('',(#262,#263,#264,#265));
#325=EDGE_LOOP('',(#266,#267));
#326=EDGE_LOOP('',(#268,#269));
#327=EDGE_LOOP('',(#270,#271,#272,#273));
#328=EDGE_LOOP('',(#274,#275,#276,#277));
#329=EDGE_LOOP('',(#278,#279,#280,#281));
#330=EDGE_LOOP('',(#282,#283,#284,#285));
#331=EDGE_LOOP('',(#286,#287,#288,#289));
#332=EDGE_LOOP('',(#290,#291,#292,#293));
#333=EDGE_LOOP('',(#294,#295,#296,#297));
#334=EDGE_LOOP('',(#298,#299));
#335=EDGE_LOOP('',(#300,#301));
#336=EDGE_LOOP('',(#302,#303,#304,#305));
#337=EDGE_LOOP('',(#306,#307,#308,#309));
#338=EDGE_LOOP('',(#310,#311,#312,#313));
#339=EDGE_LOOP('',(#314,#315,#316,#317));
#340=FACE_BOUND('',#318,.T.);
#341=FACE_BOUND('',#319,.T.);
#342=FACE_BOUND('',#320,.T.);
#343=FACE_BOUND('',#321,.T.);
#344=FACE_BOUND('',#322,.T.);
#345=FACE_BOUND('',#323,.T.);
#346=FACE_BOUND('',#324,.T.);
#347=FACE_BOUND('',#325,.T.);
#348=FACE_BOUND('',#326,.T.);
#349=FACE_BOUND('',#327,.T.);
#350=FACE_BOUND('',#328,.T.);
#351=FACE_BOUND('',#329,.T.);
#352=FACE_BOUND('',#330,.T.);
#353=FACE_BOUND('',#331,.T.);
#354=FACE_BOUND('',#332,.T.);
#355=FACE_BOUND('',#333,.T.);
#356=FACE_BOUND('',#334,.T.);
#357=FACE_BOUND('',#335,.T.);
#358=FACE_BOUND('',#336,.T.);
#359=FACE_BOUND('',#337,.T.);
#360=FACE_BOUND('',#338,.T.);
#361=FACE_BOUND('',#339,.T.);
#362=ADVANCED_FACE('',(#340),#564,.T.);
#363=ADVANCED_FACE('',(#341),#122,.T.);
#364=ADVANCED_FACE('',(#342),#565,.T.);
#365=ADVANCED_FACE('',(#343),#123,.T.);
#366=ADVANCED_FACE('',(#344),#104,.T.);
#367=ADVANCED_FACE('',(#345),#566,.F.);
#368=ADVANCED_FACE('',(#346,#347,#348),#567,.T.);
#369=ADVANCED_FACE('',(#349),#124,.T.);
#370=ADVANCED_FACE('',(#350),#568,.T.);
#371=ADVANCED_FACE('',(#351),#125,.T.);
#372=ADVANCED_FACE('',(#352),#569,.T.);
#373=ADVANCED_FACE('',(#353),#570,.F.);
#374=ADVANCED_FACE('',(#354),#105,.T.);
#375=ADVANCED_FACE('',(#355,#356,#357),#571,.F.);
#376=ADVANCED_FACE('',(#358),#106,.F.);
#377=ADVANCED_FACE('',(#359),#107,.F.);
#378=ADVANCED_FACE('',(#360),#108,.F.);
#379=ADVANCED_FACE('',(#361),#109,.F.);
#380=AXIS2_PLACEMENT_3D('',#486,#410,$);
#381=AXIS2_PLACEMENT_3D('',#495,#415,#416);
#382=AXIS2_PLACEMENT_3D('',#499,#418,#419);
#383=AXIS2_PLACEMENT_3D('',#500,#420,#421);
#384=AXIS2_PLACEMENT_3D('',#501,#422,$);
#385=AXIS2_PLACEMENT_3D('',#507,#426,#427);
#386=AXIS2_PLACEMENT_3D('',#508,#428,#429);
#387=AXIS2_PLACEMENT_3D('',#509,#430,#431);
#388=AXIS2_PLACEMENT_3D('',#510,#432,#433);
#389=AXIS2_PLACEMENT_3D('',#513,#435,#436);
#390=AXIS2_PLACEMENT_3D('',#516,#438,$);
#391=AXIS2_PLACEMENT_3D('',#520,#441,$);
#392=AXIS2_PLACEMENT_3D('',#521,#442,#443);
#393=AXIS2_PLACEMENT_3D('',#524,#444,#445);
#394=AXIS2_PLACEMENT_3D('',#527,#446,#447);
#395=AXIS2_PLACEMENT_3D('',#530,#449,#450);
#396=AXIS2_PLACEMENT_3D('',#534,#452,#453);
#397=AXIS2_PLACEMENT_3D('',#535,#454,$);
#398=AXIS2_PLACEMENT_3D('',#539,#457,#458);
#399=AXIS2_PLACEMENT_3D('',#542,#460,#461);
#400=AXIS2_PLACEMENT_3D('',#543,#462,$);
#401=AXIS2_PLACEMENT_3D('',#546,#465,$);
#402=AXIS2_PLACEMENT_3D('',#548,#467,#468);
#403=AXIS2_PLACEMENT_3D('',#549,#469,$);
#404=AXIS2_PLACEMENT_3D('',#550,#470,#471);
#405=AXIS2_PLACEMENT_3D('',#553,#472,#473);
#406=AXIS2_PLACEMENT_3D('',#556,#474,#475);
#407=AXIS2_PLACEMENT_3D('',#559,#478,#479);
#408=AXIS2_PLACEMENT_3D('',#562,#482,#483);
#409=AXIS2_PLACEMENT_3D('',#563,#484,#485);
#410=DIRECTION('',(0.707106781186542,-0.701012724879335,0.0926345483999186));
#411=DIRECTION('',(0.707106781186545,0.701012724879329,-0.0926345483999366));
#412=DIRECTION('',(0.,0.13100503469147,0.991381702920468));
#413=DIRECTION('',(-0.707106781186573,-0.70101272487935,0.0926345483995785));
#414=DIRECTION('',(0.,-0.131005034691471,-0.991381702920468));
#415=DIRECTION('',(-1.,2.34347867994758E-16,0.));
#416=DIRECTION('',(-1.51013322491476E-15,-6.44398106898305,0.851532725494569));
#417=DIRECTION('',(0.707106781186545,-0.701012724879329,0.0926345483999367));
#418=DIRECTION('',(-1.,2.34347867994754E-16,0.));
#419=DIRECTION('',(-1.39396913069052E-15,-5.94829021752281,0.786030208148833));
#420=DIRECTION('',(1.,-2.34347867994754E-16,6.16297582203915E-33));
#421=DIRECTION('',(-1.62629731913895E-15,-6.93967192044329,0.9170352428403));
#422=DIRECTION('',(0.707106781186549,0.701012724879328,-0.0926345483999176));
#423=DIRECTION('',(0.707106781186592,-0.701012724879327,0.0926345483996012));
#424=DIRECTION('',(0.,-0.131005034691472,-0.991381702920468));
#425=DIRECTION('',(0.,0.13100503469147,0.991381702920468));
#426=DIRECTION('',(-1.,0.,0.));
#427=DIRECTION('',(0.,6.44398106898306,-0.851532725494551));
#428=DIRECTION('',(-1.,2.34347867994754E-16,6.16297582203915E-33));
#429=DIRECTION('',(1.39396913069053E-15,5.94829021752283,-0.786030208148817));
#430=DIRECTION('',(1.,-2.34347867994754E-16,-6.16297582203915E-33));
#431=DIRECTION('',(1.62629731913895E-15,6.9396719204433,-0.917035242840286));
#432=DIRECTION('',(1.,-2.42861286636753E-16,0.));
#433=DIRECTION('',(-1.6853776514358E-15,-6.93967192044329,0.9170352428403));
#434=DIRECTION('',(-1.,4.93038065763132E-32,0.));
#435=DIRECTION('',(-1.,2.34347867994754E-16,-1.23259516440783E-32));
#436=DIRECTION('',(-1.62629731913895E-15,-6.93967192044329,0.917035242840299));
#437=DIRECTION('',(-1.,4.93038065763132E-32,0.));
#438=DIRECTION('',(2.407682359194E-16,0.991381702920468,-0.131005034691471));
#439=DIRECTION('',(-1.,0.,0.));
#440=DIRECTION('',(0.,0.131005034691471,0.991381702920468));
#441=DIRECTION('',(1.,-2.34347867994754E-16,0.));
#442=DIRECTION('',(-1.,2.34347867994754E-16,0.));
#443=DIRECTION('',(4.92130522788983E-16,2.1,0.));
#444=DIRECTION('',(-1.,2.34347867994754E-16,0.));
#445=DIRECTION('',(4.92130522788983E-16,2.1,0.));
#446=DIRECTION('',(1.,0.,0.));
#447=DIRECTION('',(0.,6.44398106898306,-0.851532725494551));
#448=DIRECTION('',(0.707106781186569,-0.701012724879353,0.092634548399578));
#449=DIRECTION('',(-1.,2.34347867994754E-16,6.16297582203915E-33));
#450=DIRECTION('',(1.62629731913895E-15,6.9396719204433,-0.917035242840286));
#451=DIRECTION('',(-0.707106781186592,-0.701012724879327,0.0926345483996012));
#452=DIRECTION('',(1.,-2.34347867994754E-16,-6.16297582203915E-33));
#453=DIRECTION('',(1.39396913069053E-15,5.94829021752283,-0.786030208148817));
#454=DIRECTION('',(-0.707106781186549,-0.701012724879329,0.0926345483999177));
#455=DIRECTION('',(0.707106781186545,-0.701012724879329,0.0926345483999367));
#456=DIRECTION('',(0.,-0.13100503469147,-0.991381702920468));
#457=DIRECTION('',(1.,-2.34347867994758E-16,0.));
#458=DIRECTION('',(-1.51013322491476E-15,-6.44398106898305,0.851532725494569));
#459=DIRECTION('',(0.707106781186545,0.701012724879329,-0.0926345483999366));
#460=DIRECTION('',(1.,-2.34347867994754E-16,0.));
#461=DIRECTION('',(-1.39396913069052E-15,-5.94829021752281,0.786030208148833));
#462=DIRECTION('',(-0.707106781186549,0.701012724879329,-0.0926345483999176));
#463=DIRECTION('',(0.,-0.13100503469147,-0.991381702920468));
#464=DIRECTION('',(0.,0.131005034691472,0.991381702920468));
#465=DIRECTION('',(-2.407682359194E-16,-0.991381702920468,0.131005034691471));
#466=DIRECTION('',(-1.,0.,0.));
#467=DIRECTION('',(1.,-2.42861286636753E-16,0.));
#468=DIRECTION('',(1.68537765143581E-15,6.9396719204433,-0.917035242840286));
#469=DIRECTION('',(1.,-2.34347867994754E-16,0.));
#470=DIRECTION('',(-1.,2.34347867994754E-16,0.));
#471=DIRECTION('',(4.92130522788983E-16,2.1,0.));
#472=DIRECTION('',(-1.,2.34347867994754E-16,0.));
#473=DIRECTION('',(4.92130522788983E-16,2.1,0.));
#474=DIRECTION('',(1.,-2.42861286636753E-16,0.));
#475=DIRECTION('',(5.10008701937181E-16,2.1,0.));
#476=DIRECTION('',(-1.,2.42861286636753E-16,0.));
#477=DIRECTION('',(1.,0.,0.));
#478=DIRECTION('',(1.,-2.42861286636753E-16,0.));
#479=DIRECTION('',(5.10008701937181E-16,2.1,0.));
#480=DIRECTION('',(-1.,2.42861286636753E-16,0.));
#481=DIRECTION('',(1.,0.,0.));
#482=DIRECTION('',(1.,-2.42861286636753E-16,0.));
#483=DIRECTION('',(5.10008701937181E-16,2.1,0.));
#484=DIRECTION('',(1.,-2.42861286636753E-16,0.));
#485=DIRECTION('',(5.10008701937181E-16,2.1,0.));
#486=CARTESIAN_POINT('',(103.5,0.894123688903894,118.982702258143));
#487=CARTESIAN_POINT('',(103.,-6.93967192044313,63.5170352428403));
#488=CARTESIAN_POINT('',(103.,-6.93967192044312,63.5170352428403));
#489=CARTESIAN_POINT('',(104.,-5.94829021752265,63.3860302081488));
#490=CARTESIAN_POINT('',(104.,-5.94829021752266,63.3860302081488));
#491=CARTESIAN_POINT('',(104.,3.83584945965974,137.427589585014));
#492=CARTESIAN_POINT('',(104.,3.83584945965972,137.427589585014));
#493=CARTESIAN_POINT('',(103.,2.84446775673924,137.558594619705));
#494=CARTESIAN_POINT('',(103.,2.84446775673926,137.558594619705));
#495=CARTESIAN_POINT('',(103.5,1.60661121937763E-13,62.6));
#496=CARTESIAN_POINT('',(103.,6.93967192044345,61.6829647571597));
#497=CARTESIAN_POINT('',(103.,6.93967192044345,61.6829647571597));
#498=CARTESIAN_POINT('',(104.,5.94829021752298,61.8139697918512));
#499=CARTESIAN_POINT('',(104.,1.60543948003766E-13,62.6));
#500=CARTESIAN_POINT('',(103.,1.60778295871761E-13,62.6));
#501=CARTESIAN_POINT('',(103.5,8.89001598827881,80.2588571187217));
#502=CARTESIAN_POINT('',(103.,16.7238115976258,135.724524134025));
#503=CARTESIAN_POINT('',(103.,16.7238115976258,135.724524134025));
#504=CARTESIAN_POINT('',(104.,15.7324298947054,135.855529168716));
#505=CARTESIAN_POINT('',(104.,15.7324298947054,135.855529168716));
#506=CARTESIAN_POINT('',(103.,6.93967192044345,61.6829647571597));
#507=CARTESIAN_POINT('',(103.5,9.78413967718255,136.641559376865));
#508=CARTESIAN_POINT('',(104.,9.78413967718255,136.641559376865));
#509=CARTESIAN_POINT('',(103.,9.78413967718255,136.641559376865));
#510=CARTESIAN_POINT('',(104.,1.60535434585124E-13,62.6));
#511=CARTESIAN_POINT('',(103.,-6.93967192044313,63.5170352428403));
#512=CARTESIAN_POINT('',(97.,-6.93967192044312,63.5170352428403));
#513=CARTESIAN_POINT('',(97.,1.62235463591582E-13,62.6));
#514=CARTESIAN_POINT('',(97.,6.93967192044345,61.6829647571597));
#515=CARTESIAN_POINT('',(103.,6.93967192044345,61.6829647571597));
#516=CARTESIAN_POINT('',(104.,2.84446775673926,137.558594619705));
#517=CARTESIAN_POINT('',(103.,2.84446775673926,137.558594619705));
#518=CARTESIAN_POINT('',(97.,2.84446775673924,137.558594619705));
#519=CARTESIAN_POINT('',(97.,-6.93967192044313,63.5170352428403));
#520=CARTESIAN_POINT('',(104.,4.89206983859136,99.6207796884325));
#521=CARTESIAN_POINT('',(104.,9.78413967718255,136.641559376865));
#522=CARTESIAN_POINT('',(104.,7.68413967718255,136.641559376865));
#523=CARTESIAN_POINT('',(104.,11.8841396771825,136.641559376865));
#524=CARTESIAN_POINT('',(104.,1.60535434585124E-13,62.6));
#525=CARTESIAN_POINT('',(104.,-2.09999999999984,62.6));
#526=CARTESIAN_POINT('',(104.,2.10000000000016,62.6));
#527=CARTESIAN_POINT('',(96.5,9.78413967718255,136.641559376865));
#528=CARTESIAN_POINT('',(96.,3.83584945965973,137.427589585014));
#529=CARTESIAN_POINT('',(96.,3.83584945965975,137.427589585014));
#530=CARTESIAN_POINT('',(97.,9.78413967718255,136.641559376865));
#531=CARTESIAN_POINT('',(97.,16.7238115976258,135.724524134025));
#532=CARTESIAN_POINT('',(97.,16.7238115976258,135.724524134025));
#533=CARTESIAN_POINT('',(96.,15.7324298947054,135.855529168716));
#534=CARTESIAN_POINT('',(96.,9.78413967718255,136.641559376865));
#535=CARTESIAN_POINT('',(96.5,0.894123688903895,118.982702258143));
#536=CARTESIAN_POINT('',(96.,-5.94829021752266,63.3860302081488));
#537=CARTESIAN_POINT('',(96.,-5.94829021752265,63.3860302081488));
#538=CARTESIAN_POINT('',(96.,3.83584945965973,137.427589585014));
#539=CARTESIAN_POINT('',(96.5,1.62352637525579E-13,62.6));
#540=CARTESIAN_POINT('',(96.,5.94829021752298,61.8139697918512));
#541=CARTESIAN_POINT('',(96.,5.94829021752298,61.8139697918512));
#542=CARTESIAN_POINT('',(96.,1.62469811459576E-13,62.6));
#543=CARTESIAN_POINT('',(96.5,8.89001598827882,80.2588571187217));
#544=CARTESIAN_POINT('',(97.,16.7238115976258,135.724524134025));
#545=CARTESIAN_POINT('',(96.,5.94829021752298,61.8139697918512));
#546=CARTESIAN_POINT('',(104.,6.93967192044345,61.6829647571597));
#547=CARTESIAN_POINT('',(103.,16.7238115976258,135.724524134025));
#548=CARTESIAN_POINT('',(104.,9.78413967718255,136.641559376865));
#549=CARTESIAN_POINT('',(96.,4.89206983859136,99.6207796884325));
#550=CARTESIAN_POINT('',(96.,9.78413967718255,136.641559376865));
#551=CARTESIAN_POINT('',(96.,11.8841396771825,136.641559376865));
#552=CARTESIAN_POINT('',(96.,7.68413967718255,136.641559376865));
#553=CARTESIAN_POINT('',(96.,1.62478324878218E-13,62.6));
#554=CARTESIAN_POINT('',(96.,2.10000000000016,62.6));
#555=CARTESIAN_POINT('',(96.,-2.09999999999984,62.6));
#556=CARTESIAN_POINT('',(104.,9.78413967718255,136.641559376865));
#557=CARTESIAN_POINT('',(96.,11.8841396771826,136.641559376865));
#558=CARTESIAN_POINT('',(96.,7.68413967718255,136.641559376865));
#559=CARTESIAN_POINT('',(104.,1.60535434585124E-13,62.6));
#560=CARTESIAN_POINT('',(96.,2.10000000000016,62.6));
#561=CARTESIAN_POINT('',(96.,-2.09999999999984,62.6));
#562=CARTESIAN_POINT('',(104.,9.78413967718255,136.641559376865));
#563=CARTESIAN_POINT('',(104.,1.60535434585124E-13,62.6));
#564=PLANE('',#380);
#565=PLANE('',#384);
#566=PLANE('',#390);
#567=PLANE('',#391);
#568=PLANE('',#397);
#569=PLANE('',#400);
#570=PLANE('',#401);
#571=PLANE('',#403);
#572=CLOSED_SHELL('',(#362,#363,#364,#365,#366,#367,#368,#369,#370,#371,
#372,#373,#374,#375,#376,#377,#378,#379));
#573=MANIFOLD_SOLID_BREP('',#572);
#574=ADVANCED_BREP_SHAPE_REPRESENTATION('',(#573),#103);
ENDSEC;
END-ISO-10303-21;
