ISO-10303-21;
HEADER;
/* Generated by software containing ST-Developer
 * from STEP Tools, Inc. (www.steptools.com) 
 */

FILE_DESCRIPTION(
/* description */ ('Alibre Inc.'),
/* implementation_level */ '2;1');

FILE_NAME(
/* name */ 'export-E91D9232-AF7C-4F67-83E6-EE73CDA63EEA',
/* time_stamp */ '2026-10-02T12:35:02+02:00',
/* author */ (''),
/* organization */ (''),
/* preprocessor_version */ 'ST-DEVELOPER v17',
/* originating_system */ 'Alibre',
/* authorisation */ '');

FILE_SCHEMA (('CONFIG_CONTROL_DESIGN'));
ENDSEC;

DATA;
#10=MECHANICAL_CONTEXT('detailed design',#18,'mechanical');
#11=PRODUCT_RELATED_PRODUCT_CATEGORY('detail','',(#98));
#12=CC_DESIGN_SECURITY_CLASSIFICATION(#14,(#97));
#13=SECURITY_CLASSIFICATION_LEVEL('unclassified');
#14=SECURITY_CLASSIFICATION('name','Security for version',#13);
#15=SHAPE_DEFINITION_REPRESENTATION(#16,#574);
#16=PRODUCT_DEFINITION_SHAPE('','DefinitionDesc',#96);
#17=APPLICATION_PROTOCOL_DEFINITION('AP definition status',
'config_control_design',1994,#18);
#18=APPLICATION_CONTEXT(
'control the configuration of three dimensional design');
#19=DESIGN_CONTEXT('detailed design',#18,'design');
#20=PERSON_AND_ORGANIZATION_ROLE('creator');
#21=PERSON_AND_ORGANIZATION_ROLE('classification_officer');
#22=PERSON_AND_ORGANIZATION_ROLE('creator');
#23=PERSON_AND_ORGANIZATION_ROLE('design_supplier');
#24=PERSON_AND_ORGANIZATION_ROLE('design_owner');
#25=CC_DESIGN_PERSON_AND_ORGANIZATION_ASSIGNMENT(#57,#20,(#96));
#26=CC_DESIGN_PERSON_AND_ORGANIZATION_ASSIGNMENT(#60,#21,(#14));
#27=CC_DESIGN_PERSON_AND_ORGANIZATION_ASSIGNMENT(#61,#22,(#97));
#28=CC_DESIGN_PERSON_AND_ORGANIZATION_ASSIGNMENT(#62,#23,(#97));
#29=CC_DESIGN_PERSON_AND_ORGANIZATION_ASSIGNMENT(#63,#24,(#98));
#30=DATE_TIME_ROLE('creation_date');
#31=DATE_TIME_ROLE('classification_date');
#32=CC_DESIGN_DATE_AND_TIME_ASSIGNMENT(#86,#30,(#96));
#33=CC_DESIGN_DATE_AND_TIME_ASSIGNMENT(#89,#31,(#14));
#34=CC_DESIGN_APPROVAL(#93,(#96));
#35=CC_DESIGN_APPROVAL(#94,(#97));
#36=CC_DESIGN_APPROVAL(#95,(#14));
#37=APPROVAL_PERSON_ORGANIZATION(#56,#93,#64);
#38=APPROVAL_PERSON_ORGANIZATION(#58,#94,#65);
#39=APPROVAL_PERSON_ORGANIZATION(#59,#95,#66);
#40=ORGANIZATION('DEFINITION_APPROVEDBY_ORG_ID',
'DEFINITION_APPROVEDBY_ORG_NAME','DEFINITION_APPROVEDBY_ORG_DESCR');
#41=ORGANIZATION('DEF_CREATOR_ORG_ID','DEF_CREATOR_ORG_NAME',
'DEF_CREATOR_ORG_DESCR');
#42=ORGANIZATION('APPROVEDBY_ORG_ID','APPROVEDBY_ORG_NAME',
'APPROVEDBY_ORG_DESCR');
#43=ORGANIZATION('SECURITY_APPROVEDBY_ORG_ID',
'SECURITY_APPROVEDBY_ORG_NAME','SECURITY_APPROVEDBY_ORG_DESCR');
#44=ORGANIZATION('CLASSOFFICER_ORG_ID','CLASSOFFICER_ORG_NAME',
'CLASSOFFICER_ORG_DESCR');
#45=ORGANIZATION('CREATOR_ORG_ID','CREATOR_ORG_NAME',
'CREATOR_ORG_DESCR');
#46=ORGANIZATION('SUPPLIER_ORG_ID','SUPPLIER_ORG_NAME',
'SUPPLIER_ORG_DESCR');
#47=ORGANIZATION('OWNER_ORG_ID','OWNER_ORG_NAME','OWNER_ORG_DESCR');
#48=PERSON('DEFINITION_approverID','DEFINITION_APPROVEDBY_LASTNAME',
'DEFINITION_APPROVEDBY_FIRSTNAME',$,$,$);
#49=PERSON('DEF_createrID','DEF_CREATOR_LASTNAME',
'DEF_CREATOR_FIRSTNAME',$,$,$);
#50=PERSON('approverID','APPROVEDBY_LASTNAME','APPROVEDBY_FIRSTNAME',$,
$,$);
#51=PERSON('SECURITY_approverID','SECURITY_LASTNAME',
'SECURITY_APPROVEDBY_FIRSTNAME',$,$,$);
#52=PERSON('classifierID','CLASSOFFICER_LASTNAME',
'CLASSOFFICER_FIRSTNAME',$,$,$);
#53=PERSON('createrID','CREATOR_LASTNAME','CREATOR_FIRSTNAME',$,$,$);
#54=PERSON('supplierID','SUPPLIER_LASTNAME','SUPPLIER_FIRSTNAME',$,$,$);
#55=PERSON('ownerID','OWNER_LASTNAME','OWNER_FIRSTNAME',$,$,$);
#56=PERSON_AND_ORGANIZATION(#48,#40);
#57=PERSON_AND_ORGANIZATION(#49,#41);
#58=PERSON_AND_ORGANIZATION(#50,#42);
#59=PERSON_AND_ORGANIZATION(#51,#43);
#60=PERSON_AND_ORGANIZATION(#52,#44);
#61=PERSON_AND_ORGANIZATION(#53,#45);
#62=PERSON_AND_ORGANIZATION(#54,#46);
#63=PERSON_AND_ORGANIZATION(#55,#47);
#64=APPROVAL_ROLE('definition_approval');
#65=APPROVAL_ROLE('version_approval');
#66=APPROVAL_ROLE('security_approval');
#67=APPROVAL_DATE_TIME(#85,#93);
#68=APPROVAL_DATE_TIME(#87,#94);
#69=APPROVAL_DATE_TIME(#88,#95);
#70=COORDINATED_UNIVERSAL_TIME_OFFSET(1,0,.AHEAD.);
#71=COORDINATED_UNIVERSAL_TIME_OFFSET(1,0,.AHEAD.);
#72=COORDINATED_UNIVERSAL_TIME_OFFSET(1,0,.AHEAD.);
#73=COORDINATED_UNIVERSAL_TIME_OFFSET(1,0,.AHEAD.);
#74=COORDINATED_UNIVERSAL_TIME_OFFSET(1,0,.AHEAD.);
#75=LOCAL_TIME(14,22,14.,#70);
#76=LOCAL_TIME(14,22,14.,#71);
#77=LOCAL_TIME(14,22,14.,#72);
#78=LOCAL_TIME(14,22,14.,#73);
#79=LOCAL_TIME(14,22,14.,#74);
#80=CALENDAR_DATE(2026,20,3);
#81=CALENDAR_DATE(2026,20,3);
#82=CALENDAR_DATE(2026,20,3);
#83=CALENDAR_DATE(2026,20,3);
#84=CALENDAR_DATE(2026,20,3);
#85=DATE_AND_TIME(#80,#75);
#86=DATE_AND_TIME(#81,#76);
#87=DATE_AND_TIME(#82,#77);
#88=DATE_AND_TIME(#83,#78);
#89=DATE_AND_TIME(#84,#79);
#90=APPROVAL_STATUS('not_yet_approved');
#91=APPROVAL_STATUS('not_yet_approved');
#92=APPROVAL_STATUS('not_yet_approved');
#93=APPROVAL(#90,'defintion approval');
#94=APPROVAL(#91,'version approval');
#95=APPROVAL(#92,'security approval');
#96=PRODUCT_DEFINITION('DefinitionID','DefinitionDesc',#97,#19);
#97=PRODUCT_DEFINITION_FORMATION_WITH_SPECIFIED_SOURCE(
'PRODUCT_VERSION_ID','PRODUCT_VERSION_DESCR',#98,.NOT_KNOWN.);
#98=PRODUCT('lower arm left','lower arm left','',(#10));
#99=(
LENGTH_UNIT()
NAMED_UNIT(*)
SI_UNIT(.MILLI.,.METRE.)
);
#100=(
NAMED_UNIT(*)
PLANE_ANGLE_UNIT()
SI_UNIT($,.RADIAN.)
);
#101=(
NAMED_UNIT(*)
SI_UNIT($,.STERADIAN.)
SOLID_ANGLE_UNIT()
);
#102=UNCERTAINTY_MEASURE_WITH_UNIT(LENGTH_MEASURE(1.E-6),#99,
'DISTANCE_ACCURACY_VALUE',
'Maximum model space distance between geometric entities at asserted c
onnectivities');
#103=(
GEOMETRIC_REPRESENTATION_CONTEXT(3)
GLOBAL_UNCERTAINTY_ASSIGNED_CONTEXT((#102))
GLOBAL_UNIT_ASSIGNED_CONTEXT((#101,#100,#99))
REPRESENTATION_CONTEXT('ID1','3D')
);
#104=CYLINDRICAL_SURFACE('',#393,7.00000000000002);
#105=CYLINDRICAL_SURFACE('',#409,2.1);
#106=CYLINDRICAL_SURFACE('',#410,2.1);
#107=CYLINDRICAL_SURFACE('',#411,7.00000000000002);
#108=CYLINDRICAL_SURFACE('',#412,2.1);
#109=CYLINDRICAL_SURFACE('',#413,2.1);
#110=PLANE('',#387);
#111=PLANE('',#391);
#112=PLANE('',#392);
#113=PLANE('',#395);
#114=PLANE('',#400);
#115=PLANE('',#404);
#116=PLANE('',#405);
#117=PLANE('',#406);
#118=CIRCLE('',#385,7.00000000000002);
#119=CIRCLE('',#386,6.00000000000002);
#120=CIRCLE('',#389,7.00000000000002);
#121=CIRCLE('',#390,6.00000000000001);
#122=CIRCLE('',#394,7.00000000000002);
#123=CIRCLE('',#396,2.1);
#124=CIRCLE('',#397,2.1);
#125=CIRCLE('',#399,6.00000000000002);
#126=CIRCLE('',#402,6.00000000000001);
#127=CIRCLE('',#403,7.00000000000002);
#128=CIRCLE('',#407,2.1);
#129=CIRCLE('',#408,2.1);
#130=VERTEX_POINT('',#416);
#131=VERTEX_POINT('',#417);
#132=VERTEX_POINT('',#419);
#133=VERTEX_POINT('',#421);
#134=VERTEX_POINT('',#425);
#135=VERTEX_POINT('',#426);
#136=VERTEX_POINT('',#431);
#137=VERTEX_POINT('',#432);
#138=VERTEX_POINT('',#440);
#139=VERTEX_POINT('',#442);
#140=VERTEX_POINT('',#446);
#141=VERTEX_POINT('',#450);
#142=VERTEX_POINT('',#451);
#143=VERTEX_POINT('',#453);
#144=VERTEX_POINT('',#454);
#145=VERTEX_POINT('',#457);
#146=VERTEX_POINT('',#459);
#147=VERTEX_POINT('',#463);
#148=VERTEX_POINT('',#464);
#149=VERTEX_POINT('',#469);
#150=VERTEX_POINT('',#478);
#151=VERTEX_POINT('',#479);
#152=VERTEX_POINT('',#481);
#153=VERTEX_POINT('',#482);
#154=VECTOR('',#494,1.);
#155=VECTOR('',#497,1.);
#156=VECTOR('',#501,1.);
#157=VECTOR('',#502,1.);
#158=VECTOR('',#503,1.);
#159=VECTOR('',#506,1.);
#160=VECTOR('',#512,1.);
#161=VECTOR('',#513,1.);
#162=VECTOR('',#515,1.);
#163=VECTOR('',#516,1.);
#164=VECTOR('',#517,1.);
#165=VECTOR('',#520,1.);
#166=VECTOR('',#530,1.);
#167=VECTOR('',#533,1.);
#168=VECTOR('',#535,1.);
#169=VECTOR('',#536,1.);
#170=VECTOR('',#537,1.);
#171=VECTOR('',#540,1.);
#172=VECTOR('',#546,1.);
#173=VECTOR('',#548,1.);
#174=VECTOR('',#556,1.);
#175=VECTOR('',#557,1.);
#176=VECTOR('',#560,1.);
#177=VECTOR('',#561,1.);
#178=LINE('',#415,#154);
#179=LINE('',#420,#155);
#180=LINE('',#424,#156);
#181=LINE('',#427,#157);
#182=LINE('',#428,#158);
#183=LINE('',#430,#159);
#184=LINE('',#436,#160);
#185=LINE('',#437,#161);
#186=LINE('',#439,#162);
#187=LINE('',#441,#163);
#188=LINE('',#443,#164);
#189=LINE('',#445,#165);
#190=LINE('',#456,#166);
#191=LINE('',#460,#167);
#192=LINE('',#462,#168);
#193=LINE('',#465,#169);
#194=LINE('',#466,#170);
#195=LINE('',#468,#171);
#196=LINE('',#473,#172);
#197=LINE('',#475,#173);
#198=LINE('',#484,#174);
#199=LINE('',#485,#175);
#200=LINE('',#487,#176);
#201=LINE('',#488,#177);
#202=EDGE_CURVE('',#130,#131,#178,.T.);
#203=EDGE_CURVE('',#131,#132,#118,.T.);
#204=EDGE_CURVE('',#132,#133,#179,.T.);
#205=EDGE_CURVE('',#133,#130,#119,.T.);
#206=EDGE_CURVE('',#134,#135,#180,.T.);
#207=EDGE_CURVE('',#135,#131,#181,.T.);
#208=EDGE_CURVE('',#130,#134,#182,.T.);
#209=EDGE_CURVE('',#136,#137,#183,.T.);
#210=EDGE_CURVE('',#137,#135,#120,.T.);
#211=EDGE_CURVE('',#134,#136,#121,.T.);
#212=EDGE_CURVE('',#132,#137,#184,.T.);
#213=EDGE_CURVE('',#136,#133,#185,.T.);
#214=EDGE_CURVE('',#132,#138,#186,.T.);
#215=EDGE_CURVE('',#139,#138,#187,.T.);
#216=EDGE_CURVE('',#137,#139,#188,.T.);
#217=EDGE_CURVE('',#131,#140,#189,.T.);
#218=EDGE_CURVE('',#138,#140,#122,.T.);
#219=EDGE_CURVE('',#141,#142,#123,.T.);
#220=EDGE_CURVE('',#142,#141,#123,.T.);
#221=EDGE_CURVE('',#143,#144,#124,.T.);
#222=EDGE_CURVE('',#144,#143,#124,.T.);
#223=EDGE_CURVE('',#140,#145,#190,.T.);
#224=EDGE_CURVE('',#145,#146,#125,.T.);
#225=EDGE_CURVE('',#146,#138,#191,.T.);
#226=EDGE_CURVE('',#147,#148,#192,.T.);
#227=EDGE_CURVE('',#148,#145,#193,.T.);
#228=EDGE_CURVE('',#140,#147,#194,.T.);
#229=EDGE_CURVE('',#139,#149,#195,.T.);
#230=EDGE_CURVE('',#149,#148,#126,.T.);
#231=EDGE_CURVE('',#147,#139,#127,.T.);
#232=EDGE_CURVE('',#146,#149,#196,.T.);
#233=EDGE_CURVE('',#135,#147,#197,.T.);
#234=EDGE_CURVE('',#150,#151,#128,.T.);
#235=EDGE_CURVE('',#151,#150,#128,.T.);
#236=EDGE_CURVE('',#152,#153,#129,.T.);
#237=EDGE_CURVE('',#153,#152,#129,.T.);
#238=EDGE_CURVE('',#151,#141,#198,.T.);
#239=EDGE_CURVE('',#150,#142,#199,.T.);
#240=EDGE_CURVE('',#153,#143,#200,.T.);
#241=EDGE_CURVE('',#152,#144,#201,.T.);
#242=ORIENTED_EDGE('',*,*,#202,.T.);
#243=ORIENTED_EDGE('',*,*,#203,.T.);
#244=ORIENTED_EDGE('',*,*,#204,.T.);
#245=ORIENTED_EDGE('',*,*,#205,.T.);
#246=ORIENTED_EDGE('',*,*,#206,.T.);
#247=ORIENTED_EDGE('',*,*,#207,.T.);
#248=ORIENTED_EDGE('',*,*,#202,.F.);
#249=ORIENTED_EDGE('',*,*,#208,.T.);
#250=ORIENTED_EDGE('',*,*,#209,.T.);
#251=ORIENTED_EDGE('',*,*,#210,.T.);
#252=ORIENTED_EDGE('',*,*,#206,.F.);
#253=ORIENTED_EDGE('',*,*,#211,.T.);
#254=ORIENTED_EDGE('',*,*,#204,.F.);
#255=ORIENTED_EDGE('',*,*,#212,.T.);
#256=ORIENTED_EDGE('',*,*,#209,.F.);
#257=ORIENTED_EDGE('',*,*,#213,.T.);
#258=ORIENTED_EDGE('',*,*,#212,.F.);
#259=ORIENTED_EDGE('',*,*,#214,.T.);
#260=ORIENTED_EDGE('',*,*,#215,.F.);
#261=ORIENTED_EDGE('',*,*,#216,.F.);
#262=ORIENTED_EDGE('',*,*,#203,.F.);
#263=ORIENTED_EDGE('',*,*,#217,.T.);
#264=ORIENTED_EDGE('',*,*,#218,.F.);
#265=ORIENTED_EDGE('',*,*,#214,.F.);
#266=ORIENTED_EDGE('',*,*,#205,.F.);
#267=ORIENTED_EDGE('',*,*,#213,.F.);
#268=ORIENTED_EDGE('',*,*,#211,.F.);
#269=ORIENTED_EDGE('',*,*,#208,.F.);
#270=ORIENTED_EDGE('',*,*,#219,.F.);
#271=ORIENTED_EDGE('',*,*,#220,.F.);
#272=ORIENTED_EDGE('',*,*,#221,.F.);
#273=ORIENTED_EDGE('',*,*,#222,.F.);
#274=ORIENTED_EDGE('',*,*,#223,.T.);
#275=ORIENTED_EDGE('',*,*,#224,.T.);
#276=ORIENTED_EDGE('',*,*,#225,.T.);
#277=ORIENTED_EDGE('',*,*,#218,.T.);
#278=ORIENTED_EDGE('',*,*,#226,.T.);
#279=ORIENTED_EDGE('',*,*,#227,.T.);
#280=ORIENTED_EDGE('',*,*,#223,.F.);
#281=ORIENTED_EDGE('',*,*,#228,.T.);
#282=ORIENTED_EDGE('',*,*,#229,.T.);
#283=ORIENTED_EDGE('',*,*,#230,.T.);
#284=ORIENTED_EDGE('',*,*,#226,.F.);
#285=ORIENTED_EDGE('',*,*,#231,.T.);
#286=ORIENTED_EDGE('',*,*,#225,.F.);
#287=ORIENTED_EDGE('',*,*,#232,.T.);
#288=ORIENTED_EDGE('',*,*,#229,.F.);
#289=ORIENTED_EDGE('',*,*,#215,.T.);
#290=ORIENTED_EDGE('',*,*,#207,.F.);
#291=ORIENTED_EDGE('',*,*,#233,.T.);
#292=ORIENTED_EDGE('',*,*,#228,.F.);
#293=ORIENTED_EDGE('',*,*,#217,.F.);
#294=ORIENTED_EDGE('',*,*,#224,.F.);
#295=ORIENTED_EDGE('',*,*,#227,.F.);
#296=ORIENTED_EDGE('',*,*,#230,.F.);
#297=ORIENTED_EDGE('',*,*,#232,.F.);
#298=ORIENTED_EDGE('',*,*,#234,.T.);
#299=ORIENTED_EDGE('',*,*,#235,.T.);
#300=ORIENTED_EDGE('',*,*,#236,.T.);
#301=ORIENTED_EDGE('',*,*,#237,.T.);
#302=ORIENTED_EDGE('',*,*,#238,.F.);
#303=ORIENTED_EDGE('',*,*,#234,.F.);
#304=ORIENTED_EDGE('',*,*,#239,.T.);
#305=ORIENTED_EDGE('',*,*,#220,.T.);
#306=ORIENTED_EDGE('',*,*,#240,.F.);
#307=ORIENTED_EDGE('',*,*,#236,.F.);
#308=ORIENTED_EDGE('',*,*,#241,.T.);
#309=ORIENTED_EDGE('',*,*,#222,.T.);
#310=ORIENTED_EDGE('',*,*,#210,.F.);
#311=ORIENTED_EDGE('',*,*,#216,.T.);
#312=ORIENTED_EDGE('',*,*,#231,.F.);
#313=ORIENTED_EDGE('',*,*,#233,.F.);
#314=ORIENTED_EDGE('',*,*,#238,.T.);
#315=ORIENTED_EDGE('',*,*,#219,.T.);
#316=ORIENTED_EDGE('',*,*,#239,.F.);
#317=ORIENTED_EDGE('',*,*,#235,.F.);
#318=ORIENTED_EDGE('',*,*,#240,.T.);
#319=ORIENTED_EDGE('',*,*,#221,.T.);
#320=ORIENTED_EDGE('',*,*,#241,.F.);
#321=ORIENTED_EDGE('',*,*,#237,.F.);
#322=EDGE_LOOP('',(#242,#243,#244,#245));
#323=EDGE_LOOP('',(#246,#247,#248,#249));
#324=EDGE_LOOP('',(#250,#251,#252,#253));
#325=EDGE_LOOP('',(#254,#255,#256,#257));
#326=EDGE_LOOP('',(#258,#259,#260,#261));
#327=EDGE_LOOP('',(#262,#263,#264,#265));
#328=EDGE_LOOP('',(#266,#267,#268,#269));
#329=EDGE_LOOP('',(#270,#271));
#330=EDGE_LOOP('',(#272,#273));
#331=EDGE_LOOP('',(#274,#275,#276,#277));
#332=EDGE_LOOP('',(#278,#279,#280,#281));
#333=EDGE_LOOP('',(#282,#283,#284,#285));
#334=EDGE_LOOP('',(#286,#287,#288,#289));
#335=EDGE_LOOP('',(#290,#291,#292,#293));
#336=EDGE_LOOP('',(#294,#295,#296,#297));
#337=EDGE_LOOP('',(#298,#299));
#338=EDGE_LOOP('',(#300,#301));
#339=EDGE_LOOP('',(#302,#303,#304,#305));
#340=EDGE_LOOP('',(#306,#307,#308,#309));
#341=EDGE_LOOP('',(#310,#311,#312,#313));
#342=EDGE_LOOP('',(#314,#315,#316,#317));
#343=EDGE_LOOP('',(#318,#319,#320,#321));
#344=FACE_BOUND('',#322,.T.);
#345=FACE_BOUND('',#323,.T.);
#346=FACE_BOUND('',#324,.T.);
#347=FACE_BOUND('',#325,.T.);
#348=FACE_BOUND('',#326,.T.);
#349=FACE_BOUND('',#327,.T.);
#350=FACE_BOUND('',#328,.T.);
#351=FACE_BOUND('',#329,.T.);
#352=FACE_BOUND('',#330,.T.);
#353=FACE_BOUND('',#331,.T.);
#354=FACE_BOUND('',#332,.T.);
#355=FACE_BOUND('',#333,.T.);
#356=FACE_BOUND('',#334,.T.);
#357=FACE_BOUND('',#335,.T.);
#358=FACE_BOUND('',#336,.T.);
#359=FACE_BOUND('',#337,.T.);
#360=FACE_BOUND('',#338,.T.);
#361=FACE_BOUND('',#339,.T.);
#362=FACE_BOUND('',#340,.T.);
#363=FACE_BOUND('',#341,.T.);
#364=FACE_BOUND('',#342,.T.);
#365=FACE_BOUND('',#343,.T.);
#366=ADVANCED_FACE('',(#344),#568,.T.);
#367=ADVANCED_FACE('',(#345),#110,.T.);
#368=ADVANCED_FACE('',(#346),#569,.T.);
#369=ADVANCED_FACE('',(#347),#111,.T.);
#370=ADVANCED_FACE('',(#348),#112,.T.);
#371=ADVANCED_FACE('',(#349),#104,.T.);
#372=ADVANCED_FACE('',(#350,#351,#352),#113,.F.);
#373=ADVANCED_FACE('',(#353),#570,.T.);
#374=ADVANCED_FACE('',(#354),#114,.T.);
#375=ADVANCED_FACE('',(#355),#571,.T.);
#376=ADVANCED_FACE('',(#356),#115,.T.);
#377=ADVANCED_FACE('',(#357),#116,.T.);
#378=ADVANCED_FACE('',(#358,#359,#360),#117,.T.);
#379=ADVANCED_FACE('',(#361),#105,.F.);
#380=ADVANCED_FACE('',(#362),#106,.F.);
#381=ADVANCED_FACE('',(#363),#107,.T.);
#382=ADVANCED_FACE('',(#364),#108,.F.);
#383=ADVANCED_FACE('',(#365),#109,.F.);
#384=AXIS2_PLACEMENT_3D('',#414,#492,#493);
#385=AXIS2_PLACEMENT_3D('',#418,#495,#496);
#386=AXIS2_PLACEMENT_3D('',#422,#498,#499);
#387=AXIS2_PLACEMENT_3D('',#423,#500,$);
#388=AXIS2_PLACEMENT_3D('',#429,#504,#505);
#389=AXIS2_PLACEMENT_3D('',#433,#507,#508);
#390=AXIS2_PLACEMENT_3D('',#434,#509,#510);
#391=AXIS2_PLACEMENT_3D('',#435,#511,$);
#392=AXIS2_PLACEMENT_3D('',#438,#514,$);
#393=AXIS2_PLACEMENT_3D('',#444,#518,#519);
#394=AXIS2_PLACEMENT_3D('',#447,#521,#522);
#395=AXIS2_PLACEMENT_3D('',#448,#523,$);
#396=AXIS2_PLACEMENT_3D('',#449,#524,#525);
#397=AXIS2_PLACEMENT_3D('',#452,#526,#527);
#398=AXIS2_PLACEMENT_3D('',#455,#528,#529);
#399=AXIS2_PLACEMENT_3D('',#458,#531,#532);
#400=AXIS2_PLACEMENT_3D('',#461,#534,$);
#401=AXIS2_PLACEMENT_3D('',#467,#538,#539);
#402=AXIS2_PLACEMENT_3D('',#470,#541,#542);
#403=AXIS2_PLACEMENT_3D('',#471,#543,#544);
#404=AXIS2_PLACEMENT_3D('',#472,#545,$);
#405=AXIS2_PLACEMENT_3D('',#474,#547,$);
#406=AXIS2_PLACEMENT_3D('',#476,#549,$);
#407=AXIS2_PLACEMENT_3D('',#477,#550,#551);
#408=AXIS2_PLACEMENT_3D('',#480,#552,#553);
#409=AXIS2_PLACEMENT_3D('',#483,#554,#555);
#410=AXIS2_PLACEMENT_3D('',#486,#558,#559);
#411=AXIS2_PLACEMENT_3D('',#489,#562,#563);
#412=AXIS2_PLACEMENT_3D('',#490,#564,#565);
#413=AXIS2_PLACEMENT_3D('',#491,#566,#567);
#414=CARTESIAN_POINT('',(-103.5,9.78413967718255,136.641559376865));
#415=CARTESIAN_POINT('',(-104.,3.83584945965973,137.427589585014));
#416=CARTESIAN_POINT('',(-104.,3.83584945965975,137.427589585014));
#417=CARTESIAN_POINT('',(-103.,2.84446775673924,137.558594619705));
#418=CARTESIAN_POINT('',(-103.,9.78413967718255,136.641559376865));
#419=CARTESIAN_POINT('',(-103.,16.7238115976258,135.724524134025));
#420=CARTESIAN_POINT('',(-103.,16.7238115976258,135.724524134025));
#421=CARTESIAN_POINT('',(-104.,15.7324298947054,135.855529168716));
#422=CARTESIAN_POINT('',(-104.,9.78413967718255,136.641559376865));
#423=CARTESIAN_POINT('',(-103.5,0.894123688903893,118.982702258143));
#424=CARTESIAN_POINT('',(-104.,-5.94829021752266,63.3860302081488));
#425=CARTESIAN_POINT('',(-104.,-5.94829021752265,63.3860302081488));
#426=CARTESIAN_POINT('',(-103.,-6.93967192044312,63.5170352428403));
#427=CARTESIAN_POINT('',(-103.,-6.93967192044313,63.5170352428403));
#428=CARTESIAN_POINT('',(-104.,3.83584945965973,137.427589585014));
#429=CARTESIAN_POINT('',(-103.5,1.60661121937763E-13,62.6));
#430=CARTESIAN_POINT('',(-104.,5.94829021752298,61.8139697918512));
#431=CARTESIAN_POINT('',(-104.,5.94829021752298,61.8139697918512));
#432=CARTESIAN_POINT('',(-103.,6.93967192044345,61.6829647571597));
#433=CARTESIAN_POINT('',(-103.,1.60778295871761E-13,62.6));
#434=CARTESIAN_POINT('',(-104.,1.60543948003766E-13,62.6));
#435=CARTESIAN_POINT('',(-103.5,8.89001598827881,80.2588571187217));
#436=CARTESIAN_POINT('',(-103.,16.7238115976258,135.724524134025));
#437=CARTESIAN_POINT('',(-104.,5.94829021752298,61.8139697918512));
#438=CARTESIAN_POINT('',(-104.,6.93967192044345,61.6829647571597));
#439=CARTESIAN_POINT('',(-103.,16.7238115976258,135.724524134025));
#440=CARTESIAN_POINT('',(-97.,16.7238115976258,135.724524134025));
#441=CARTESIAN_POINT('',(-97.,6.93967192044345,61.6829647571597));
#442=CARTESIAN_POINT('',(-97.,6.93967192044345,61.6829647571597));
#443=CARTESIAN_POINT('',(-103.,6.93967192044345,61.6829647571597));
#444=CARTESIAN_POINT('',(-104.,9.78413967718255,136.641559376865));
#445=CARTESIAN_POINT('',(-103.,2.84446775673926,137.558594619705));
#446=CARTESIAN_POINT('',(-97.,2.84446775673924,137.558594619705));
#447=CARTESIAN_POINT('',(-97.,9.78413967718255,136.641559376865));
#448=CARTESIAN_POINT('',(-104.,4.89206983859136,99.6207796884325));
#449=CARTESIAN_POINT('',(-104.,9.78413967718255,136.641559376865));
#450=CARTESIAN_POINT('',(-104.,11.8841396771825,136.641559376865));
#451=CARTESIAN_POINT('',(-104.,7.68413967718255,136.641559376865));
#452=CARTESIAN_POINT('',(-104.,1.60535434585124E-13,62.6));
#453=CARTESIAN_POINT('',(-104.,2.10000000000016,62.6));
#454=CARTESIAN_POINT('',(-104.,-2.09999999999984,62.6));
#455=CARTESIAN_POINT('',(-96.5,9.78413967718255,136.641559376865));
#456=CARTESIAN_POINT('',(-97.,2.84446775673926,137.558594619705));
#457=CARTESIAN_POINT('',(-96.,3.83584945965974,137.427589585014));
#458=CARTESIAN_POINT('',(-96.,9.78413967718255,136.641559376865));
#459=CARTESIAN_POINT('',(-96.,15.7324298947054,135.855529168716));
#460=CARTESIAN_POINT('',(-96.,15.7324298947054,135.855529168716));
#461=CARTESIAN_POINT('',(-96.5,0.894123688903895,118.982702258143));
#462=CARTESIAN_POINT('',(-97.,-6.93967192044313,63.5170352428403));
#463=CARTESIAN_POINT('',(-97.,-6.93967192044312,63.5170352428403));
#464=CARTESIAN_POINT('',(-96.,-5.94829021752265,63.3860302081488));
#465=CARTESIAN_POINT('',(-96.,-5.94829021752266,63.3860302081488));
#466=CARTESIAN_POINT('',(-97.,2.84446775673926,137.558594619705));
#467=CARTESIAN_POINT('',(-96.5,1.62352637525579E-13,62.6));
#468=CARTESIAN_POINT('',(-97.,6.93967192044345,61.6829647571597));
#469=CARTESIAN_POINT('',(-96.,5.94829021752298,61.8139697918512));
#470=CARTESIAN_POINT('',(-96.,1.62469811459576E-13,62.6));
#471=CARTESIAN_POINT('',(-97.,1.62235463591581E-13,62.6));
#472=CARTESIAN_POINT('',(-96.5,8.89001598827882,80.2588571187217));
#473=CARTESIAN_POINT('',(-96.,15.7324298947054,135.855529168716));
#474=CARTESIAN_POINT('',(-104.,2.84446775673926,137.558594619705));
#475=CARTESIAN_POINT('',(-103.,-6.93967192044313,63.5170352428403));
#476=CARTESIAN_POINT('',(-96.,4.89206983859136,99.6207796884325));
#477=CARTESIAN_POINT('',(-96.,9.78413967718255,136.641559376865));
#478=CARTESIAN_POINT('',(-96.,7.68413967718255,136.641559376865));
#479=CARTESIAN_POINT('',(-96.,11.8841396771825,136.641559376865));
#480=CARTESIAN_POINT('',(-96.,1.62478324878218E-13,62.6));
#481=CARTESIAN_POINT('',(-96.,-2.09999999999984,62.6));
#482=CARTESIAN_POINT('',(-96.,2.10000000000016,62.6));
#483=CARTESIAN_POINT('',(-104.,9.78413967718255,136.641559376865));
#484=CARTESIAN_POINT('',(-96.,11.8841396771826,136.641559376865));
#485=CARTESIAN_POINT('',(-96.,7.68413967718255,136.641559376865));
#486=CARTESIAN_POINT('',(-104.,1.60535434585124E-13,62.6));
#487=CARTESIAN_POINT('',(-96.,2.10000000000016,62.6));
#488=CARTESIAN_POINT('',(-96.,-2.09999999999984,62.6));
#489=CARTESIAN_POINT('',(-104.,1.60535434585124E-13,62.6));
#490=CARTESIAN_POINT('',(-104.,9.78413967718255,136.641559376865));
#491=CARTESIAN_POINT('',(-104.,1.60535434585124E-13,62.6));
#492=DIRECTION('',(1.,0.,0.));
#493=DIRECTION('',(0.,6.44398106898306,-0.851532725494551));
#494=DIRECTION('',(0.707106781186569,-0.701012724879353,0.092634548399578));
#495=DIRECTION('',(-1.,-2.34347867994754E-16,-6.16297582203915E-33));
#496=DIRECTION('',(-1.62629731913895E-15,6.9396719204433,-0.917035242840286));
#497=DIRECTION('',(-0.707106781186592,-0.701012724879327,0.0926345483996012));
#498=DIRECTION('',(1.,2.34347867994754E-16,6.16297582203915E-33));
#499=DIRECTION('',(-1.39396913069053E-15,5.94829021752283,-0.786030208148817));
#500=DIRECTION('',(-0.707106781186548,-0.701012724879329,0.0926345483999177));
#501=DIRECTION('',(0.707106781186545,-0.701012724879329,0.0926345483999366));
#502=DIRECTION('',(0.,0.131005034691471,0.991381702920468));
#503=DIRECTION('',(0.,-0.13100503469147,-0.991381702920468));
#504=DIRECTION('',(1.,2.34347867994758E-16,0.));
#505=DIRECTION('',(1.51013322491476E-15,-6.44398106898305,0.851532725494569));
#506=DIRECTION('',(0.707106781186545,0.701012724879329,-0.0926345483999367));
#507=DIRECTION('',(-1.,-2.34347867994754E-16,6.16297582203915E-33));
#508=DIRECTION('',(1.62629731913895E-15,-6.93967192044329,0.9170352428403));
#509=DIRECTION('',(1.,2.34347867994754E-16,0.));
#510=DIRECTION('',(1.39396913069052E-15,-5.94829021752281,0.786030208148833));
#511=DIRECTION('',(-0.707106781186549,0.701012724879329,-0.0926345483999177));
#512=DIRECTION('',(0.,-0.13100503469147,-0.991381702920468));
#513=DIRECTION('',(0.,0.131005034691472,0.991381702920468));
#514=DIRECTION('',(-2.407682359194E-16,0.991381702920468,-0.131005034691471));
#515=DIRECTION('',(1.,0.,0.));
#516=DIRECTION('',(0.,0.13100503469147,0.991381702920468));
#517=DIRECTION('',(1.,4.93038065763132E-32,0.));
#518=DIRECTION('',(1.,2.42861286636753E-16,0.));
#519=DIRECTION('',(-1.68537765143581E-15,6.9396719204433,-0.917035242840286));
#520=DIRECTION('',(1.,0.,0.));
#521=DIRECTION('',(1.,2.34347867994754E-16,6.16297582203915E-33));
#522=DIRECTION('',(-1.62629731913895E-15,6.9396719204433,-0.917035242840286));
#523=DIRECTION('',(1.,2.34347867994754E-16,0.));
#524=DIRECTION('',(-1.,-2.34347867994754E-16,0.));
#525=DIRECTION('',(-4.92130522788983E-16,2.1,0.));
#526=DIRECTION('',(-1.,-2.34347867994754E-16,0.));
#527=DIRECTION('',(-4.92130522788983E-16,2.1,0.));
#528=DIRECTION('',(-1.,0.,0.));
#529=DIRECTION('',(0.,6.44398106898306,-0.851532725494551));
#530=DIRECTION('',(0.707106781186569,0.701012724879353,-0.092634548399578));
#531=DIRECTION('',(-1.,-2.34347867994754E-16,-6.16297582203915E-33));
#532=DIRECTION('',(-1.39396913069053E-15,5.94829021752283,-0.786030208148817));
#533=DIRECTION('',(-0.707106781186592,0.701012724879327,-0.0926345483996012));
#534=DIRECTION('',(0.707106781186555,-0.701012724879323,0.0926345483999168));
#535=DIRECTION('',(0.707106781186545,0.701012724879329,-0.0926345483999367));
#536=DIRECTION('',(0.,0.13100503469147,0.991381702920468));
#537=DIRECTION('',(0.,-0.131005034691471,-0.991381702920468));
#538=DIRECTION('',(-1.,-2.34347867994758E-16,0.));
#539=DIRECTION('',(1.51013322491476E-15,-6.44398106898305,0.851532725494569));
#540=DIRECTION('',(0.707106781186545,-0.701012724879329,0.0926345483999366));
#541=DIRECTION('',(-1.,-2.34347867994754E-16,0.));
#542=DIRECTION('',(1.39396913069052E-15,-5.94829021752281,0.786030208148833));
#543=DIRECTION('',(1.,2.34347867994754E-16,-6.16297582203915E-33));
#544=DIRECTION('',(1.62629731913895E-15,-6.93967192044329,0.9170352428403));
#545=DIRECTION('',(0.707106781186556,0.701012724879322,-0.0926345483999167));
#546=DIRECTION('',(0.,-0.131005034691472,-0.991381702920468));
#547=DIRECTION('',(2.407682359194E-16,-0.991381702920468,0.131005034691471));
#548=DIRECTION('',(1.,4.93038065763132E-32,0.));
#549=DIRECTION('',(1.,2.34347867994754E-16,0.));
#550=DIRECTION('',(-1.,-2.34347867994754E-16,0.));
#551=DIRECTION('',(-4.92130522788983E-16,2.1,0.));
#552=DIRECTION('',(-1.,-2.34347867994754E-16,0.));
#553=DIRECTION('',(-4.92130522788983E-16,2.1,0.));
#554=DIRECTION('',(1.,2.42861286636753E-16,0.));
#555=DIRECTION('',(-5.10008701937181E-16,2.1,0.));
#556=DIRECTION('',(-1.,-2.42861286636753E-16,0.));
#557=DIRECTION('',(-1.,0.,0.));
#558=DIRECTION('',(1.,2.42861286636753E-16,0.));
#559=DIRECTION('',(-5.10008701937181E-16,2.1,0.));
#560=DIRECTION('',(-1.,-2.42861286636753E-16,0.));
#561=DIRECTION('',(-1.,0.,0.));
#562=DIRECTION('',(1.,2.42861286636753E-16,0.));
#563=DIRECTION('',(1.6853776514358E-15,-6.93967192044329,0.9170352428403));
#564=DIRECTION('',(1.,2.42861286636753E-16,0.));
#565=DIRECTION('',(-5.10008701937181E-16,2.1,0.));
#566=DIRECTION('',(1.,2.42861286636753E-16,0.));
#567=DIRECTION('',(-5.10008701937181E-16,2.1,0.));
#568=CONICAL_SURFACE('',#384,6.50000000000002,0.785398163397452);
#569=CONICAL_SURFACE('',#388,6.50000000000001,0.785398163397452);
#570=CONICAL_SURFACE('',#398,6.50000000000002,0.785398163397452);
#571=CONICAL_SURFACE('',#401,6.50000000000001,0.785398163397452);
#572=CLOSED_SHELL('',(#366,#367,#368,#369,#370,#371,#372,#373,#374,#375,
#376,#377,#378,#379,#380,#381,#382,#383));
#573=MANIFOLD_SOLID_BREP('',#572);
#574=ADVANCED_BREP_SHAPE_REPRESENTATION('',(#573),#103);
ENDSEC;
END-ISO-10303-21;
