ISO-10303-21;
HEADER;
/* Generated by software containing ST-Developer
 * from STEP Tools, Inc. (www.steptools.com) 
 */

FILE_DESCRIPTION(
/* description */ ('Alibre Inc.'),
/* implementation_level */ '2;1');

FILE_NAME(
/* name */ 'export-DE961AAF-B4EB-4EB0-9A09-506FD461888D',
/* time_stamp */ '2026-10-02T12:38:14+02:00',
/* author */ (''),
/* organization */ (''),
/* preprocessor_version */ 'ST-DEVELOPER v17',
/* originating_system */ 'Alibre',
/* authorisation */ '');

FILE_SCHEMA (('CONFIG_CONTROL_DESIGN'));
ENDSEC;

DATA;
#10=MECHANICAL_CONTEXT('detailed design',#18,'mechanical');
#11=PRODUCT_RELATED_PRODUCT_CATEGORY('detail','',(#98));
#12=CC_DESIGN_SECURITY_CLASSIFICATION(#14,(#97));
#13=SECURITY_CLASSIFICATION_LEVEL('unclassified');
#14=SECURITY_CLASSIFICATION('name','Security for version',#13);
#15=SHAPE_DEFINITION_REPRESENTATION(#16,#757);
#16=PRODUCT_DEFINITION_SHAPE('','DefinitionDesc',#96);
#17=APPLICATION_PROTOCOL_DEFINITION('AP definition status',
'config_control_design',1994,#18);
#18=APPLICATION_CONTEXT(
'control the configuration of three dimensional design');
#19=DESIGN_CONTEXT('detailed design',#18,'design');
#20=PERSON_AND_ORGANIZATION_ROLE('creator');
#21=PERSON_AND_ORGANIZATION_ROLE('classification_officer');
#22=PERSON_AND_ORGANIZATION_ROLE('creator');
#23=PERSON_AND_ORGANIZATION_ROLE('design_supplier');
#24=PERSON_AND_ORGANIZATION_ROLE('design_owner');
#25=CC_DESIGN_PERSON_AND_ORGANIZATION_ASSIGNMENT(#57,#20,(#96));
#26=CC_DESIGN_PERSON_AND_ORGANIZATION_ASSIGNMENT(#60,#21,(#14));
#27=CC_DESIGN_PERSON_AND_ORGANIZATION_ASSIGNMENT(#61,#22,(#97));
#28=CC_DESIGN_PERSON_AND_ORGANIZATION_ASSIGNMENT(#62,#23,(#97));
#29=CC_DESIGN_PERSON_AND_ORGANIZATION_ASSIGNMENT(#63,#24,(#98));
#30=DATE_TIME_ROLE('creation_date');
#31=DATE_TIME_ROLE('classification_date');
#32=CC_DESIGN_DATE_AND_TIME_ASSIGNMENT(#86,#30,(#96));
#33=CC_DESIGN_DATE_AND_TIME_ASSIGNMENT(#89,#31,(#14));
#34=CC_DESIGN_APPROVAL(#93,(#96));
#35=CC_DESIGN_APPROVAL(#94,(#97));
#36=CC_DESIGN_APPROVAL(#95,(#14));
#37=APPROVAL_PERSON_ORGANIZATION(#56,#93,#64);
#38=APPROVAL_PERSON_ORGANIZATION(#58,#94,#65);
#39=APPROVAL_PERSON_ORGANIZATION(#59,#95,#66);
#40=ORGANIZATION('DEFINITION_APPROVEDBY_ORG_ID',
'DEFINITION_APPROVEDBY_ORG_NAME','DEFINITION_APPROVEDBY_ORG_DESCR');
#41=ORGANIZATION('DEF_CREATOR_ORG_ID','DEF_CREATOR_ORG_NAME',
'DEF_CREATOR_ORG_DESCR');
#42=ORGANIZATION('APPROVEDBY_ORG_ID','APPROVEDBY_ORG_NAME',
'APPROVEDBY_ORG_DESCR');
#43=ORGANIZATION('SECURITY_APPROVEDBY_ORG_ID',
'SECURITY_APPROVEDBY_ORG_NAME','SECURITY_APPROVEDBY_ORG_DESCR');
#44=ORGANIZATION('CLASSOFFICER_ORG_ID','CLASSOFFICER_ORG_NAME',
'CLASSOFFICER_ORG_DESCR');
#45=ORGANIZATION('CREATOR_ORG_ID','CREATOR_ORG_NAME',
'CREATOR_ORG_DESCR');
#46=ORGANIZATION('SUPPLIER_ORG_ID','SUPPLIER_ORG_NAME',
'SUPPLIER_ORG_DESCR');
#47=ORGANIZATION('OWNER_ORG_ID','OWNER_ORG_NAME','OWNER_ORG_DESCR');
#48=PERSON('DEFINITION_approverID','DEFINITION_APPROVEDBY_LASTNAME',
'DEFINITION_APPROVEDBY_FIRSTNAME',$,$,$);
#49=PERSON('DEF_createrID','DEF_CREATOR_LASTNAME',
'DEF_CREATOR_FIRSTNAME',$,$,$);
#50=PERSON('approverID','APPROVEDBY_LASTNAME','APPROVEDBY_FIRSTNAME',$,
$,$);
#51=PERSON('SECURITY_approverID','SECURITY_LASTNAME',
'SECURITY_APPROVEDBY_FIRSTNAME',$,$,$);
#52=PERSON('classifierID','CLASSOFFICER_LASTNAME',
'CLASSOFFICER_FIRSTNAME',$,$,$);
#53=PERSON('createrID','CREATOR_LASTNAME','CREATOR_FIRSTNAME',$,$,$);
#54=PERSON('supplierID','SUPPLIER_LASTNAME','SUPPLIER_FIRSTNAME',$,$,$);
#55=PERSON('ownerID','OWNER_LASTNAME','OWNER_FIRSTNAME',$,$,$);
#56=PERSON_AND_ORGANIZATION(#48,#40);
#57=PERSON_AND_ORGANIZATION(#49,#41);
#58=PERSON_AND_ORGANIZATION(#50,#42);
#59=PERSON_AND_ORGANIZATION(#51,#43);
#60=PERSON_AND_ORGANIZATION(#52,#44);
#61=PERSON_AND_ORGANIZATION(#53,#45);
#62=PERSON_AND_ORGANIZATION(#54,#46);
#63=PERSON_AND_ORGANIZATION(#55,#47);
#64=APPROVAL_ROLE('definition_approval');
#65=APPROVAL_ROLE('version_approval');
#66=APPROVAL_ROLE('security_approval');
#67=APPROVAL_DATE_TIME(#85,#93);
#68=APPROVAL_DATE_TIME(#87,#94);
#69=APPROVAL_DATE_TIME(#88,#95);
#70=COORDINATED_UNIVERSAL_TIME_OFFSET(1,0,.AHEAD.);
#71=COORDINATED_UNIVERSAL_TIME_OFFSET(1,0,.AHEAD.);
#72=COORDINATED_UNIVERSAL_TIME_OFFSET(1,0,.AHEAD.);
#73=COORDINATED_UNIVERSAL_TIME_OFFSET(1,0,.AHEAD.);
#74=COORDINATED_UNIVERSAL_TIME_OFFSET(1,0,.AHEAD.);
#75=LOCAL_TIME(14,22,14.,#70);
#76=LOCAL_TIME(14,22,14.,#71);
#77=LOCAL_TIME(14,22,14.,#72);
#78=LOCAL_TIME(14,22,14.,#73);
#79=LOCAL_TIME(14,22,14.,#74);
#80=CALENDAR_DATE(2026,20,3);
#81=CALENDAR_DATE(2026,20,3);
#82=CALENDAR_DATE(2026,20,3);
#83=CALENDAR_DATE(2026,20,3);
#84=CALENDAR_DATE(2026,20,3);
#85=DATE_AND_TIME(#80,#75);
#86=DATE_AND_TIME(#81,#76);
#87=DATE_AND_TIME(#82,#77);
#88=DATE_AND_TIME(#83,#78);
#89=DATE_AND_TIME(#84,#79);
#90=APPROVAL_STATUS('not_yet_approved');
#91=APPROVAL_STATUS('not_yet_approved');
#92=APPROVAL_STATUS('not_yet_approved');
#93=APPROVAL(#90,'defintion approval');
#94=APPROVAL(#91,'version approval');
#95=APPROVAL(#92,'security approval');
#96=PRODUCT_DEFINITION('DefinitionID','DefinitionDesc',#97,#19);
#97=PRODUCT_DEFINITION_FORMATION_WITH_SPECIFIED_SOURCE(
'PRODUCT_VERSION_ID','PRODUCT_VERSION_DESCR',#98,.NOT_KNOWN.);
#98=PRODUCT('upper arm left','upper arm left','',(#10));
#99=(
LENGTH_UNIT()
NAMED_UNIT(*)
SI_UNIT(.MILLI.,.METRE.)
);
#100=(
NAMED_UNIT(*)
PLANE_ANGLE_UNIT()
SI_UNIT($,.RADIAN.)
);
#101=(
NAMED_UNIT(*)
SI_UNIT($,.STERADIAN.)
SOLID_ANGLE_UNIT()
);
#102=UNCERTAINTY_MEASURE_WITH_UNIT(LENGTH_MEASURE(1.E-6),#99,
'DISTANCE_ACCURACY_VALUE',
'Maximum model space distance between geometric entities at asserted c
onnectivities');
#103=(
GEOMETRIC_REPRESENTATION_CONTEXT(3)
GLOBAL_UNCERTAINTY_ASSIGNED_CONTEXT((#102))
GLOBAL_UNIT_ASSIGNED_CONTEXT((#101,#100,#99))
REPRESENTATION_CONTEXT('ID1','3D')
);
#104=CYLINDRICAL_SURFACE('',#509,7.);
#105=CYLINDRICAL_SURFACE('',#517,2.1);
#106=CYLINDRICAL_SURFACE('',#519,2.1);
#107=CYLINDRICAL_SURFACE('',#521,2.1);
#108=CYLINDRICAL_SURFACE('',#524,7.00000000000001);
#109=CYLINDRICAL_SURFACE('',#526,7.00000000000002);
#110=CYLINDRICAL_SURFACE('',#530,2.1);
#111=CYLINDRICAL_SURFACE('',#531,2.1);
#112=CYLINDRICAL_SURFACE('',#532,2.1);
#113=CYLINDRICAL_SURFACE('',#533,7.00000000000002);
#114=CIRCLE('',#497,7.00000000000001);
#115=CIRCLE('',#498,6.00000000000001);
#116=CIRCLE('',#501,6.00000000000002);
#117=CIRCLE('',#502,7.00000000000002);
#118=CIRCLE('',#505,7.);
#119=CIRCLE('',#506,5.99999999999999);
#120=CIRCLE('',#510,7.);
#121=CIRCLE('',#514,2.1);
#122=CIRCLE('',#515,2.1);
#123=CIRCLE('',#516,2.1);
#124=CIRCLE('',#518,2.1);
#125=CIRCLE('',#520,2.1);
#126=CIRCLE('',#522,2.1);
#127=CIRCLE('',#525,7.00000000000001);
#128=CIRCLE('',#527,7.00000000000002);
#129=CONICAL_SURFACE('',#496,6.50000000000001,0.785398163397453);
#130=CONICAL_SURFACE('',#500,6.50000000000002,0.785398163397448);
#131=CONICAL_SURFACE('',#504,6.49999999999999,0.785398163397454);
#132=CONICAL_SURFACE('',#529,6.50000000000002,0.785398163397448);
#133=VERTEX_POINT('',#638);
#134=VERTEX_POINT('',#639);
#135=VERTEX_POINT('',#641);
#136=VERTEX_POINT('',#643);
#137=VERTEX_POINT('',#647);
#138=VERTEX_POINT('',#648);
#139=VERTEX_POINT('',#653);
#140=VERTEX_POINT('',#654);
#141=VERTEX_POINT('',#659);
#142=VERTEX_POINT('',#660);
#143=VERTEX_POINT('',#662);
#144=VERTEX_POINT('',#664);
#145=VERTEX_POINT('',#668);
#146=VERTEX_POINT('',#669);
#147=VERTEX_POINT('',#674);
#148=VERTEX_POINT('',#675);
#149=VERTEX_POINT('',#683);
#150=VERTEX_POINT('',#685);
#151=VERTEX_POINT('',#689);
#152=VERTEX_POINT('',#693);
#153=VERTEX_POINT('',#697);
#154=VERTEX_POINT('',#701);
#155=VERTEX_POINT('',#702);
#156=VERTEX_POINT('',#704);
#157=VERTEX_POINT('',#705);
#158=VERTEX_POINT('',#707);
#159=VERTEX_POINT('',#708);
#160=VERTEX_POINT('',#711);
#161=VERTEX_POINT('',#713);
#162=VERTEX_POINT('',#717);
#163=VERTEX_POINT('',#719);
#164=VERTEX_POINT('',#723);
#165=VERTEX_POINT('',#725);
#166=VERTEX_POINT('',#729);
#167=VERTEX_POINT('',#731);
#168=VERTEX_POINT('',#737);
#169=VECTOR('',#535,1.);
#170=VECTOR('',#536,1.);
#171=VECTOR('',#537,1.);
#172=VECTOR('',#538,1.);
#173=VECTOR('',#541,1.);
#174=VECTOR('',#547,1.);
#175=VECTOR('',#548,1.);
#176=VECTOR('',#549,1.);
#177=VECTOR('',#552,1.);
#178=VECTOR('',#555,1.);
#179=VECTOR('',#559,1.);
#180=VECTOR('',#560,1.);
#181=VECTOR('',#561,1.);
#182=VECTOR('',#564,1.);
#183=VECTOR('',#570,1.);
#184=VECTOR('',#571,1.);
#185=VECTOR('',#573,1.);
#186=VECTOR('',#574,1.);
#187=VECTOR('',#575,1.);
#188=VECTOR('',#578,1.);
#189=VECTOR('',#582,1.);
#190=VECTOR('',#583,1.);
#191=VECTOR('',#585,1.);
#192=VECTOR('',#586,1.);
#193=VECTOR('',#596,1.);
#194=VECTOR('',#599,1.);
#195=VECTOR('',#602,1.);
#196=VECTOR('',#605,1.);
#197=VECTOR('',#608,1.);
#198=VECTOR('',#611,1.);
#199=VECTOR('',#613,1.);
#200=VECTOR('',#614,1.);
#201=VECTOR('',#615,1.);
#202=VECTOR('',#622,1.);
#203=LINE('',#637,#169);
#204=LINE('',#640,#170);
#205=LINE('',#642,#171);
#206=LINE('',#644,#172);
#207=LINE('',#646,#173);
#208=LINE('',#652,#174);
#209=LINE('',#655,#175);
#210=LINE('',#656,#176);
#211=LINE('',#658,#177);
#212=LINE('',#663,#178);
#213=LINE('',#667,#179);
#214=LINE('',#670,#180);
#215=LINE('',#671,#181);
#216=LINE('',#673,#182);
#217=LINE('',#679,#183);
#218=LINE('',#680,#184);
#219=LINE('',#682,#185);
#220=LINE('',#684,#186);
#221=LINE('',#686,#187);
#222=LINE('',#688,#188);
#223=LINE('',#692,#189);
#224=LINE('',#694,#190);
#225=LINE('',#696,#191);
#226=LINE('',#698,#192);
#227=LINE('',#710,#193);
#228=LINE('',#714,#194);
#229=LINE('',#716,#195);
#230=LINE('',#720,#196);
#231=LINE('',#722,#197);
#232=LINE('',#726,#198);
#233=LINE('',#728,#199);
#234=LINE('',#730,#200);
#235=LINE('',#732,#201);
#236=LINE('',#736,#202);
#237=EDGE_CURVE('',#133,#134,#203,.T.);
#238=EDGE_CURVE('',#134,#135,#204,.T.);
#239=EDGE_CURVE('',#135,#136,#205,.T.);
#240=EDGE_CURVE('',#133,#136,#206,.T.);
#241=EDGE_CURVE('',#137,#138,#207,.T.);
#242=EDGE_CURVE('',#138,#135,#114,.T.);
#243=EDGE_CURVE('',#134,#137,#115,.T.);
#244=EDGE_CURVE('',#139,#140,#208,.T.);
#245=EDGE_CURVE('',#140,#138,#209,.T.);
#246=EDGE_CURVE('',#137,#139,#210,.T.);
#247=EDGE_CURVE('',#141,#142,#211,.T.);
#248=EDGE_CURVE('',#142,#143,#116,.T.);
#249=EDGE_CURVE('',#143,#144,#212,.T.);
#250=EDGE_CURVE('',#144,#141,#117,.T.);
#251=EDGE_CURVE('',#145,#146,#213,.T.);
#252=EDGE_CURVE('',#146,#144,#214,.T.);
#253=EDGE_CURVE('',#143,#145,#215,.T.);
#254=EDGE_CURVE('',#147,#148,#216,.T.);
#255=EDGE_CURVE('',#148,#146,#118,.T.);
#256=EDGE_CURVE('',#145,#147,#119,.T.);
#257=EDGE_CURVE('',#136,#148,#217,.T.);
#258=EDGE_CURVE('',#147,#133,#218,.T.);
#259=EDGE_CURVE('',#146,#149,#219,.T.);
#260=EDGE_CURVE('',#150,#149,#220,.T.);
#261=EDGE_CURVE('',#144,#150,#221,.T.);
#262=EDGE_CURVE('',#148,#151,#222,.T.);
#263=EDGE_CURVE('',#149,#151,#120,.T.);
#264=EDGE_CURVE('',#136,#152,#223,.T.);
#265=EDGE_CURVE('',#151,#152,#224,.T.);
#266=EDGE_CURVE('',#135,#153,#225,.T.);
#267=EDGE_CURVE('',#152,#153,#226,.T.);
#268=EDGE_CURVE('',#139,#142,#116,.T.);
#269=EDGE_CURVE('',#154,#155,#121,.T.);
#270=EDGE_CURVE('',#155,#154,#121,.T.);
#271=EDGE_CURVE('',#156,#157,#122,.T.);
#272=EDGE_CURVE('',#157,#156,#122,.T.);
#273=EDGE_CURVE('',#158,#159,#123,.T.);
#274=EDGE_CURVE('',#159,#158,#123,.T.);
#275=EDGE_CURVE('',#160,#154,#227,.T.);
#276=EDGE_CURVE('',#161,#160,#124,.T.);
#277=EDGE_CURVE('',#161,#155,#228,.T.);
#278=EDGE_CURVE('',#162,#156,#229,.T.);
#279=EDGE_CURVE('',#163,#162,#125,.T.);
#280=EDGE_CURVE('',#163,#157,#230,.T.);
#281=EDGE_CURVE('',#164,#158,#231,.T.);
#282=EDGE_CURVE('',#165,#164,#126,.T.);
#283=EDGE_CURVE('',#165,#159,#232,.T.);
#284=EDGE_CURVE('',#140,#166,#233,.T.);
#285=EDGE_CURVE('',#167,#166,#234,.T.);
#286=EDGE_CURVE('',#138,#167,#235,.T.);
#287=EDGE_CURVE('',#153,#167,#127,.T.);
#288=EDGE_CURVE('',#168,#141,#236,.T.);
#289=EDGE_CURVE('',#168,#150,#128,.T.);
#290=EDGE_CURVE('',#166,#168,#128,.T.);
#291=EDGE_CURVE('',#164,#165,#126,.T.);
#292=EDGE_CURVE('',#162,#163,#125,.T.);
#293=EDGE_CURVE('',#160,#161,#124,.T.);
#294=EDGE_CURVE('',#141,#140,#117,.T.);
#295=ORIENTED_EDGE('',*,*,#237,.T.);
#296=ORIENTED_EDGE('',*,*,#238,.T.);
#297=ORIENTED_EDGE('',*,*,#239,.T.);
#298=ORIENTED_EDGE('',*,*,#240,.F.);
#299=ORIENTED_EDGE('',*,*,#241,.T.);
#300=ORIENTED_EDGE('',*,*,#242,.T.);
#301=ORIENTED_EDGE('',*,*,#238,.F.);
#302=ORIENTED_EDGE('',*,*,#243,.T.);
#303=ORIENTED_EDGE('',*,*,#244,.T.);
#304=ORIENTED_EDGE('',*,*,#245,.T.);
#305=ORIENTED_EDGE('',*,*,#241,.F.);
#306=ORIENTED_EDGE('',*,*,#246,.T.);
#307=ORIENTED_EDGE('',*,*,#247,.T.);
#308=ORIENTED_EDGE('',*,*,#248,.T.);
#309=ORIENTED_EDGE('',*,*,#249,.T.);
#310=ORIENTED_EDGE('',*,*,#250,.T.);
#311=ORIENTED_EDGE('',*,*,#251,.T.);
#312=ORIENTED_EDGE('',*,*,#252,.T.);
#313=ORIENTED_EDGE('',*,*,#249,.F.);
#314=ORIENTED_EDGE('',*,*,#253,.T.);
#315=ORIENTED_EDGE('',*,*,#254,.T.);
#316=ORIENTED_EDGE('',*,*,#255,.T.);
#317=ORIENTED_EDGE('',*,*,#251,.F.);
#318=ORIENTED_EDGE('',*,*,#256,.T.);
#319=ORIENTED_EDGE('',*,*,#257,.T.);
#320=ORIENTED_EDGE('',*,*,#254,.F.);
#321=ORIENTED_EDGE('',*,*,#258,.T.);
#322=ORIENTED_EDGE('',*,*,#240,.T.);
#323=ORIENTED_EDGE('',*,*,#252,.F.);
#324=ORIENTED_EDGE('',*,*,#259,.T.);
#325=ORIENTED_EDGE('',*,*,#260,.F.);
#326=ORIENTED_EDGE('',*,*,#261,.F.);
#327=ORIENTED_EDGE('',*,*,#255,.F.);
#328=ORIENTED_EDGE('',*,*,#262,.T.);
#329=ORIENTED_EDGE('',*,*,#263,.F.);
#330=ORIENTED_EDGE('',*,*,#259,.F.);
#331=ORIENTED_EDGE('',*,*,#257,.F.);
#332=ORIENTED_EDGE('',*,*,#264,.T.);
#333=ORIENTED_EDGE('',*,*,#265,.F.);
#334=ORIENTED_EDGE('',*,*,#262,.F.);
#335=ORIENTED_EDGE('',*,*,#239,.F.);
#336=ORIENTED_EDGE('',*,*,#266,.T.);
#337=ORIENTED_EDGE('',*,*,#267,.F.);
#338=ORIENTED_EDGE('',*,*,#264,.F.);
#339=ORIENTED_EDGE('',*,*,#237,.F.);
#340=ORIENTED_EDGE('',*,*,#258,.F.);
#341=ORIENTED_EDGE('',*,*,#256,.F.);
#342=ORIENTED_EDGE('',*,*,#253,.F.);
#343=ORIENTED_EDGE('',*,*,#248,.F.);
#344=ORIENTED_EDGE('',*,*,#268,.F.);
#345=ORIENTED_EDGE('',*,*,#246,.F.);
#346=ORIENTED_EDGE('',*,*,#243,.F.);
#347=ORIENTED_EDGE('',*,*,#269,.F.);
#348=ORIENTED_EDGE('',*,*,#270,.F.);
#349=ORIENTED_EDGE('',*,*,#271,.F.);
#350=ORIENTED_EDGE('',*,*,#272,.F.);
#351=ORIENTED_EDGE('',*,*,#273,.F.);
#352=ORIENTED_EDGE('',*,*,#274,.F.);
#353=ORIENTED_EDGE('',*,*,#275,.F.);
#354=ORIENTED_EDGE('',*,*,#276,.F.);
#355=ORIENTED_EDGE('',*,*,#277,.T.);
#356=ORIENTED_EDGE('',*,*,#270,.T.);
#357=ORIENTED_EDGE('',*,*,#278,.F.);
#358=ORIENTED_EDGE('',*,*,#279,.F.);
#359=ORIENTED_EDGE('',*,*,#280,.T.);
#360=ORIENTED_EDGE('',*,*,#272,.T.);
#361=ORIENTED_EDGE('',*,*,#281,.F.);
#362=ORIENTED_EDGE('',*,*,#282,.F.);
#363=ORIENTED_EDGE('',*,*,#283,.T.);
#364=ORIENTED_EDGE('',*,*,#274,.T.);
#365=ORIENTED_EDGE('',*,*,#245,.F.);
#366=ORIENTED_EDGE('',*,*,#284,.T.);
#367=ORIENTED_EDGE('',*,*,#285,.F.);
#368=ORIENTED_EDGE('',*,*,#286,.F.);
#369=ORIENTED_EDGE('',*,*,#242,.F.);
#370=ORIENTED_EDGE('',*,*,#286,.T.);
#371=ORIENTED_EDGE('',*,*,#287,.F.);
#372=ORIENTED_EDGE('',*,*,#266,.F.);
#373=ORIENTED_EDGE('',*,*,#288,.T.);
#374=ORIENTED_EDGE('',*,*,#250,.F.);
#375=ORIENTED_EDGE('',*,*,#261,.T.);
#376=ORIENTED_EDGE('',*,*,#289,.F.);
#377=ORIENTED_EDGE('',*,*,#290,.T.);
#378=ORIENTED_EDGE('',*,*,#289,.T.);
#379=ORIENTED_EDGE('',*,*,#260,.T.);
#380=ORIENTED_EDGE('',*,*,#263,.T.);
#381=ORIENTED_EDGE('',*,*,#265,.T.);
#382=ORIENTED_EDGE('',*,*,#267,.T.);
#383=ORIENTED_EDGE('',*,*,#287,.T.);
#384=ORIENTED_EDGE('',*,*,#285,.T.);
#385=ORIENTED_EDGE('',*,*,#282,.T.);
#386=ORIENTED_EDGE('',*,*,#291,.T.);
#387=ORIENTED_EDGE('',*,*,#279,.T.);
#388=ORIENTED_EDGE('',*,*,#292,.T.);
#389=ORIENTED_EDGE('',*,*,#276,.T.);
#390=ORIENTED_EDGE('',*,*,#293,.T.);
#391=ORIENTED_EDGE('',*,*,#247,.F.);
#392=ORIENTED_EDGE('',*,*,#294,.T.);
#393=ORIENTED_EDGE('',*,*,#244,.F.);
#394=ORIENTED_EDGE('',*,*,#268,.T.);
#395=ORIENTED_EDGE('',*,*,#275,.T.);
#396=ORIENTED_EDGE('',*,*,#269,.T.);
#397=ORIENTED_EDGE('',*,*,#277,.F.);
#398=ORIENTED_EDGE('',*,*,#293,.F.);
#399=ORIENTED_EDGE('',*,*,#278,.T.);
#400=ORIENTED_EDGE('',*,*,#271,.T.);
#401=ORIENTED_EDGE('',*,*,#280,.F.);
#402=ORIENTED_EDGE('',*,*,#292,.F.);
#403=ORIENTED_EDGE('',*,*,#281,.T.);
#404=ORIENTED_EDGE('',*,*,#273,.T.);
#405=ORIENTED_EDGE('',*,*,#283,.F.);
#406=ORIENTED_EDGE('',*,*,#291,.F.);
#407=ORIENTED_EDGE('',*,*,#288,.F.);
#408=ORIENTED_EDGE('',*,*,#290,.F.);
#409=ORIENTED_EDGE('',*,*,#284,.F.);
#410=ORIENTED_EDGE('',*,*,#294,.F.);
#411=EDGE_LOOP('',(#295,#296,#297,#298));
#412=EDGE_LOOP('',(#299,#300,#301,#302));
#413=EDGE_LOOP('',(#303,#304,#305,#306));
#414=EDGE_LOOP('',(#307,#308,#309,#310));
#415=EDGE_LOOP('',(#311,#312,#313,#314));
#416=EDGE_LOOP('',(#315,#316,#317,#318));
#417=EDGE_LOOP('',(#319,#320,#321,#322));
#418=EDGE_LOOP('',(#323,#324,#325,#326));
#419=EDGE_LOOP('',(#327,#328,#329,#330));
#420=EDGE_LOOP('',(#331,#332,#333,#334));
#421=EDGE_LOOP('',(#335,#336,#337,#338));
#422=EDGE_LOOP('',(#339,#340,#341,#342,#343,#344,#345,#346));
#423=EDGE_LOOP('',(#347,#348));
#424=EDGE_LOOP('',(#349,#350));
#425=EDGE_LOOP('',(#351,#352));
#426=EDGE_LOOP('',(#353,#354,#355,#356));
#427=EDGE_LOOP('',(#357,#358,#359,#360));
#428=EDGE_LOOP('',(#361,#362,#363,#364));
#429=EDGE_LOOP('',(#365,#366,#367,#368));
#430=EDGE_LOOP('',(#369,#370,#371,#372));
#431=EDGE_LOOP('',(#373,#374,#375,#376));
#432=EDGE_LOOP('',(#377,#378,#379,#380,#381,#382,#383,#384));
#433=EDGE_LOOP('',(#385,#386));
#434=EDGE_LOOP('',(#387,#388));
#435=EDGE_LOOP('',(#389,#390));
#436=EDGE_LOOP('',(#391,#392,#393,#394));
#437=EDGE_LOOP('',(#395,#396,#397,#398));
#438=EDGE_LOOP('',(#399,#400,#401,#402));
#439=EDGE_LOOP('',(#403,#404,#405,#406));
#440=EDGE_LOOP('',(#407,#408,#409,#410));
#441=FACE_BOUND('',#411,.T.);
#442=FACE_BOUND('',#412,.T.);
#443=FACE_BOUND('',#413,.T.);
#444=FACE_BOUND('',#414,.T.);
#445=FACE_BOUND('',#415,.T.);
#446=FACE_BOUND('',#416,.T.);
#447=FACE_BOUND('',#417,.T.);
#448=FACE_BOUND('',#418,.T.);
#449=FACE_BOUND('',#419,.T.);
#450=FACE_BOUND('',#420,.T.);
#451=FACE_BOUND('',#421,.T.);
#452=FACE_BOUND('',#422,.T.);
#453=FACE_BOUND('',#423,.T.);
#454=FACE_BOUND('',#424,.T.);
#455=FACE_BOUND('',#425,.T.);
#456=FACE_BOUND('',#426,.T.);
#457=FACE_BOUND('',#427,.T.);
#458=FACE_BOUND('',#428,.T.);
#459=FACE_BOUND('',#429,.T.);
#460=FACE_BOUND('',#430,.T.);
#461=FACE_BOUND('',#431,.T.);
#462=FACE_BOUND('',#432,.T.);
#463=FACE_BOUND('',#433,.T.);
#464=FACE_BOUND('',#434,.T.);
#465=FACE_BOUND('',#435,.T.);
#466=FACE_BOUND('',#436,.T.);
#467=FACE_BOUND('',#437,.T.);
#468=FACE_BOUND('',#438,.T.);
#469=FACE_BOUND('',#439,.T.);
#470=FACE_BOUND('',#440,.T.);
#471=ADVANCED_FACE('',(#441),#745,.T.);
#472=ADVANCED_FACE('',(#442),#129,.T.);
#473=ADVANCED_FACE('',(#443),#746,.T.);
#474=ADVANCED_FACE('',(#444),#130,.T.);
#475=ADVANCED_FACE('',(#445),#747,.T.);
#476=ADVANCED_FACE('',(#446),#131,.T.);
#477=ADVANCED_FACE('',(#447),#748,.T.);
#478=ADVANCED_FACE('',(#448),#749,.T.);
#479=ADVANCED_FACE('',(#449),#104,.T.);
#480=ADVANCED_FACE('',(#450),#750,.T.);
#481=ADVANCED_FACE('',(#451),#751,.T.);
#482=ADVANCED_FACE('',(#452,#453,#454,#455),#752,.F.);
#483=ADVANCED_FACE('',(#456),#105,.F.);
#484=ADVANCED_FACE('',(#457),#106,.F.);
#485=ADVANCED_FACE('',(#458),#107,.F.);
#486=ADVANCED_FACE('',(#459),#753,.T.);
#487=ADVANCED_FACE('',(#460),#108,.T.);
#488=ADVANCED_FACE('',(#461),#109,.T.);
#489=ADVANCED_FACE('',(#462,#463,#464,#465),#754,.T.);
#490=ADVANCED_FACE('',(#466),#132,.T.);
#491=ADVANCED_FACE('',(#467),#110,.F.);
#492=ADVANCED_FACE('',(#468),#111,.F.);
#493=ADVANCED_FACE('',(#469),#112,.F.);
#494=ADVANCED_FACE('',(#470),#113,.T.);
#495=AXIS2_PLACEMENT_3D('',#636,#534,$);
#496=AXIS2_PLACEMENT_3D('',#645,#539,#540);
#497=AXIS2_PLACEMENT_3D('',#649,#542,#543);
#498=AXIS2_PLACEMENT_3D('',#650,#544,#545);
#499=AXIS2_PLACEMENT_3D('',#651,#546,$);
#500=AXIS2_PLACEMENT_3D('',#657,#550,#551);
#501=AXIS2_PLACEMENT_3D('',#661,#553,#554);
#502=AXIS2_PLACEMENT_3D('',#665,#556,#557);
#503=AXIS2_PLACEMENT_3D('',#666,#558,$);
#504=AXIS2_PLACEMENT_3D('',#672,#562,#563);
#505=AXIS2_PLACEMENT_3D('',#676,#565,#566);
#506=AXIS2_PLACEMENT_3D('',#677,#567,#568);
#507=AXIS2_PLACEMENT_3D('',#678,#569,$);
#508=AXIS2_PLACEMENT_3D('',#681,#572,$);
#509=AXIS2_PLACEMENT_3D('',#687,#576,#577);
#510=AXIS2_PLACEMENT_3D('',#690,#579,#580);
#511=AXIS2_PLACEMENT_3D('',#691,#581,$);
#512=AXIS2_PLACEMENT_3D('',#695,#584,$);
#513=AXIS2_PLACEMENT_3D('',#699,#587,$);
#514=AXIS2_PLACEMENT_3D('',#700,#588,#589);
#515=AXIS2_PLACEMENT_3D('',#703,#590,#591);
#516=AXIS2_PLACEMENT_3D('',#706,#592,#593);
#517=AXIS2_PLACEMENT_3D('',#709,#594,#595);
#518=AXIS2_PLACEMENT_3D('',#712,#597,#598);
#519=AXIS2_PLACEMENT_3D('',#715,#600,#601);
#520=AXIS2_PLACEMENT_3D('',#718,#603,#604);
#521=AXIS2_PLACEMENT_3D('',#721,#606,#607);
#522=AXIS2_PLACEMENT_3D('',#724,#609,#610);
#523=AXIS2_PLACEMENT_3D('',#727,#612,$);
#524=AXIS2_PLACEMENT_3D('',#733,#616,#617);
#525=AXIS2_PLACEMENT_3D('',#734,#618,#619);
#526=AXIS2_PLACEMENT_3D('',#735,#620,#621);
#527=AXIS2_PLACEMENT_3D('',#738,#623,#624);
#528=AXIS2_PLACEMENT_3D('',#739,#625,$);
#529=AXIS2_PLACEMENT_3D('',#740,#626,#627);
#530=AXIS2_PLACEMENT_3D('',#741,#628,#629);
#531=AXIS2_PLACEMENT_3D('',#742,#630,#631);
#532=AXIS2_PLACEMENT_3D('',#743,#632,#633);
#533=AXIS2_PLACEMENT_3D('',#744,#634,#635);
#534=DIRECTION('',(-0.707106781186547,-0.388318148163162,0.590939096529527));
#535=DIRECTION('',(0.,-0.835714084848562,-0.549164791647945));
#536=DIRECTION('',(0.70710678118672,-0.388318148163223,0.59093909652928));
#537=DIRECTION('',(0.,0.835714084848558,0.54916479164795));
#538=DIRECTION('',(0.633687274224679,-0.718815614612341,0.285910039479518));
#539=DIRECTION('',(1.,0.,0.));
#540=DIRECTION('',(0.,-3.56957114571167,5.43214155151564));
#541=DIRECTION('',(0.707106781186411,0.388318148163123,-0.590939096529715));
#542=DIRECTION('',(-1.,-2.34347867994754E-16,0.));
#543=DIRECTION('',(9.00869186703362E-16,-3.84415354153565,5.84999859393992));
#544=DIRECTION('',(1.,2.34347867994754E-16,0.));
#545=DIRECTION('',(7.72173588602882E-16,-3.2949887498877,5.01428450909136));
#546=DIRECTION('',(-0.707106781186541,0.388318148163165,-0.590939096529532));
#547=DIRECTION('',(0.707106781186426,0.388318148163061,-0.590939096529738));
#548=DIRECTION('',(0.,-0.835714084848556,-0.549164791647953));
#549=DIRECTION('',(0.,0.835714084848557,0.549164791647952));
#550=DIRECTION('',(1.,0.,0.));
#551=DIRECTION('',(0.,6.44398106898306,-0.851532725494551));
#552=DIRECTION('',(-0.707106781186548,-0.70101272487933,0.0926345483999166));
#553=DIRECTION('',(1.,2.34347867994754E-16,6.16297582203915E-33));
#554=DIRECTION('',(-1.39396913069053E-15,5.94829021752283,-0.786030208148817));
#555=DIRECTION('',(0.707106781186563,0.688113737033366,0.162786623854521));
#556=DIRECTION('',(-1.,-2.34347867994754E-16,-6.16297582203915E-33));
#557=DIRECTION('',(-1.62629731913895E-15,6.9396719204433,-0.917035242840286));
#558=DIRECTION('',(-0.707106781186549,0.688113737033409,0.162786623854403));
#559=DIRECTION('',(0.707106781186535,0.688113737033397,0.162786623854515));
#560=DIRECTION('',(0.,0.230215051227824,-0.973139779367882));
#561=DIRECTION('',(0.,-0.230215051227826,0.973139779367882));
#562=DIRECTION('',(1.,2.34347867994755E-16,0.));
#563=DIRECTION('',(-1.48234601161237E-15,6.32540856589122,1.49639783298089));
#564=DIRECTION('',(0.707106781186531,-0.6881137370334,-0.162786623854514));
#565=DIRECTION('',(-1.,-2.34347867994754E-16,-3.08148791101958E-32));
#566=DIRECTION('',(-1.59637262789024E-15,6.81197845557517,1.6115053585948));
#567=DIRECTION('',(1.,2.34347867994754E-16,1.84889274661175E-32));
#568=DIRECTION('',(-1.36831939533449E-15,5.83883867620728,1.38129030736697));
#569=DIRECTION('',(-0.707106781186548,-0.68811373703341,-0.162786623854403));
#570=DIRECTION('',(0.,-0.230215051227825,0.973139779367882));
#571=DIRECTION('',(0.,0.230215051227825,-0.973139779367882));
#572=DIRECTION('',(-2.3633797889469E-16,0.973139779367882,0.230215051227825));
#573=DIRECTION('',(1.,0.,0.));
#574=DIRECTION('',(0.,-0.230215051227824,0.973139779367882));
#575=DIRECTION('',(1.,0.,0.));
#576=DIRECTION('',(1.,2.42861286636753E-16,0.));
#577=DIRECTION('',(-1.65436585226283E-15,6.81197845557517,1.6115053585948));
#578=DIRECTION('',(1.,0.,0.));
#579=DIRECTION('',(1.,2.34347867994754E-16,6.16297582203915E-33));
#580=DIRECTION('',(-1.59637262789024E-15,6.81197845557517,1.6115053585948));
#581=DIRECTION('',(2.3633797889469E-16,-0.973139779367882,-0.230215051227825));
#582=DIRECTION('',(1.,0.,0.));
#583=DIRECTION('',(0.,0.230215051227825,-0.973139779367882));
#584=DIRECTION('',(1.33370867875225E-16,-0.549164791647948,0.83571408484856));
#585=DIRECTION('',(1.,0.,0.));
#586=DIRECTION('',(0.,-0.835714084848558,-0.54916479164795));
#587=DIRECTION('',(1.,2.34347867994754E-16,0.));
#588=DIRECTION('',(-1.,-2.34347867994754E-16,0.));
#589=DIRECTION('',(-4.92130522788983E-16,2.1,0.));
#590=DIRECTION('',(-1.,-2.34347867994754E-16,0.));
#591=DIRECTION('',(-4.92130522788983E-16,2.1,0.));
#592=DIRECTION('',(-1.,-2.34347867994754E-16,0.));
#593=DIRECTION('',(-4.92130522788983E-16,2.1,0.));
#594=DIRECTION('',(1.,2.42861286636753E-16,0.));
#595=DIRECTION('',(-5.10008701937181E-16,2.1,0.));
#596=DIRECTION('',(-1.,-2.42861286636753E-16,0.));
#597=DIRECTION('',(-1.,-2.34347867994754E-16,0.));
#598=DIRECTION('',(-4.92130522788983E-16,2.1,0.));
#599=DIRECTION('',(-1.,-1.22124532708767E-15,0.));
#600=DIRECTION('',(1.,2.42861286636753E-16,0.));
#601=DIRECTION('',(-5.10008701937181E-16,2.1,0.));
#602=DIRECTION('',(-1.,-2.42861286636753E-16,0.));
#603=DIRECTION('',(-1.,-2.34347867994754E-16,0.));
#604=DIRECTION('',(-4.92130522788983E-16,2.1,0.));
#605=DIRECTION('',(-1.,0.,0.));
#606=DIRECTION('',(1.,2.42861286636753E-16,0.));
#607=DIRECTION('',(-5.10008701937181E-16,2.1,0.));
#608=DIRECTION('',(-1.,-2.42861286636753E-16,0.));
#609=DIRECTION('',(-1.,-2.34347867994754E-16,0.));
#610=DIRECTION('',(-4.92130522788983E-16,2.1,0.));
#611=DIRECTION('',(-1.,0.,0.));
#612=DIRECTION('',(-1.33370867875225E-16,0.549164791647948,-0.83571408484856));
#613=DIRECTION('',(1.,0.,0.));
#614=DIRECTION('',(0.,0.835714084848556,0.549164791647953));
#615=DIRECTION('',(1.,0.,0.));
#616=DIRECTION('',(1.,2.42861286636753E-16,0.));
#617=DIRECTION('',(9.33596075126578E-16,-3.84415354153565,5.84999859393992));
#618=DIRECTION('',(1.,2.34347867994754E-16,0.));
#619=DIRECTION('',(9.00869186703362E-16,-3.84415354153565,5.84999859393992));
#620=DIRECTION('',(1.,2.42861286636753E-16,0.));
#621=DIRECTION('',(-1.68537765143581E-15,6.9396719204433,-0.917035242840286));
#622=DIRECTION('',(-1.,-2.42861286636753E-16,0.));
#623=DIRECTION('',(1.,2.34347867994754E-16,0.));
#624=DIRECTION('',(-1.62629731913895E-15,6.9396719204433,-0.917035242840286));
#625=DIRECTION('',(1.,2.34347867994754E-16,0.));
#626=DIRECTION('',(1.,0.,0.));
#627=DIRECTION('',(0.,6.44398106898306,-0.851532725494551));
#628=DIRECTION('',(1.,2.42861286636753E-16,0.));
#629=DIRECTION('',(-5.10008701937181E-16,2.1,0.));
#630=DIRECTION('',(1.,2.42861286636753E-16,0.));
#631=DIRECTION('',(-5.10008701937181E-16,2.1,0.));
#632=DIRECTION('',(1.,2.42861286636753E-16,0.));
#633=DIRECTION('',(-5.10008701937181E-16,2.1,0.));
#634=DIRECTION('',(1.,2.42861286636753E-16,0.));
#635=DIRECTION('',(-1.68537765143581E-15,6.9396719204433,-0.917035242840286));
#636=CARTESIAN_POINT('',(-94.5,-0.490011668761342,137.667984361554));
#637=CARTESIAN_POINT('',(-95.,2.97811111530091,139.348667924969));
#638=CARTESIAN_POINT('',(-94.9999999999999,2.97811111530095,139.348667924969));
#639=CARTESIAN_POINT('',(-94.9999999999999,-31.1179828908904,116.943428261799));
#640=CARTESIAN_POINT('',(-95.,-31.1179828908904,116.943428261799));
#641=CARTESIAN_POINT('',(-94.,-31.6671476825383,117.779142346647));
#642=CARTESIAN_POINT('',(-94.,-31.6671476825383,117.779142346647));
#643=CARTESIAN_POINT('',(-94.,1.843773021654,139.799852682986));
#644=CARTESIAN_POINT('',(-95.,2.97811111530091,139.348667924969));
#645=CARTESIAN_POINT('',(-94.5,-27.8229941410027,111.929143752707));
#646=CARTESIAN_POINT('',(-95.,-24.528005391115,106.914859243616));
#647=CARTESIAN_POINT('',(-94.9999999999999,-24.528005391115,106.914859243616));
#648=CARTESIAN_POINT('',(-93.9999999999998,-23.9788405994671,106.079145158767));
#649=CARTESIAN_POINT('',(-94.,-27.8229941410027,111.929143752707));
#650=CARTESIAN_POINT('',(-95.,-27.8229941410027,111.929143752707));
#651=CARTESIAN_POINT('',(-94.5,-10.1063297294341,115.793346090354));
#652=CARTESIAN_POINT('',(-95.,13.0791284270703,131.627274867774));
#653=CARTESIAN_POINT('',(-95.,13.0791284270704,131.627274867774));
#654=CARTESIAN_POINT('',(-93.9999999999999,13.6282932187183,130.791560782925));
#655=CARTESIAN_POINT('',(-94.,13.6282932187182,130.791560782925));
#656=CARTESIAN_POINT('',(-95.,-24.528005391115,106.914859243616));
#657=CARTESIAN_POINT('',(-94.5,9.78413967718255,136.641559376865));
#658=CARTESIAN_POINT('',(-94.6,16.1289825758735,135.80312715484));
#659=CARTESIAN_POINT('',(-94.,16.7238115976258,135.724524134025));
#660=CARTESIAN_POINT('',(-95.,15.7324298947054,135.855529168716));
#661=CARTESIAN_POINT('',(-95.,9.78413967718255,136.641559376865));
#662=CARTESIAN_POINT('',(-95.,15.6229783533899,138.022849684232));
#663=CARTESIAN_POINT('',(-95.,15.6229783533899,138.022849684232));
#664=CARTESIAN_POINT('',(-94.,16.5961181327577,138.25306473546));
#665=CARTESIAN_POINT('',(-94.,9.78413967718255,136.641559376865));
#666=CARTESIAN_POINT('',(-94.5,14.6789552338121,144.185202852445));
#667=CARTESIAN_POINT('',(-95.,5.83883867620729,179.381290307367));
#668=CARTESIAN_POINT('',(-95.,5.83883867620729,179.381290307367));
#669=CARTESIAN_POINT('',(-94.,6.81197845557515,179.611505358595));
#670=CARTESIAN_POINT('',(-94.,6.81197845557517,179.611505358595));
#671=CARTESIAN_POINT('',(-95.,15.6229783533899,138.022849684232));
#672=CARTESIAN_POINT('',(-94.5,3.49102100713543E-15,178.));
#673=CARTESIAN_POINT('',(-95.,-5.83883867620727,176.618709692633));
#674=CARTESIAN_POINT('',(-95.,-5.83883867620725,176.618709692633));
#675=CARTESIAN_POINT('',(-94.,-6.81197845557513,176.388494641405));
#676=CARTESIAN_POINT('',(-94.,3.60819494113281E-15,178.));
#677=CARTESIAN_POINT('',(-95.,3.37384707313805E-15,178.));
#678=CARTESIAN_POINT('',(-94.5,-2.86393173656166,161.871627498051));
#679=CARTESIAN_POINT('',(-94.,1.84377302165398,139.799852682986));
#680=CARTESIAN_POINT('',(-95.,-5.83883867620727,176.618709692633));
#681=CARTESIAN_POINT('',(-95.,16.5961181327577,138.25306473546));
#682=CARTESIAN_POINT('',(-94.,6.81197845557517,179.611505358595));
#683=CARTESIAN_POINT('',(-87.,6.81197845557516,179.611505358595));
#684=CARTESIAN_POINT('',(-87.,16.5961181327577,138.25306473546));
#685=CARTESIAN_POINT('',(-87.,16.5961181327577,138.25306473546));
#686=CARTESIAN_POINT('',(-94.,16.5961181327577,138.25306473546));
#687=CARTESIAN_POINT('',(-95.,3.36533365449606E-15,178.));
#688=CARTESIAN_POINT('',(-94.,-6.81197845557516,176.388494641405));
#689=CARTESIAN_POINT('',(-87.,-6.81197845557514,176.388494641405));
#690=CARTESIAN_POINT('',(-87.,5.30822394759008E-15,178.));
#691=CARTESIAN_POINT('',(-95.,-6.81197845557517,176.388494641405));
#692=CARTESIAN_POINT('',(-94.,1.84377302165398,139.799852682986));
#693=CARTESIAN_POINT('',(-87.,1.84377302165397,139.799852682986));
#694=CARTESIAN_POINT('',(-87.,-6.81197845557516,176.388494641405));
#695=CARTESIAN_POINT('',(-95.,1.84377302165398,139.799852682986));
#696=CARTESIAN_POINT('',(-94.,-31.6671476825383,117.779142346647));
#697=CARTESIAN_POINT('',(-87.,-31.6671476825383,117.779142346647));
#698=CARTESIAN_POINT('',(-87.,1.84377302165398,139.799852682986));
#699=CARTESIAN_POINT('',(-95.,-9.01942723191005,144.964571876354));
#700=CARTESIAN_POINT('',(-95.,9.78413967718255,136.641559376865));
#701=CARTESIAN_POINT('',(-95.,11.8841396771825,136.641559376865));
#702=CARTESIAN_POINT('',(-95.,7.68413967718255,136.641559376865));
#703=CARTESIAN_POINT('',(-95.,-27.8229941410027,111.929143752707));
#704=CARTESIAN_POINT('',(-95.,-25.7229941410027,111.929143752707));
#705=CARTESIAN_POINT('',(-95.,-29.9229941410027,111.929143752707));
#706=CARTESIAN_POINT('',(-95.,3.36533365449606E-15,178.));
#707=CARTESIAN_POINT('',(-95.,2.1,178.));
#708=CARTESIAN_POINT('',(-95.,-2.1,178.));
#709=CARTESIAN_POINT('',(-95.,9.78413967718255,136.641559376865));
#710=CARTESIAN_POINT('',(-87.,11.8841396771826,136.641559376865));
#711=CARTESIAN_POINT('',(-87.,11.8841396771825,136.641559376865));
#712=CARTESIAN_POINT('',(-87.,9.78413967718255,136.641559376865));
#713=CARTESIAN_POINT('',(-87.,7.68413967718256,136.641559376865));
#714=CARTESIAN_POINT('',(-87.,7.68413967718256,136.641559376865));
#715=CARTESIAN_POINT('',(-95.,-27.8229941410027,111.929143752707));
#716=CARTESIAN_POINT('',(-87.,-25.7229941410027,111.929143752707));
#717=CARTESIAN_POINT('',(-87.,-25.7229941410027,111.929143752707));
#718=CARTESIAN_POINT('',(-87.,-27.8229941410027,111.929143752707));
#719=CARTESIAN_POINT('',(-87.,-29.9229941410027,111.929143752707));
#720=CARTESIAN_POINT('',(-87.,-29.9229941410027,111.929143752707));
#721=CARTESIAN_POINT('',(-95.,3.36533365449606E-15,178.));
#722=CARTESIAN_POINT('',(-87.,2.10000000000001,178.));
#723=CARTESIAN_POINT('',(-87.,2.1,178.));
#724=CARTESIAN_POINT('',(-87.,5.30822394759008E-15,178.));
#725=CARTESIAN_POINT('',(-87.,-2.1,178.));
#726=CARTESIAN_POINT('',(-87.,-2.1,178.));
#727=CARTESIAN_POINT('',(-95.,-23.978840599467,106.079145158767));
#728=CARTESIAN_POINT('',(-94.,13.6282932187182,130.791560782925));
#729=CARTESIAN_POINT('',(-87.,13.6282932187183,130.791560782925));
#730=CARTESIAN_POINT('',(-87.,-23.978840599467,106.079145158767));
#731=CARTESIAN_POINT('',(-87.,-23.978840599467,106.079145158767));
#732=CARTESIAN_POINT('',(-94.,-23.978840599467,106.079145158767));
#733=CARTESIAN_POINT('',(-95.,-27.8229941410027,111.929143752707));
#734=CARTESIAN_POINT('',(-87.,-27.8229941410027,111.929143752707));
#735=CARTESIAN_POINT('',(-95.,9.78413967718255,136.641559376865));
#736=CARTESIAN_POINT('',(-86.,16.7238115976259,135.724524134025));
#737=CARTESIAN_POINT('',(-87.,16.7238115976258,135.724524134025));
#738=CARTESIAN_POINT('',(-87.,9.78413967718255,136.641559376865));
#739=CARTESIAN_POINT('',(-87.,-9.01942723191005,144.964571876354));
#740=CARTESIAN_POINT('',(-94.5,9.78413967718255,136.641559376865));
#741=CARTESIAN_POINT('',(-95.,9.78413967718255,136.641559376865));
#742=CARTESIAN_POINT('',(-95.,-27.8229941410027,111.929143752707));
#743=CARTESIAN_POINT('',(-95.,3.36533365449606E-15,178.));
#744=CARTESIAN_POINT('',(-95.,9.78413967718255,136.641559376865));
#745=PLANE('',#495);
#746=PLANE('',#499);
#747=PLANE('',#503);
#748=PLANE('',#507);
#749=PLANE('',#508);
#750=PLANE('',#511);
#751=PLANE('',#512);
#752=PLANE('',#513);
#753=PLANE('',#523);
#754=PLANE('',#528);
#755=CLOSED_SHELL('',(#471,#472,#473,#474,#475,#476,#477,#478,#479,#480,
#481,#482,#483,#484,#485,#486,#487,#488,#489,#490,#491,#492,#493,#494));
#756=MANIFOLD_SOLID_BREP('',#755);
#757=ADVANCED_BREP_SHAPE_REPRESENTATION('',(#756),#103);
ENDSEC;
END-ISO-10303-21;
