ISO-10303-21;
HEADER;
/* Generated by software containing ST-Developer
 * from STEP Tools, Inc. (www.steptools.com) 
 */

FILE_DESCRIPTION(
/* description */ ('Alibre Inc.'),
/* implementation_level */ '2;1');

FILE_NAME(
/* name */ 'export-3A381A3C-D75F-4EB9-9E53-7F6471DF5694',
/* time_stamp */ '2026-10-02T12:38:37+02:00',
/* author */ (''),
/* organization */ (''),
/* preprocessor_version */ 'ST-DEVELOPER v17',
/* originating_system */ 'Alibre',
/* authorisation */ '');

FILE_SCHEMA (('CONFIG_CONTROL_DESIGN'));
ENDSEC;

DATA;
#10=MECHANICAL_CONTEXT('detailed design',#18,'mechanical');
#11=PRODUCT_RELATED_PRODUCT_CATEGORY('detail','',(#98));
#12=CC_DESIGN_SECURITY_CLASSIFICATION(#14,(#97));
#13=SECURITY_CLASSIFICATION_LEVEL('unclassified');
#14=SECURITY_CLASSIFICATION('name','Security for version',#13);
#15=SHAPE_DEFINITION_REPRESENTATION(#16,#944);
#16=PRODUCT_DEFINITION_SHAPE('','DefinitionDesc',#96);
#17=APPLICATION_PROTOCOL_DEFINITION('AP definition status',
'config_control_design',1994,#18);
#18=APPLICATION_CONTEXT(
'control the configuration of three dimensional design');
#19=DESIGN_CONTEXT('detailed design',#18,'design');
#20=PERSON_AND_ORGANIZATION_ROLE('creator');
#21=PERSON_AND_ORGANIZATION_ROLE('classification_officer');
#22=PERSON_AND_ORGANIZATION_ROLE('creator');
#23=PERSON_AND_ORGANIZATION_ROLE('design_supplier');
#24=PERSON_AND_ORGANIZATION_ROLE('design_owner');
#25=CC_DESIGN_PERSON_AND_ORGANIZATION_ASSIGNMENT(#57,#20,(#96));
#26=CC_DESIGN_PERSON_AND_ORGANIZATION_ASSIGNMENT(#60,#21,(#14));
#27=CC_DESIGN_PERSON_AND_ORGANIZATION_ASSIGNMENT(#61,#22,(#97));
#28=CC_DESIGN_PERSON_AND_ORGANIZATION_ASSIGNMENT(#62,#23,(#97));
#29=CC_DESIGN_PERSON_AND_ORGANIZATION_ASSIGNMENT(#63,#24,(#98));
#30=DATE_TIME_ROLE('creation_date');
#31=DATE_TIME_ROLE('classification_date');
#32=CC_DESIGN_DATE_AND_TIME_ASSIGNMENT(#86,#30,(#96));
#33=CC_DESIGN_DATE_AND_TIME_ASSIGNMENT(#89,#31,(#14));
#34=CC_DESIGN_APPROVAL(#93,(#96));
#35=CC_DESIGN_APPROVAL(#94,(#97));
#36=CC_DESIGN_APPROVAL(#95,(#14));
#37=APPROVAL_PERSON_ORGANIZATION(#56,#93,#64);
#38=APPROVAL_PERSON_ORGANIZATION(#58,#94,#65);
#39=APPROVAL_PERSON_ORGANIZATION(#59,#95,#66);
#40=ORGANIZATION('DEFINITION_APPROVEDBY_ORG_ID',
'DEFINITION_APPROVEDBY_ORG_NAME','DEFINITION_APPROVEDBY_ORG_DESCR');
#41=ORGANIZATION('DEF_CREATOR_ORG_ID','DEF_CREATOR_ORG_NAME',
'DEF_CREATOR_ORG_DESCR');
#42=ORGANIZATION('APPROVEDBY_ORG_ID','APPROVEDBY_ORG_NAME',
'APPROVEDBY_ORG_DESCR');
#43=ORGANIZATION('SECURITY_APPROVEDBY_ORG_ID',
'SECURITY_APPROVEDBY_ORG_NAME','SECURITY_APPROVEDBY_ORG_DESCR');
#44=ORGANIZATION('CLASSOFFICER_ORG_ID','CLASSOFFICER_ORG_NAME',
'CLASSOFFICER_ORG_DESCR');
#45=ORGANIZATION('CREATOR_ORG_ID','CREATOR_ORG_NAME',
'CREATOR_ORG_DESCR');
#46=ORGANIZATION('SUPPLIER_ORG_ID','SUPPLIER_ORG_NAME',
'SUPPLIER_ORG_DESCR');
#47=ORGANIZATION('OWNER_ORG_ID','OWNER_ORG_NAME','OWNER_ORG_DESCR');
#48=PERSON('DEFINITION_approverID','DEFINITION_APPROVEDBY_LASTNAME',
'DEFINITION_APPROVEDBY_FIRSTNAME',$,$,$);
#49=PERSON('DEF_createrID','DEF_CREATOR_LASTNAME',
'DEF_CREATOR_FIRSTNAME',$,$,$);
#50=PERSON('approverID','APPROVEDBY_LASTNAME','APPROVEDBY_FIRSTNAME',$,
$,$);
#51=PERSON('SECURITY_approverID','SECURITY_LASTNAME',
'SECURITY_APPROVEDBY_FIRSTNAME',$,$,$);
#52=PERSON('classifierID','CLASSOFFICER_LASTNAME',
'CLASSOFFICER_FIRSTNAME',$,$,$);
#53=PERSON('createrID','CREATOR_LASTNAME','CREATOR_FIRSTNAME',$,$,$);
#54=PERSON('supplierID','SUPPLIER_LASTNAME','SUPPLIER_FIRSTNAME',$,$,$);
#55=PERSON('ownerID','OWNER_LASTNAME','OWNER_FIRSTNAME',$,$,$);
#56=PERSON_AND_ORGANIZATION(#48,#40);
#57=PERSON_AND_ORGANIZATION(#49,#41);
#58=PERSON_AND_ORGANIZATION(#50,#42);
#59=PERSON_AND_ORGANIZATION(#51,#43);
#60=PERSON_AND_ORGANIZATION(#52,#44);
#61=PERSON_AND_ORGANIZATION(#53,#45);
#62=PERSON_AND_ORGANIZATION(#54,#46);
#63=PERSON_AND_ORGANIZATION(#55,#47);
#64=APPROVAL_ROLE('definition_approval');
#65=APPROVAL_ROLE('version_approval');
#66=APPROVAL_ROLE('security_approval');
#67=APPROVAL_DATE_TIME(#85,#93);
#68=APPROVAL_DATE_TIME(#87,#94);
#69=APPROVAL_DATE_TIME(#88,#95);
#70=COORDINATED_UNIVERSAL_TIME_OFFSET(1,0,.AHEAD.);
#71=COORDINATED_UNIVERSAL_TIME_OFFSET(1,0,.AHEAD.);
#72=COORDINATED_UNIVERSAL_TIME_OFFSET(1,0,.AHEAD.);
#73=COORDINATED_UNIVERSAL_TIME_OFFSET(1,0,.AHEAD.);
#74=COORDINATED_UNIVERSAL_TIME_OFFSET(1,0,.AHEAD.);
#75=LOCAL_TIME(14,22,14.,#70);
#76=LOCAL_TIME(14,22,14.,#71);
#77=LOCAL_TIME(14,22,14.,#72);
#78=LOCAL_TIME(14,22,14.,#73);
#79=LOCAL_TIME(14,22,14.,#74);
#80=CALENDAR_DATE(2026,20,3);
#81=CALENDAR_DATE(2026,20,3);
#82=CALENDAR_DATE(2026,20,3);
#83=CALENDAR_DATE(2026,20,3);
#84=CALENDAR_DATE(2026,20,3);
#85=DATE_AND_TIME(#80,#75);
#86=DATE_AND_TIME(#81,#76);
#87=DATE_AND_TIME(#82,#77);
#88=DATE_AND_TIME(#83,#78);
#89=DATE_AND_TIME(#84,#79);
#90=APPROVAL_STATUS('not_yet_approved');
#91=APPROVAL_STATUS('not_yet_approved');
#92=APPROVAL_STATUS('not_yet_approved');
#93=APPROVAL(#90,'defintion approval');
#94=APPROVAL(#91,'version approval');
#95=APPROVAL(#92,'security approval');
#96=PRODUCT_DEFINITION('DefinitionID','DefinitionDesc',#97,#19);
#97=PRODUCT_DEFINITION_FORMATION_WITH_SPECIFIED_SOURCE(
'PRODUCT_VERSION_ID','PRODUCT_VERSION_DESCR',#98,.NOT_KNOWN.);
#98=PRODUCT('upper arm right','upper arm right','',(#10));
#99=(
LENGTH_UNIT()
NAMED_UNIT(*)
SI_UNIT(.MILLI.,.METRE.)
);
#100=(
NAMED_UNIT(*)
PLANE_ANGLE_UNIT()
SI_UNIT($,.RADIAN.)
);
#101=(
NAMED_UNIT(*)
SI_UNIT($,.STERADIAN.)
SOLID_ANGLE_UNIT()
);
#102=UNCERTAINTY_MEASURE_WITH_UNIT(LENGTH_MEASURE(1.E-6),#99,
'DISTANCE_ACCURACY_VALUE',
'Maximum model space distance between geometric entities at asserted c
onnectivities');
#103=(
GEOMETRIC_REPRESENTATION_CONTEXT(3)
GLOBAL_UNCERTAINTY_ASSIGNED_CONTEXT((#102))
GLOBAL_UNIT_ASSIGNED_CONTEXT((#101,#100,#99))
REPRESENTATION_CONTEXT('ID1','3D')
);
#104=CYLINDRICAL_SURFACE('',#619,7.00000000000002);
#105=CYLINDRICAL_SURFACE('',#622,7.00000000000001);
#106=CYLINDRICAL_SURFACE('',#641,7.);
#107=CYLINDRICAL_SURFACE('',#647,2.1);
#108=CYLINDRICAL_SURFACE('',#648,2.1);
#109=CYLINDRICAL_SURFACE('',#649,2.1);
#110=CYLINDRICAL_SURFACE('',#651,7.00000000000002);
#111=CYLINDRICAL_SURFACE('',#653,2.1);
#112=CYLINDRICAL_SURFACE('',#654,2.1);
#113=CYLINDRICAL_SURFACE('',#655,2.1);
#114=CIRCLE('',#608,6.00000000000001);
#115=CIRCLE('',#609,7.00000000000001);
#116=CIRCLE('',#612,6.00000000000002);
#117=CIRCLE('',#613,7.00000000000002);
#118=CIRCLE('',#616,5.99999999999999);
#119=CIRCLE('',#617,7.);
#120=CIRCLE('',#620,7.00000000000002);
#121=CIRCLE('',#623,7.00000000000001);
#122=CIRCLE('',#626,2.1);
#123=CIRCLE('',#627,2.1);
#124=CIRCLE('',#628,2.1);
#125=CIRCLE('',#631,6.00000000000001);
#126=CIRCLE('',#634,6.00000000000002);
#127=CIRCLE('',#637,7.);
#128=CIRCLE('',#638,5.99999999999999);
#129=CIRCLE('',#644,2.1);
#130=CIRCLE('',#645,2.1);
#131=CIRCLE('',#646,2.1);
#132=CONICAL_SURFACE('',#607,6.50000000000001,0.785398163397453);
#133=CONICAL_SURFACE('',#611,6.50000000000002,0.785398163397448);
#134=CONICAL_SURFACE('',#615,6.49999999999999,0.785398163397454);
#135=CONICAL_SURFACE('',#630,6.50000000000001,0.785398163397452);
#136=CONICAL_SURFACE('',#633,6.50000000000002,0.785398163397448);
#137=CONICAL_SURFACE('',#636,6.49999999999999,0.785398163397455);
#138=CONICAL_SURFACE('',#650,6.50000000000002,0.785398163397448);
#139=CONICAL_SURFACE('',#652,6.50000000000002,0.785398163397448);
#140=VERTEX_POINT('',#790);
#141=VERTEX_POINT('',#791);
#142=VERTEX_POINT('',#793);
#143=VERTEX_POINT('',#795);
#144=VERTEX_POINT('',#799);
#145=VERTEX_POINT('',#800);
#146=VERTEX_POINT('',#805);
#147=VERTEX_POINT('',#806);
#148=VERTEX_POINT('',#811);
#149=VERTEX_POINT('',#812);
#150=VERTEX_POINT('',#817);
#151=VERTEX_POINT('',#818);
#152=VERTEX_POINT('',#820);
#153=VERTEX_POINT('',#822);
#154=VERTEX_POINT('',#826);
#155=VERTEX_POINT('',#827);
#156=VERTEX_POINT('',#835);
#157=VERTEX_POINT('',#837);
#158=VERTEX_POINT('',#841);
#159=VERTEX_POINT('',#843);
#160=VERTEX_POINT('',#847);
#161=VERTEX_POINT('',#851);
#162=VERTEX_POINT('',#855);
#163=VERTEX_POINT('',#856);
#164=VERTEX_POINT('',#858);
#165=VERTEX_POINT('',#859);
#166=VERTEX_POINT('',#861);
#167=VERTEX_POINT('',#862);
#168=VERTEX_POINT('',#865);
#169=VERTEX_POINT('',#866);
#170=VERTEX_POINT('',#871);
#171=VERTEX_POINT('',#875);
#172=VERTEX_POINT('',#879);
#173=VERTEX_POINT('',#881);
#174=VERTEX_POINT('',#885);
#175=VERTEX_POINT('',#886);
#176=VERTEX_POINT('',#891);
#177=VERTEX_POINT('',#892);
#178=VERTEX_POINT('',#905);
#179=VERTEX_POINT('',#906);
#180=VERTEX_POINT('',#908);
#181=VERTEX_POINT('',#909);
#182=VERTEX_POINT('',#911);
#183=VERTEX_POINT('',#912);
#184=VECTOR('',#657,1.);
#185=VECTOR('',#658,1.);
#186=VECTOR('',#659,1.);
#187=VECTOR('',#660,1.);
#188=VECTOR('',#663,1.);
#189=VECTOR('',#669,1.);
#190=VECTOR('',#670,1.);
#191=VECTOR('',#671,1.);
#192=VECTOR('',#674,1.);
#193=VECTOR('',#680,1.);
#194=VECTOR('',#681,1.);
#195=VECTOR('',#682,1.);
#196=VECTOR('',#683,1.);
#197=VECTOR('',#686,1.);
#198=VECTOR('',#692,1.);
#199=VECTOR('',#693,1.);
#200=VECTOR('',#696,1.);
#201=VECTOR('',#699,1.);
#202=VECTOR('',#701,1.);
#203=VECTOR('',#702,1.);
#204=VECTOR('',#703,1.);
#205=VECTOR('',#706,1.);
#206=VECTOR('',#710,1.);
#207=VECTOR('',#711,1.);
#208=VECTOR('',#720,1.);
#209=VECTOR('',#721,1.);
#210=VECTOR('',#722,1.);
#211=VECTOR('',#725,1.);
#212=VECTOR('',#729,1.);
#213=VECTOR('',#730,1.);
#214=VECTOR('',#733,1.);
#215=VECTOR('',#736,1.);
#216=VECTOR('',#738,1.);
#217=VECTOR('',#739,1.);
#218=VECTOR('',#740,1.);
#219=VECTOR('',#743,1.);
#220=VECTOR('',#749,1.);
#221=VECTOR('',#750,1.);
#222=VECTOR('',#752,1.);
#223=VECTOR('',#755,1.);
#224=VECTOR('',#766,1.);
#225=VECTOR('',#767,1.);
#226=VECTOR('',#770,1.);
#227=VECTOR('',#771,1.);
#228=VECTOR('',#774,1.);
#229=VECTOR('',#775,1.);
#230=LINE('',#789,#184);
#231=LINE('',#792,#185);
#232=LINE('',#794,#186);
#233=LINE('',#796,#187);
#234=LINE('',#798,#188);
#235=LINE('',#804,#189);
#236=LINE('',#807,#190);
#237=LINE('',#808,#191);
#238=LINE('',#810,#192);
#239=LINE('',#816,#193);
#240=LINE('',#819,#194);
#241=LINE('',#821,#195);
#242=LINE('',#823,#196);
#243=LINE('',#825,#197);
#244=LINE('',#831,#198);
#245=LINE('',#832,#199);
#246=LINE('',#834,#200);
#247=LINE('',#838,#201);
#248=LINE('',#840,#202);
#249=LINE('',#842,#203);
#250=LINE('',#844,#204);
#251=LINE('',#846,#205);
#252=LINE('',#850,#206);
#253=LINE('',#852,#207);
#254=LINE('',#864,#208);
#255=LINE('',#867,#209);
#256=LINE('',#868,#210);
#257=LINE('',#870,#211);
#258=LINE('',#874,#212);
#259=LINE('',#876,#213);
#260=LINE('',#878,#214);
#261=LINE('',#882,#215);
#262=LINE('',#884,#216);
#263=LINE('',#887,#217);
#264=LINE('',#888,#218);
#265=LINE('',#890,#219);
#266=LINE('',#896,#220);
#267=LINE('',#897,#221);
#268=LINE('',#899,#222);
#269=LINE('',#901,#223);
#270=LINE('',#914,#224);
#271=LINE('',#915,#225);
#272=LINE('',#917,#226);
#273=LINE('',#918,#227);
#274=LINE('',#920,#228);
#275=LINE('',#921,#229);
#276=EDGE_CURVE('',#140,#141,#230,.T.);
#277=EDGE_CURVE('',#141,#142,#231,.T.);
#278=EDGE_CURVE('',#142,#143,#232,.T.);
#279=EDGE_CURVE('',#143,#140,#233,.T.);
#280=EDGE_CURVE('',#144,#145,#234,.T.);
#281=EDGE_CURVE('',#145,#142,#114,.T.);
#282=EDGE_CURVE('',#141,#144,#115,.T.);
#283=EDGE_CURVE('',#146,#147,#235,.T.);
#284=EDGE_CURVE('',#147,#145,#236,.T.);
#285=EDGE_CURVE('',#144,#146,#237,.T.);
#286=EDGE_CURVE('',#148,#149,#238,.T.);
#287=EDGE_CURVE('',#149,#147,#116,.T.);
#288=EDGE_CURVE('',#146,#148,#117,.T.);
#289=EDGE_CURVE('',#150,#151,#239,.T.);
#290=EDGE_CURVE('',#151,#152,#240,.T.);
#291=EDGE_CURVE('',#153,#152,#241,.T.);
#292=EDGE_CURVE('',#153,#150,#242,.T.);
#293=EDGE_CURVE('',#154,#155,#243,.T.);
#294=EDGE_CURVE('',#155,#151,#118,.T.);
#295=EDGE_CURVE('',#150,#154,#119,.T.);
#296=EDGE_CURVE('',#143,#155,#244,.T.);
#297=EDGE_CURVE('',#154,#140,#245,.T.);
#298=EDGE_CURVE('',#148,#156,#246,.T.);
#299=EDGE_CURVE('',#157,#156,#120,.T.);
#300=EDGE_CURVE('',#153,#157,#247,.T.);
#301=EDGE_CURVE('',#148,#153,#117,.T.);
#302=EDGE_CURVE('',#144,#158,#248,.T.);
#303=EDGE_CURVE('',#159,#158,#249,.T.);
#304=EDGE_CURVE('',#146,#159,#250,.T.);
#305=EDGE_CURVE('',#141,#160,#251,.T.);
#306=EDGE_CURVE('',#158,#160,#121,.T.);
#307=EDGE_CURVE('',#140,#161,#252,.T.);
#308=EDGE_CURVE('',#160,#161,#253,.T.);
#309=EDGE_CURVE('',#152,#149,#116,.T.);
#310=EDGE_CURVE('',#162,#163,#122,.T.);
#311=EDGE_CURVE('',#163,#162,#122,.T.);
#312=EDGE_CURVE('',#164,#165,#123,.T.);
#313=EDGE_CURVE('',#165,#164,#123,.T.);
#314=EDGE_CURVE('',#166,#167,#124,.T.);
#315=EDGE_CURVE('',#167,#166,#124,.T.);
#316=EDGE_CURVE('',#168,#169,#254,.T.);
#317=EDGE_CURVE('',#169,#160,#255,.T.);
#318=EDGE_CURVE('',#168,#161,#256,.T.);
#319=EDGE_CURVE('',#170,#158,#257,.T.);
#320=EDGE_CURVE('',#169,#170,#125,.T.);
#321=EDGE_CURVE('',#171,#159,#258,.T.);
#322=EDGE_CURVE('',#170,#171,#259,.T.);
#323=EDGE_CURVE('',#156,#172,#260,.T.);
#324=EDGE_CURVE('',#172,#173,#126,.T.);
#325=EDGE_CURVE('',#173,#157,#261,.T.);
#326=EDGE_CURVE('',#174,#175,#262,.T.);
#327=EDGE_CURVE('',#175,#157,#263,.T.);
#328=EDGE_CURVE('',#173,#174,#264,.T.);
#329=EDGE_CURVE('',#176,#177,#265,.T.);
#330=EDGE_CURVE('',#177,#175,#127,.T.);
#331=EDGE_CURVE('',#174,#176,#128,.T.);
#332=EDGE_CURVE('',#161,#177,#266,.T.);
#333=EDGE_CURVE('',#176,#168,#267,.T.);
#334=EDGE_CURVE('',#150,#175,#268,.T.);
#335=EDGE_CURVE('',#154,#177,#269,.T.);
#336=EDGE_CURVE('',#171,#172,#126,.T.);
#337=EDGE_CURVE('',#178,#179,#129,.T.);
#338=EDGE_CURVE('',#179,#178,#129,.T.);
#339=EDGE_CURVE('',#180,#181,#130,.T.);
#340=EDGE_CURVE('',#181,#180,#130,.T.);
#341=EDGE_CURVE('',#182,#183,#131,.T.);
#342=EDGE_CURVE('',#183,#182,#131,.T.);
#343=EDGE_CURVE('',#163,#178,#270,.T.);
#344=EDGE_CURVE('',#179,#162,#271,.T.);
#345=EDGE_CURVE('',#165,#180,#272,.T.);
#346=EDGE_CURVE('',#181,#164,#273,.T.);
#347=EDGE_CURVE('',#167,#182,#274,.T.);
#348=EDGE_CURVE('',#183,#166,#275,.T.);
#349=EDGE_CURVE('',#156,#159,#120,.T.);
#350=ORIENTED_EDGE('',*,*,#276,.T.);
#351=ORIENTED_EDGE('',*,*,#277,.T.);
#352=ORIENTED_EDGE('',*,*,#278,.T.);
#353=ORIENTED_EDGE('',*,*,#279,.T.);
#354=ORIENTED_EDGE('',*,*,#280,.T.);
#355=ORIENTED_EDGE('',*,*,#281,.T.);
#356=ORIENTED_EDGE('',*,*,#277,.F.);
#357=ORIENTED_EDGE('',*,*,#282,.T.);
#358=ORIENTED_EDGE('',*,*,#283,.T.);
#359=ORIENTED_EDGE('',*,*,#284,.T.);
#360=ORIENTED_EDGE('',*,*,#280,.F.);
#361=ORIENTED_EDGE('',*,*,#285,.T.);
#362=ORIENTED_EDGE('',*,*,#286,.T.);
#363=ORIENTED_EDGE('',*,*,#287,.T.);
#364=ORIENTED_EDGE('',*,*,#283,.F.);
#365=ORIENTED_EDGE('',*,*,#288,.T.);
#366=ORIENTED_EDGE('',*,*,#289,.T.);
#367=ORIENTED_EDGE('',*,*,#290,.T.);
#368=ORIENTED_EDGE('',*,*,#291,.F.);
#369=ORIENTED_EDGE('',*,*,#292,.T.);
#370=ORIENTED_EDGE('',*,*,#293,.T.);
#371=ORIENTED_EDGE('',*,*,#294,.T.);
#372=ORIENTED_EDGE('',*,*,#289,.F.);
#373=ORIENTED_EDGE('',*,*,#295,.T.);
#374=ORIENTED_EDGE('',*,*,#296,.T.);
#375=ORIENTED_EDGE('',*,*,#293,.F.);
#376=ORIENTED_EDGE('',*,*,#297,.T.);
#377=ORIENTED_EDGE('',*,*,#279,.F.);
#378=ORIENTED_EDGE('',*,*,#298,.T.);
#379=ORIENTED_EDGE('',*,*,#299,.F.);
#380=ORIENTED_EDGE('',*,*,#300,.F.);
#381=ORIENTED_EDGE('',*,*,#301,.F.);
#382=ORIENTED_EDGE('',*,*,#285,.F.);
#383=ORIENTED_EDGE('',*,*,#302,.T.);
#384=ORIENTED_EDGE('',*,*,#303,.F.);
#385=ORIENTED_EDGE('',*,*,#304,.F.);
#386=ORIENTED_EDGE('',*,*,#282,.F.);
#387=ORIENTED_EDGE('',*,*,#305,.T.);
#388=ORIENTED_EDGE('',*,*,#306,.F.);
#389=ORIENTED_EDGE('',*,*,#302,.F.);
#390=ORIENTED_EDGE('',*,*,#276,.F.);
#391=ORIENTED_EDGE('',*,*,#307,.T.);
#392=ORIENTED_EDGE('',*,*,#308,.F.);
#393=ORIENTED_EDGE('',*,*,#305,.F.);
#394=ORIENTED_EDGE('',*,*,#278,.F.);
#395=ORIENTED_EDGE('',*,*,#281,.F.);
#396=ORIENTED_EDGE('',*,*,#284,.F.);
#397=ORIENTED_EDGE('',*,*,#287,.F.);
#398=ORIENTED_EDGE('',*,*,#309,.F.);
#399=ORIENTED_EDGE('',*,*,#290,.F.);
#400=ORIENTED_EDGE('',*,*,#294,.F.);
#401=ORIENTED_EDGE('',*,*,#296,.F.);
#402=ORIENTED_EDGE('',*,*,#310,.T.);
#403=ORIENTED_EDGE('',*,*,#311,.T.);
#404=ORIENTED_EDGE('',*,*,#312,.T.);
#405=ORIENTED_EDGE('',*,*,#313,.T.);
#406=ORIENTED_EDGE('',*,*,#314,.T.);
#407=ORIENTED_EDGE('',*,*,#315,.T.);
#408=ORIENTED_EDGE('',*,*,#316,.T.);
#409=ORIENTED_EDGE('',*,*,#317,.T.);
#410=ORIENTED_EDGE('',*,*,#308,.T.);
#411=ORIENTED_EDGE('',*,*,#318,.F.);
#412=ORIENTED_EDGE('',*,*,#319,.T.);
#413=ORIENTED_EDGE('',*,*,#306,.T.);
#414=ORIENTED_EDGE('',*,*,#317,.F.);
#415=ORIENTED_EDGE('',*,*,#320,.T.);
#416=ORIENTED_EDGE('',*,*,#321,.T.);
#417=ORIENTED_EDGE('',*,*,#303,.T.);
#418=ORIENTED_EDGE('',*,*,#319,.F.);
#419=ORIENTED_EDGE('',*,*,#322,.T.);
#420=ORIENTED_EDGE('',*,*,#323,.T.);
#421=ORIENTED_EDGE('',*,*,#324,.T.);
#422=ORIENTED_EDGE('',*,*,#325,.T.);
#423=ORIENTED_EDGE('',*,*,#299,.T.);
#424=ORIENTED_EDGE('',*,*,#326,.T.);
#425=ORIENTED_EDGE('',*,*,#327,.T.);
#426=ORIENTED_EDGE('',*,*,#325,.F.);
#427=ORIENTED_EDGE('',*,*,#328,.T.);
#428=ORIENTED_EDGE('',*,*,#329,.T.);
#429=ORIENTED_EDGE('',*,*,#330,.T.);
#430=ORIENTED_EDGE('',*,*,#326,.F.);
#431=ORIENTED_EDGE('',*,*,#331,.T.);
#432=ORIENTED_EDGE('',*,*,#332,.T.);
#433=ORIENTED_EDGE('',*,*,#329,.F.);
#434=ORIENTED_EDGE('',*,*,#333,.T.);
#435=ORIENTED_EDGE('',*,*,#318,.T.);
#436=ORIENTED_EDGE('',*,*,#292,.F.);
#437=ORIENTED_EDGE('',*,*,#300,.T.);
#438=ORIENTED_EDGE('',*,*,#327,.F.);
#439=ORIENTED_EDGE('',*,*,#334,.F.);
#440=ORIENTED_EDGE('',*,*,#295,.F.);
#441=ORIENTED_EDGE('',*,*,#334,.T.);
#442=ORIENTED_EDGE('',*,*,#330,.F.);
#443=ORIENTED_EDGE('',*,*,#335,.F.);
#444=ORIENTED_EDGE('',*,*,#297,.F.);
#445=ORIENTED_EDGE('',*,*,#335,.T.);
#446=ORIENTED_EDGE('',*,*,#332,.F.);
#447=ORIENTED_EDGE('',*,*,#307,.F.);
#448=ORIENTED_EDGE('',*,*,#316,.F.);
#449=ORIENTED_EDGE('',*,*,#333,.F.);
#450=ORIENTED_EDGE('',*,*,#331,.F.);
#451=ORIENTED_EDGE('',*,*,#328,.F.);
#452=ORIENTED_EDGE('',*,*,#324,.F.);
#453=ORIENTED_EDGE('',*,*,#336,.F.);
#454=ORIENTED_EDGE('',*,*,#322,.F.);
#455=ORIENTED_EDGE('',*,*,#320,.F.);
#456=ORIENTED_EDGE('',*,*,#337,.F.);
#457=ORIENTED_EDGE('',*,*,#338,.F.);
#458=ORIENTED_EDGE('',*,*,#339,.F.);
#459=ORIENTED_EDGE('',*,*,#340,.F.);
#460=ORIENTED_EDGE('',*,*,#341,.F.);
#461=ORIENTED_EDGE('',*,*,#342,.F.);
#462=ORIENTED_EDGE('',*,*,#343,.F.);
#463=ORIENTED_EDGE('',*,*,#310,.F.);
#464=ORIENTED_EDGE('',*,*,#344,.F.);
#465=ORIENTED_EDGE('',*,*,#338,.T.);
#466=ORIENTED_EDGE('',*,*,#345,.F.);
#467=ORIENTED_EDGE('',*,*,#312,.F.);
#468=ORIENTED_EDGE('',*,*,#346,.F.);
#469=ORIENTED_EDGE('',*,*,#340,.T.);
#470=ORIENTED_EDGE('',*,*,#347,.F.);
#471=ORIENTED_EDGE('',*,*,#314,.F.);
#472=ORIENTED_EDGE('',*,*,#348,.F.);
#473=ORIENTED_EDGE('',*,*,#342,.T.);
#474=ORIENTED_EDGE('',*,*,#286,.F.);
#475=ORIENTED_EDGE('',*,*,#301,.T.);
#476=ORIENTED_EDGE('',*,*,#291,.T.);
#477=ORIENTED_EDGE('',*,*,#309,.T.);
#478=ORIENTED_EDGE('',*,*,#298,.F.);
#479=ORIENTED_EDGE('',*,*,#288,.F.);
#480=ORIENTED_EDGE('',*,*,#304,.T.);
#481=ORIENTED_EDGE('',*,*,#349,.F.);
#482=ORIENTED_EDGE('',*,*,#323,.F.);
#483=ORIENTED_EDGE('',*,*,#349,.T.);
#484=ORIENTED_EDGE('',*,*,#321,.F.);
#485=ORIENTED_EDGE('',*,*,#336,.T.);
#486=ORIENTED_EDGE('',*,*,#343,.T.);
#487=ORIENTED_EDGE('',*,*,#337,.T.);
#488=ORIENTED_EDGE('',*,*,#344,.T.);
#489=ORIENTED_EDGE('',*,*,#311,.F.);
#490=ORIENTED_EDGE('',*,*,#345,.T.);
#491=ORIENTED_EDGE('',*,*,#339,.T.);
#492=ORIENTED_EDGE('',*,*,#346,.T.);
#493=ORIENTED_EDGE('',*,*,#313,.F.);
#494=ORIENTED_EDGE('',*,*,#347,.T.);
#495=ORIENTED_EDGE('',*,*,#341,.T.);
#496=ORIENTED_EDGE('',*,*,#348,.T.);
#497=ORIENTED_EDGE('',*,*,#315,.F.);
#498=EDGE_LOOP('',(#350,#351,#352,#353));
#499=EDGE_LOOP('',(#354,#355,#356,#357));
#500=EDGE_LOOP('',(#358,#359,#360,#361));
#501=EDGE_LOOP('',(#362,#363,#364,#365));
#502=EDGE_LOOP('',(#366,#367,#368,#369));
#503=EDGE_LOOP('',(#370,#371,#372,#373));
#504=EDGE_LOOP('',(#374,#375,#376,#377));
#505=EDGE_LOOP('',(#378,#379,#380,#381));
#506=EDGE_LOOP('',(#382,#383,#384,#385));
#507=EDGE_LOOP('',(#386,#387,#388,#389));
#508=EDGE_LOOP('',(#390,#391,#392,#393));
#509=EDGE_LOOP('',(#394,#395,#396,#397,#398,#399,#400,#401));
#510=EDGE_LOOP('',(#402,#403));
#511=EDGE_LOOP('',(#404,#405));
#512=EDGE_LOOP('',(#406,#407));
#513=EDGE_LOOP('',(#408,#409,#410,#411));
#514=EDGE_LOOP('',(#412,#413,#414,#415));
#515=EDGE_LOOP('',(#416,#417,#418,#419));
#516=EDGE_LOOP('',(#420,#421,#422,#423));
#517=EDGE_LOOP('',(#424,#425,#426,#427));
#518=EDGE_LOOP('',(#428,#429,#430,#431));
#519=EDGE_LOOP('',(#432,#433,#434,#435));
#520=EDGE_LOOP('',(#436,#437,#438,#439));
#521=EDGE_LOOP('',(#440,#441,#442,#443));
#522=EDGE_LOOP('',(#444,#445,#446,#447));
#523=EDGE_LOOP('',(#448,#449,#450,#451,#452,#453,#454,#455));
#524=EDGE_LOOP('',(#456,#457));
#525=EDGE_LOOP('',(#458,#459));
#526=EDGE_LOOP('',(#460,#461));
#527=EDGE_LOOP('',(#462,#463,#464,#465));
#528=EDGE_LOOP('',(#466,#467,#468,#469));
#529=EDGE_LOOP('',(#470,#471,#472,#473));
#530=EDGE_LOOP('',(#474,#475,#476,#477));
#531=EDGE_LOOP('',(#478,#479,#480,#481));
#532=EDGE_LOOP('',(#482,#483,#484,#485));
#533=EDGE_LOOP('',(#486,#487,#488,#489));
#534=EDGE_LOOP('',(#490,#491,#492,#493));
#535=EDGE_LOOP('',(#494,#495,#496,#497));
#536=FACE_BOUND('',#498,.T.);
#537=FACE_BOUND('',#499,.T.);
#538=FACE_BOUND('',#500,.T.);
#539=FACE_BOUND('',#501,.T.);
#540=FACE_BOUND('',#502,.T.);
#541=FACE_BOUND('',#503,.T.);
#542=FACE_BOUND('',#504,.T.);
#543=FACE_BOUND('',#505,.T.);
#544=FACE_BOUND('',#506,.T.);
#545=FACE_BOUND('',#507,.T.);
#546=FACE_BOUND('',#508,.T.);
#547=FACE_BOUND('',#509,.T.);
#548=FACE_BOUND('',#510,.T.);
#549=FACE_BOUND('',#511,.T.);
#550=FACE_BOUND('',#512,.T.);
#551=FACE_BOUND('',#513,.T.);
#552=FACE_BOUND('',#514,.T.);
#553=FACE_BOUND('',#515,.T.);
#554=FACE_BOUND('',#516,.T.);
#555=FACE_BOUND('',#517,.T.);
#556=FACE_BOUND('',#518,.T.);
#557=FACE_BOUND('',#519,.T.);
#558=FACE_BOUND('',#520,.T.);
#559=FACE_BOUND('',#521,.T.);
#560=FACE_BOUND('',#522,.T.);
#561=FACE_BOUND('',#523,.T.);
#562=FACE_BOUND('',#524,.T.);
#563=FACE_BOUND('',#525,.T.);
#564=FACE_BOUND('',#526,.T.);
#565=FACE_BOUND('',#527,.T.);
#566=FACE_BOUND('',#528,.T.);
#567=FACE_BOUND('',#529,.T.);
#568=FACE_BOUND('',#530,.T.);
#569=FACE_BOUND('',#531,.T.);
#570=FACE_BOUND('',#532,.T.);
#571=FACE_BOUND('',#533,.T.);
#572=FACE_BOUND('',#534,.T.);
#573=FACE_BOUND('',#535,.T.);
#574=ADVANCED_FACE('',(#536),#928,.T.);
#575=ADVANCED_FACE('',(#537),#132,.T.);
#576=ADVANCED_FACE('',(#538),#929,.T.);
#577=ADVANCED_FACE('',(#539),#133,.T.);
#578=ADVANCED_FACE('',(#540),#930,.T.);
#579=ADVANCED_FACE('',(#541),#134,.T.);
#580=ADVANCED_FACE('',(#542),#931,.T.);
#581=ADVANCED_FACE('',(#543),#104,.T.);
#582=ADVANCED_FACE('',(#544),#932,.F.);
#583=ADVANCED_FACE('',(#545),#105,.T.);
#584=ADVANCED_FACE('',(#546),#933,.F.);
#585=ADVANCED_FACE('',(#547,#548,#549,#550),#934,.T.);
#586=ADVANCED_FACE('',(#551),#935,.T.);
#587=ADVANCED_FACE('',(#552),#135,.T.);
#588=ADVANCED_FACE('',(#553),#936,.T.);
#589=ADVANCED_FACE('',(#554),#136,.T.);
#590=ADVANCED_FACE('',(#555),#937,.T.);
#591=ADVANCED_FACE('',(#556),#137,.T.);
#592=ADVANCED_FACE('',(#557),#938,.T.);
#593=ADVANCED_FACE('',(#558),#939,.F.);
#594=ADVANCED_FACE('',(#559),#106,.T.);
#595=ADVANCED_FACE('',(#560),#940,.F.);
#596=ADVANCED_FACE('',(#561,#562,#563,#564),#941,.F.);
#597=ADVANCED_FACE('',(#565),#107,.F.);
#598=ADVANCED_FACE('',(#566),#108,.F.);
#599=ADVANCED_FACE('',(#567),#109,.F.);
#600=ADVANCED_FACE('',(#568),#138,.T.);
#601=ADVANCED_FACE('',(#569),#110,.T.);
#602=ADVANCED_FACE('',(#570),#139,.T.);
#603=ADVANCED_FACE('',(#571),#111,.F.);
#604=ADVANCED_FACE('',(#572),#112,.F.);
#605=ADVANCED_FACE('',(#573),#113,.F.);
#606=AXIS2_PLACEMENT_3D('',#788,#656,$);
#607=AXIS2_PLACEMENT_3D('',#797,#661,#662);
#608=AXIS2_PLACEMENT_3D('',#801,#664,#665);
#609=AXIS2_PLACEMENT_3D('',#802,#666,#667);
#610=AXIS2_PLACEMENT_3D('',#803,#668,$);
#611=AXIS2_PLACEMENT_3D('',#809,#672,#673);
#612=AXIS2_PLACEMENT_3D('',#813,#675,#676);
#613=AXIS2_PLACEMENT_3D('',#814,#677,#678);
#614=AXIS2_PLACEMENT_3D('',#815,#679,$);
#615=AXIS2_PLACEMENT_3D('',#824,#684,#685);
#616=AXIS2_PLACEMENT_3D('',#828,#687,#688);
#617=AXIS2_PLACEMENT_3D('',#829,#689,#690);
#618=AXIS2_PLACEMENT_3D('',#830,#691,$);
#619=AXIS2_PLACEMENT_3D('',#833,#694,#695);
#620=AXIS2_PLACEMENT_3D('',#836,#697,#698);
#621=AXIS2_PLACEMENT_3D('',#839,#700,$);
#622=AXIS2_PLACEMENT_3D('',#845,#704,#705);
#623=AXIS2_PLACEMENT_3D('',#848,#707,#708);
#624=AXIS2_PLACEMENT_3D('',#849,#709,$);
#625=AXIS2_PLACEMENT_3D('',#853,#712,$);
#626=AXIS2_PLACEMENT_3D('',#854,#713,#714);
#627=AXIS2_PLACEMENT_3D('',#857,#715,#716);
#628=AXIS2_PLACEMENT_3D('',#860,#717,#718);
#629=AXIS2_PLACEMENT_3D('',#863,#719,$);
#630=AXIS2_PLACEMENT_3D('',#869,#723,#724);
#631=AXIS2_PLACEMENT_3D('',#872,#726,#727);
#632=AXIS2_PLACEMENT_3D('',#873,#728,$);
#633=AXIS2_PLACEMENT_3D('',#877,#731,#732);
#634=AXIS2_PLACEMENT_3D('',#880,#734,#735);
#635=AXIS2_PLACEMENT_3D('',#883,#737,$);
#636=AXIS2_PLACEMENT_3D('',#889,#741,#742);
#637=AXIS2_PLACEMENT_3D('',#893,#744,#745);
#638=AXIS2_PLACEMENT_3D('',#894,#746,#747);
#639=AXIS2_PLACEMENT_3D('',#895,#748,$);
#640=AXIS2_PLACEMENT_3D('',#898,#751,$);
#641=AXIS2_PLACEMENT_3D('',#900,#753,#754);
#642=AXIS2_PLACEMENT_3D('',#902,#756,$);
#643=AXIS2_PLACEMENT_3D('',#903,#757,$);
#644=AXIS2_PLACEMENT_3D('',#904,#758,#759);
#645=AXIS2_PLACEMENT_3D('',#907,#760,#761);
#646=AXIS2_PLACEMENT_3D('',#910,#762,#763);
#647=AXIS2_PLACEMENT_3D('',#913,#764,#765);
#648=AXIS2_PLACEMENT_3D('',#916,#768,#769);
#649=AXIS2_PLACEMENT_3D('',#919,#772,#773);
#650=AXIS2_PLACEMENT_3D('',#922,#776,#777);
#651=AXIS2_PLACEMENT_3D('',#923,#778,#779);
#652=AXIS2_PLACEMENT_3D('',#924,#780,#781);
#653=AXIS2_PLACEMENT_3D('',#925,#782,#783);
#654=AXIS2_PLACEMENT_3D('',#926,#784,#785);
#655=AXIS2_PLACEMENT_3D('',#927,#786,#787);
#656=DIRECTION('',(0.707106781186553,-0.388318148163158,0.590939096529522));
#657=DIRECTION('',(0.,-0.835714084848558,-0.54916479164795));
#658=DIRECTION('',(0.70710678118672,0.388318148163223,-0.59093909652928));
#659=DIRECTION('',(0.,0.835714084848562,0.549164791647945));
#660=DIRECTION('',(-0.633687274224675,-0.718815614612344,0.285910039479517));
#661=DIRECTION('',(-1.,0.,0.));
#662=DIRECTION('',(0.,-3.56957114571167,5.43214155151564));
#663=DIRECTION('',(0.707106781186411,-0.388318148163123,0.590939096529715));
#664=DIRECTION('',(-1.,2.34347867994754E-16,0.));
#665=DIRECTION('',(-7.72173588602882E-16,-3.2949887498877,5.01428450909136));
#666=DIRECTION('',(1.,-2.34347867994754E-16,0.));
#667=DIRECTION('',(-9.00869186703362E-16,-3.84415354153565,5.84999859393992));
#668=DIRECTION('',(0.707106781186548,0.388318148163161,-0.590939096529526));
#669=DIRECTION('',(0.707106781186407,-0.388318148163121,0.590939096529721));
#670=DIRECTION('',(0.,-0.835714084848556,-0.549164791647953));
#671=DIRECTION('',(0.,0.835714084848556,0.549164791647953));
#672=DIRECTION('',(-1.,0.,0.));
#673=DIRECTION('',(0.,6.44398106898306,-0.851532725494551));
#674=DIRECTION('',(0.707106781186548,-0.70101272487933,0.0926345483999166));
#675=DIRECTION('',(-1.,2.34347867994754E-16,6.16297582203915E-33));
#676=DIRECTION('',(1.39396913069053E-15,5.94829021752283,-0.786030208148817));
#677=DIRECTION('',(1.,-2.34347867994754E-16,-6.16297582203915E-33));
#678=DIRECTION('',(1.62629731913895E-15,6.9396719204433,-0.917035242840286));
#679=DIRECTION('',(0.707106781186555,0.688113737033403,0.162786623854402));
#680=DIRECTION('',(0.707106781186535,-0.688113737033397,-0.162786623854515));
#681=DIRECTION('',(0.,0.230215051227826,-0.973139779367882));
#682=DIRECTION('',(0.707106781186563,-0.688113737033366,-0.162786623854521));
#683=DIRECTION('',(0.,-0.230215051227824,0.973139779367882));
#684=DIRECTION('',(-1.,2.34347867994755E-16,0.));
#685=DIRECTION('',(1.48234601161237E-15,6.32540856589122,1.49639783298089));
#686=DIRECTION('',(0.707106781186531,0.6881137370334,0.162786623854514));
#687=DIRECTION('',(-1.,2.34347867994754E-16,1.84889274661175E-32));
#688=DIRECTION('',(1.36831939533449E-15,5.83883867620728,1.38129030736697));
#689=DIRECTION('',(1.,-2.34347867994754E-16,-3.08148791101958E-32));
#690=DIRECTION('',(1.59637262789024E-15,6.81197845557517,1.6115053585948));
#691=DIRECTION('',(0.707106781186554,-0.688113737033404,-0.162786623854402));
#692=DIRECTION('',(0.,-0.230215051227826,0.973139779367882));
#693=DIRECTION('',(0.,0.230215051227825,-0.973139779367882));
#694=DIRECTION('',(1.,-2.42861286636753E-16,0.));
#695=DIRECTION('',(1.68537765143581E-15,6.9396719204433,-0.917035242840286));
#696=DIRECTION('',(-1.,2.42861286636753E-16,0.));
#697=DIRECTION('',(-1.,2.34347867994754E-16,6.16297582203915E-33));
#698=DIRECTION('',(1.62629731913895E-15,6.9396719204433,-0.917035242840286));
#699=DIRECTION('',(-1.,0.,0.));
#700=DIRECTION('',(-1.33370867875225E-16,-0.549164791647948,0.83571408484856));
#701=DIRECTION('',(-1.,0.,0.));
#702=DIRECTION('',(0.,-0.835714084848556,-0.549164791647953));
#703=DIRECTION('',(-1.,0.,0.));
#704=DIRECTION('',(1.,-2.42861286636753E-16,0.));
#705=DIRECTION('',(-9.33596075126578E-16,-3.84415354153565,5.84999859393992));
#706=DIRECTION('',(-1.,0.,0.));
#707=DIRECTION('',(-1.,2.34347867994754E-16,0.));
#708=DIRECTION('',(-9.00869186703362E-16,-3.84415354153565,5.84999859393992));
#709=DIRECTION('',(1.33370867875225E-16,0.549164791647948,-0.83571408484856));
#710=DIRECTION('',(-1.,0.,0.));
#711=DIRECTION('',(0.,0.835714084848558,0.54916479164795));
#712=DIRECTION('',(1.,-2.34347867994754E-16,0.));
#713=DIRECTION('',(-1.,2.34347867994754E-16,0.));
#714=DIRECTION('',(4.92130522788983E-16,2.1,0.));
#715=DIRECTION('',(-1.,2.34347867994754E-16,0.));
#716=DIRECTION('',(4.92130522788983E-16,2.1,0.));
#717=DIRECTION('',(-1.,2.34347867994754E-16,0.));
#718=DIRECTION('',(4.92130522788983E-16,2.1,0.));
#719=DIRECTION('',(-0.707106781186547,-0.388318148163161,0.590939096529527));
#720=DIRECTION('',(0.,-0.835714084848562,-0.549164791647945));
#721=DIRECTION('',(0.70710678118672,-0.388318148163223,0.59093909652928));
#722=DIRECTION('',(0.633687274224675,-0.718815614612344,0.285910039479517));
#723=DIRECTION('',(1.,0.,0.));
#724=DIRECTION('',(0.,-3.56957114571167,5.43214155151564));
#725=DIRECTION('',(0.707106781186411,0.388318148163123,-0.590939096529715));
#726=DIRECTION('',(1.,-2.34347867994754E-16,0.));
#727=DIRECTION('',(-7.72173588602882E-16,-3.2949887498877,5.01428450909136));
#728=DIRECTION('',(-0.707106781186541,0.388318148163165,-0.590939096529531));
#729=DIRECTION('',(0.707106781186426,0.388318148163061,-0.590939096529738));
#730=DIRECTION('',(0.,0.835714084848557,0.549164791647952));
#731=DIRECTION('',(1.,0.,0.));
#732=DIRECTION('',(0.,6.44398106898306,-0.851532725494551));
#733=DIRECTION('',(-0.707106781186548,-0.70101272487933,0.0926345483999166));
#734=DIRECTION('',(1.,-2.34347867994754E-16,-6.16297582203915E-33));
#735=DIRECTION('',(1.39396913069053E-15,5.94829021752283,-0.786030208148817));
#736=DIRECTION('',(0.707106781186563,0.688113737033366,0.162786623854521));
#737=DIRECTION('',(-0.707106781186549,0.688113737033409,0.162786623854403));
#738=DIRECTION('',(0.707106781186535,0.688113737033397,0.162786623854515));
#739=DIRECTION('',(0.,0.230215051227824,-0.973139779367882));
#740=DIRECTION('',(0.,-0.230215051227826,0.973139779367882));
#741=DIRECTION('',(1.,-2.34347867994754E-16,-6.16297582203915E-33));
#742=DIRECTION('',(1.48234601161236E-15,6.32540856589122,1.49639783298089));
#743=DIRECTION('',(0.707106781186531,-0.6881137370334,-0.162786623854514));
#744=DIRECTION('',(-1.,2.34347867994754E-16,1.23259516440783E-32));
#745=DIRECTION('',(1.59637262789024E-15,6.81197845557517,1.6115053585948));
#746=DIRECTION('',(1.,-2.34347867994754E-16,-1.23259516440783E-32));
#747=DIRECTION('',(1.36831939533449E-15,5.83883867620728,1.38129030736697));
#748=DIRECTION('',(-0.707106781186549,-0.688113737033409,-0.162786623854403));
#749=DIRECTION('',(0.,-0.230215051227825,0.973139779367882));
#750=DIRECTION('',(0.,0.230215051227826,-0.973139779367882));
#751=DIRECTION('',(-2.3633797889469E-16,-0.973139779367882,-0.230215051227825));
#752=DIRECTION('',(-1.,0.,0.));
#753=DIRECTION('',(1.,-2.42861286636753E-16,0.));
#754=DIRECTION('',(1.65436585226283E-15,6.81197845557517,1.6115053585948));
#755=DIRECTION('',(-1.,0.,0.));
#756=DIRECTION('',(2.3633797889469E-16,0.973139779367882,0.230215051227825));
#757=DIRECTION('',(1.,-2.34347867994754E-16,0.));
#758=DIRECTION('',(-1.,2.34347867994754E-16,0.));
#759=DIRECTION('',(4.92130522788983E-16,2.1,0.));
#760=DIRECTION('',(-1.,2.34347867994754E-16,0.));
#761=DIRECTION('',(4.92130522788983E-16,2.1,0.));
#762=DIRECTION('',(-1.,2.34347867994754E-16,0.));
#763=DIRECTION('',(4.92130522788983E-16,2.1,0.));
#764=DIRECTION('',(1.,-2.42861286636753E-16,0.));
#765=DIRECTION('',(5.10008701937181E-16,2.1,0.));
#766=DIRECTION('',(-1.,2.42861286636753E-16,0.));
#767=DIRECTION('',(1.,-1.22124532708767E-15,0.));
#768=DIRECTION('',(1.,-2.42861286636753E-16,0.));
#769=DIRECTION('',(5.10008701937181E-16,2.1,0.));
#770=DIRECTION('',(-1.,2.42861286636753E-16,0.));
#771=DIRECTION('',(1.,0.,0.));
#772=DIRECTION('',(1.,-2.42861286636753E-16,0.));
#773=DIRECTION('',(5.10008701937181E-16,2.1,0.));
#774=DIRECTION('',(-1.,2.42861286636753E-16,0.));
#775=DIRECTION('',(1.,0.,0.));
#776=DIRECTION('',(-1.,0.,0.));
#777=DIRECTION('',(0.,6.44398106898306,-0.851532725494551));
#778=DIRECTION('',(1.,-2.42861286636753E-16,0.));
#779=DIRECTION('',(1.68537765143581E-15,6.9396719204433,-0.917035242840286));
#780=DIRECTION('',(1.,0.,0.));
#781=DIRECTION('',(0.,6.44398106898306,-0.851532725494551));
#782=DIRECTION('',(1.,-2.42861286636753E-16,0.));
#783=DIRECTION('',(5.10008701937181E-16,2.1,0.));
#784=DIRECTION('',(1.,-2.42861286636753E-16,0.));
#785=DIRECTION('',(5.10008701937181E-16,2.1,0.));
#786=DIRECTION('',(1.,-2.42861286636753E-16,0.));
#787=DIRECTION('',(5.10008701937181E-16,2.1,0.));
#788=CARTESIAN_POINT('',(94.5,-0.490011668761338,137.667984361554));
#789=CARTESIAN_POINT('',(94.,1.84377302165398,139.799852682986));
#790=CARTESIAN_POINT('',(94.,1.843773021654,139.799852682986));
#791=CARTESIAN_POINT('',(94.,-31.6671476825383,117.779142346647));
#792=CARTESIAN_POINT('',(94.,-31.6671476825383,117.779142346647));
#793=CARTESIAN_POINT('',(94.9999999999999,-31.1179828908904,116.943428261799));
#794=CARTESIAN_POINT('',(95.,-31.1179828908904,116.943428261799));
#795=CARTESIAN_POINT('',(94.9999999999999,2.97811111530097,139.348667924969));
#796=CARTESIAN_POINT('',(95.,2.97811111530092,139.348667924969));
#797=CARTESIAN_POINT('',(94.5,-27.8229941410027,111.929143752707));
#798=CARTESIAN_POINT('',(94.,-23.978840599467,106.079145158767));
#799=CARTESIAN_POINT('',(93.9999999999998,-23.9788405994671,106.079145158767));
#800=CARTESIAN_POINT('',(95.,-24.528005391115,106.914859243616));
#801=CARTESIAN_POINT('',(95.,-27.8229941410027,111.929143752707));
#802=CARTESIAN_POINT('',(94.,-27.8229941410027,111.929143752707));
#803=CARTESIAN_POINT('',(94.5,-10.1063297294341,115.793346090354));
#804=CARTESIAN_POINT('',(94.,13.6282932187182,130.791560782925));
#805=CARTESIAN_POINT('',(93.9999999999999,13.6282932187182,130.791560782925));
#806=CARTESIAN_POINT('',(95.,13.0791284270703,131.627274867774));
#807=CARTESIAN_POINT('',(95.,13.0791284270702,131.627274867774));
#808=CARTESIAN_POINT('',(94.,-23.978840599467,106.079145158767));
#809=CARTESIAN_POINT('',(94.5,9.78413967718255,136.641559376865));
#810=CARTESIAN_POINT('',(94.6,16.1289825758735,135.80312715484));
#811=CARTESIAN_POINT('',(94.,16.7238115976258,135.724524134025));
#812=CARTESIAN_POINT('',(95.,15.7324298947054,135.855529168716));
#813=CARTESIAN_POINT('',(95.,9.78413967718255,136.641559376865));
#814=CARTESIAN_POINT('',(94.,9.78413967718255,136.641559376865));
#815=CARTESIAN_POINT('',(94.5,14.6789552338121,144.185202852445));
#816=CARTESIAN_POINT('',(94.,6.81197845557517,179.611505358595));
#817=CARTESIAN_POINT('',(94.,6.81197845557515,179.611505358595));
#818=CARTESIAN_POINT('',(95.,5.83883867620728,179.381290307367));
#819=CARTESIAN_POINT('',(95.,5.83883867620729,179.381290307367));
#820=CARTESIAN_POINT('',(95.,15.6229783533899,138.022849684232));
#821=CARTESIAN_POINT('',(94.,16.5961181327577,138.25306473546));
#822=CARTESIAN_POINT('',(94.,16.5961181327577,138.25306473546));
#823=CARTESIAN_POINT('',(94.,16.5961181327577,138.25306473546));
#824=CARTESIAN_POINT('',(94.5,3.49102100713543E-15,178.));
#825=CARTESIAN_POINT('',(94.,-6.81197845557517,176.388494641405));
#826=CARTESIAN_POINT('',(94.,-6.81197845557514,176.388494641405));
#827=CARTESIAN_POINT('',(95.,-5.83883867620725,176.618709692633));
#828=CARTESIAN_POINT('',(95.,3.37384707313805E-15,178.));
#829=CARTESIAN_POINT('',(94.,3.60819494113281E-15,178.));
#830=CARTESIAN_POINT('',(94.5,-2.86393173656166,161.871627498051));
#831=CARTESIAN_POINT('',(95.,2.97811111530092,139.348667924969));
#832=CARTESIAN_POINT('',(94.,-6.81197845557516,176.388494641405));
#833=CARTESIAN_POINT('',(95.,9.78413967718255,136.641559376865));
#834=CARTESIAN_POINT('',(87.,16.7238115976259,135.724524134025));
#835=CARTESIAN_POINT('',(88.,16.7238115976258,135.724524134025));
#836=CARTESIAN_POINT('',(88.,9.78413967718255,136.641559376865));
#837=CARTESIAN_POINT('',(88.,16.5961181327577,138.25306473546));
#838=CARTESIAN_POINT('',(94.,16.5961181327577,138.25306473546));
#839=CARTESIAN_POINT('',(95.,-23.978840599467,106.079145158767));
#840=CARTESIAN_POINT('',(94.,-23.978840599467,106.079145158767));
#841=CARTESIAN_POINT('',(88.0000000000002,-23.9788405994671,106.079145158767));
#842=CARTESIAN_POINT('',(88.,13.6282932187182,130.791560782925));
#843=CARTESIAN_POINT('',(88.0000000000001,13.6282932187183,130.791560782925));
#844=CARTESIAN_POINT('',(94.,13.6282932187182,130.791560782925));
#845=CARTESIAN_POINT('',(95.,-27.8229941410027,111.929143752707));
#846=CARTESIAN_POINT('',(94.,-31.6671476825383,117.779142346647));
#847=CARTESIAN_POINT('',(88.,-31.6671476825383,117.779142346647));
#848=CARTESIAN_POINT('',(88.,-27.8229941410027,111.929143752707));
#849=CARTESIAN_POINT('',(95.,1.84377302165398,139.799852682986));
#850=CARTESIAN_POINT('',(94.,1.84377302165398,139.799852682986));
#851=CARTESIAN_POINT('',(88.,1.843773021654,139.799852682986));
#852=CARTESIAN_POINT('',(88.,-31.6671476825383,117.779142346647));
#853=CARTESIAN_POINT('',(95.,-9.01942723191005,144.964571876354));
#854=CARTESIAN_POINT('',(95.,9.78413967718255,136.641559376865));
#855=CARTESIAN_POINT('',(95.,7.68413967718255,136.641559376865));
#856=CARTESIAN_POINT('',(95.,11.8841396771825,136.641559376865));
#857=CARTESIAN_POINT('',(95.,-27.8229941410027,111.929143752707));
#858=CARTESIAN_POINT('',(95.,-29.9229941410027,111.929143752707));
#859=CARTESIAN_POINT('',(95.,-25.7229941410027,111.929143752707));
#860=CARTESIAN_POINT('',(95.,3.36533365449606E-15,178.));
#861=CARTESIAN_POINT('',(95.,-2.1,178.));
#862=CARTESIAN_POINT('',(95.,2.1,178.));
#863=CARTESIAN_POINT('',(87.5,-0.49001166876134,137.667984361554));
#864=CARTESIAN_POINT('',(87.,2.97811111530092,139.348667924969));
#865=CARTESIAN_POINT('',(87.0000000000001,2.97811111530096,139.348667924969));
#866=CARTESIAN_POINT('',(87.0000000000001,-31.1179828908904,116.943428261799));
#867=CARTESIAN_POINT('',(87.,-31.1179828908904,116.943428261799));
#868=CARTESIAN_POINT('',(87.,2.97811111530092,139.348667924969));
#869=CARTESIAN_POINT('',(87.5,-27.8229941410027,111.929143752707));
#870=CARTESIAN_POINT('',(87.,-24.528005391115,106.914859243616));
#871=CARTESIAN_POINT('',(87.0000000000001,-24.528005391115,106.914859243616));
#872=CARTESIAN_POINT('',(87.,-27.8229941410027,111.929143752707));
#873=CARTESIAN_POINT('',(87.5,-10.1063297294341,115.793346090354));
#874=CARTESIAN_POINT('',(87.,13.0791284270703,131.627274867774));
#875=CARTESIAN_POINT('',(87.,13.0791284270704,131.627274867774));
#876=CARTESIAN_POINT('',(87.,-24.528005391115,106.914859243616));
#877=CARTESIAN_POINT('',(87.5,9.78413967718255,136.641559376865));
#878=CARTESIAN_POINT('',(87.4,16.1289825758736,135.80312715484));
#879=CARTESIAN_POINT('',(87.,15.7324298947054,135.855529168716));
#880=CARTESIAN_POINT('',(87.,9.78413967718255,136.641559376865));
#881=CARTESIAN_POINT('',(87.,15.6229783533899,138.022849684232));
#882=CARTESIAN_POINT('',(87.,15.6229783533899,138.022849684232));
#883=CARTESIAN_POINT('',(87.5,14.6789552338121,144.185202852445));
#884=CARTESIAN_POINT('',(87.,5.83883867620729,179.381290307367));
#885=CARTESIAN_POINT('',(87.,5.83883867620729,179.381290307367));
#886=CARTESIAN_POINT('',(88.,6.81197845557516,179.611505358595));
#887=CARTESIAN_POINT('',(88.,6.81197845557517,179.611505358595));
#888=CARTESIAN_POINT('',(87.,15.6229783533899,138.022849684232));
#889=CARTESIAN_POINT('',(87.5,5.18253659495071E-15,178.));
#890=CARTESIAN_POINT('',(87.,-5.83883867620727,176.618709692633));
#891=CARTESIAN_POINT('',(87.,-5.83883867620725,176.618709692633));
#892=CARTESIAN_POINT('',(88.,-6.81197845557513,176.388494641405));
#893=CARTESIAN_POINT('',(88.,5.06536266095333E-15,178.));
#894=CARTESIAN_POINT('',(87.,5.29971052894809E-15,178.));
#895=CARTESIAN_POINT('',(87.5,-2.86393173656166,161.871627498051));
#896=CARTESIAN_POINT('',(88.,1.84377302165398,139.799852682986));
#897=CARTESIAN_POINT('',(87.,-5.83883867620727,176.618709692633));
#898=CARTESIAN_POINT('',(95.,16.5961181327577,138.25306473546));
#899=CARTESIAN_POINT('',(94.,6.81197845557517,179.611505358595));
#900=CARTESIAN_POINT('',(95.,3.36533365449606E-15,178.));
#901=CARTESIAN_POINT('',(94.,-6.81197845557516,176.388494641405));
#902=CARTESIAN_POINT('',(95.,-6.81197845557517,176.388494641405));
#903=CARTESIAN_POINT('',(87.,-9.01942723191005,144.964571876354));
#904=CARTESIAN_POINT('',(87.,9.78413967718255,136.641559376865));
#905=CARTESIAN_POINT('',(87.,11.8841396771825,136.641559376865));
#906=CARTESIAN_POINT('',(87.,7.68413967718256,136.641559376865));
#907=CARTESIAN_POINT('',(87.,-27.8229941410027,111.929143752707));
#908=CARTESIAN_POINT('',(87.,-25.7229941410027,111.929143752707));
#909=CARTESIAN_POINT('',(87.,-29.9229941410027,111.929143752707));
#910=CARTESIAN_POINT('',(87.,5.30822394759008E-15,178.));
#911=CARTESIAN_POINT('',(87.,2.1,178.));
#912=CARTESIAN_POINT('',(87.,-2.1,178.));
#913=CARTESIAN_POINT('',(95.,9.78413967718255,136.641559376865));
#914=CARTESIAN_POINT('',(87.,11.8841396771826,136.641559376865));
#915=CARTESIAN_POINT('',(87.,7.68413967718256,136.641559376865));
#916=CARTESIAN_POINT('',(95.,-27.8229941410027,111.929143752707));
#917=CARTESIAN_POINT('',(87.,-25.7229941410027,111.929143752707));
#918=CARTESIAN_POINT('',(87.,-29.9229941410027,111.929143752707));
#919=CARTESIAN_POINT('',(95.,3.36533365449606E-15,178.));
#920=CARTESIAN_POINT('',(87.,2.10000000000001,178.));
#921=CARTESIAN_POINT('',(87.,-2.1,178.));
#922=CARTESIAN_POINT('',(94.5,9.78413967718255,136.641559376865));
#923=CARTESIAN_POINT('',(95.,9.78413967718255,136.641559376865));
#924=CARTESIAN_POINT('',(87.5,9.78413967718255,136.641559376865));
#925=CARTESIAN_POINT('',(95.,9.78413967718255,136.641559376865));
#926=CARTESIAN_POINT('',(95.,-27.8229941410027,111.929143752707));
#927=CARTESIAN_POINT('',(95.,3.36533365449606E-15,178.));
#928=PLANE('',#606);
#929=PLANE('',#610);
#930=PLANE('',#614);
#931=PLANE('',#618);
#932=PLANE('',#621);
#933=PLANE('',#624);
#934=PLANE('',#625);
#935=PLANE('',#629);
#936=PLANE('',#632);
#937=PLANE('',#635);
#938=PLANE('',#639);
#939=PLANE('',#640);
#940=PLANE('',#642);
#941=PLANE('',#643);
#942=CLOSED_SHELL('',(#574,#575,#576,#577,#578,#579,#580,#581,#582,#583,
#584,#585,#586,#587,#588,#589,#590,#591,#592,#593,#594,#595,#596,#597,#598,
#599,#600,#601,#602,#603,#604,#605));
#943=MANIFOLD_SOLID_BREP('',#942);
#944=ADVANCED_BREP_SHAPE_REPRESENTATION('',(#943),#103);
ENDSEC;
END-ISO-10303-21;
